SplineFontDB: 3.0
FontName: Cimatics_Noise
FullName: Cimatics Noise
FamilyName: Cimatics
Weight: Book
Copyright: Cimatics was designed by Ludi and Ivan - OSP (http://ospublish.constantvzw.org) in July 2009.\nIt is based on URW Gothic L.\nCopyright (URW)++, Copyright 1999 by (URW)++ Design & Development; Cyrillic glyphs added by Valek Filippov (C) 2001-2005
Version: 1
ItalicAngle: 0
UnderlinePosition: -676
UnderlineWidth: 58
Ascent: 800
Descent: 200
LayerCount: 2
Layer: 0 1 "Back" 
Layer: 1 1 "Fore" 
XUID: [1021 179 886990652 16155355]
FSType: 0
OS2Version: 3
OS2_WeightWidthSlopeOnly: 0
OS2_UseTypoMetrics: 1
CreationTime: 1247777544
ModificationTime: 1253374687
PfmFamily: 81
TTFWeight: 400
TTFWidth: 5
LineGap: 90
VLineGap: 0
Panose: 2 11 5 4 1 1 2 2 2 3
OS2TypoAscent: 0
OS2TypoAOffset: 1
OS2TypoDescent: 0
OS2TypoDOffset: 1
OS2TypoLinegap: 90
OS2WinAscent: 1
OS2WinAOffset: 1
OS2WinDescent: 0
OS2WinDOffset: 1
HheadAscent: -841
HheadAOffset: 1
HheadDescent: 688
HheadDOffset: 1
OS2SubXSize: 650
OS2SubYSize: 700
OS2SubXOff: 0
OS2SubYOff: 140
OS2SupXSize: 650
OS2SupYSize: 700
OS2SupXOff: 0
OS2SupYOff: 480
OS2StrikeYSize: 49
OS2StrikeYPos: 258
OS2Vendor: 'PfEd'
OS2CodePages: 20000097.0fd60000
OS2UnicodeRanges: 810002af.5200f06a.01040000.00000000
Lookup: 4 0 1 "<1,2> Common Ligatures in Latin lookup 0"  {"<1,2> Common Ligatures in Latin lookup 0 subtable"  } [<1,2> ('DFLT' <'dflt' > 'latn' <'dflt' > ) 'liga' ('DFLT' <'dflt' > 'latn' <'dflt' > ) ]
Lookup: 258 0 0 "'kern' Horizontal Kerning in Latin lookup 0"  {"'kern' Horizontal Kerning in Latin lookup 0 subtable"  } ['kern' ('DFLT' <'dflt' > 'latn' <'dflt' > ) ]
DEI: 0
MacFeat: 0 0 0
MacName: 0 0 24 "All Typographic Features"
MacName: 0 1 24 "Fonctions typographiques"
MacName: 0 2 32 "Alle typografischen Mglichkeiten"
MacName: 0 3 21 "Funzioni Tipografiche"
MacName: 0 4 28 "Alle typografische kenmerken"
MacSetting: 0
MacName: 0 0 17 "All Type Features"
MacName: 0 1 31 "Toutes fonctions typographiques"

StartChar: .notdef
Encoding: 65536 -1 0
Width: 364
Flags: W
LayerCount: 2
Fore
SplineSet
33 0 m 1,0,-1
 33 666 l 1,1,-1
 298 666 l 1,2,-1
 298 0 l 1,3,-1
 33 0 l 1,0,-1
66 33 m 1,4,-1
 265 33 l 1,5,-1
 265 633 l 1,6,-1
 66 633 l 1,7,-1
 66 33 l 1,4,-1
EndSplineSet
Validated: 1
EndChar

StartChar: space
Encoding: 32 32 3
Width: 277
Flags: W
LayerCount: 2
Fore
SplineSet
129 370 m 128,-1,1
 123 370 123 370 119 366 c 128,-1,2
 115 362 115 362 115 356 c 128,-1,3
 115 350 115 350 119 346 c 128,-1,4
 123 342 123 342 129 342 c 128,-1,5
 135 342 135 342 139 346 c 128,-1,6
 143 350 143 350 143 355.5 c 128,-1,7
 143 361 143 361 139 365.5 c 128,-1,0
 135 370 135 370 129 370 c 128,-1,1
129 379 m 0,8,9
 134 379 134 379 138 377 c 128,-1,10
 142 375 142 375 145.5 372 c 128,-1,11
 149 369 149 369 150.5 364.5 c 128,-1,12
 152 360 152 360 152 356 c 0,13,14
 152 346 152 346 145.5 339.5 c 128,-1,15
 139 333 139 333 129 333 c 128,-1,16
 119 333 119 333 112.5 339.5 c 128,-1,17
 106 346 106 346 106 355.5 c 128,-1,18
 106 365 106 365 112.5 372 c 128,-1,19
 119 379 119 379 129 379 c 0,8,9
129 394 m 128,-1,21
 121 394 121 394 114.5 391 c 128,-1,22
 108 388 108 388 102 382.5 c 128,-1,23
 96 377 96 377 93.5 370.5 c 128,-1,24
 91 364 91 364 91 356 c 128,-1,25
 91 348 91 348 93.5 341 c 128,-1,26
 96 334 96 334 102 328.5 c 128,-1,27
 108 323 108 323 114.5 320 c 128,-1,28
 121 317 121 317 129 317 c 128,-1,29
 137 317 137 317 143.5 320 c 128,-1,30
 150 323 150 323 156 328.5 c 128,-1,31
 162 334 162 334 164.5 341 c 128,-1,32
 167 348 167 348 167 356 c 128,-1,33
 167 364 167 364 164.5 370.5 c 128,-1,34
 162 377 162 377 156 382.5 c 128,-1,35
 150 388 150 388 143.5 391 c 128,-1,20
 137 394 137 394 129 394 c 128,-1,21
129 405 m 128,-1,37
 139 405 139 405 148 401.5 c 128,-1,38
 157 398 157 398 164 390 c 0,39,40
 171 383 171 383 174.5 374.5 c 128,-1,41
 178 366 178 366 178 356 c 128,-1,42
 178 346 178 346 174.5 337 c 128,-1,43
 171 328 171 328 164 321 c 256,44,45
 157 314 157 314 148 310 c 128,-1,46
 139 306 139 306 129 306 c 128,-1,47
 119 306 119 306 110 310 c 128,-1,48
 101 314 101 314 94 321 c 256,49,50
 87 328 87 328 83.5 337 c 128,-1,51
 80 346 80 346 80 356 c 128,-1,52
 80 366 80 366 83.5 374.5 c 128,-1,53
 87 383 87 383 94 390 c 0,54,55
 101 398 101 398 110 401.5 c 128,-1,36
 119 405 119 405 129 405 c 128,-1,37
EndSplineSet
Validated: 1
EndChar

StartChar: exclam
Encoding: 33 33 4
Width: 295
Flags: W
LayerCount: 2
Fore
SplineSet
111 0 m 1,0,-1
 111 126 l 1,1,-1
 185 126 l 1,2,-1
 185 0 l 1,3,-1
 111 0 l 1,0,-1
111 197 m 1,4,-1
 111 739 l 1,5,-1
 185 739 l 1,6,-1
 185 197 l 1,7,-1
 111 197 l 1,4,-1
EndSplineSet
Validated: 1
EndChar

StartChar: quotedbl
Encoding: 34 34 5
Width: 309
Flags: W
LayerCount: 2
Fore
SplineSet
237 513 m 1,0,-1
 187 513 l 1,1,-1
 187 739 l 1,2,-1
 237 739 l 1,3,-1
 237 513 l 1,0,-1
124 513 m 1,4,-1
 74 513 l 1,5,-1
 74 739 l 1,6,-1
 124 739 l 1,7,-1
 124 513 l 1,4,-1
EndSplineSet
Validated: 1
EndChar

StartChar: numbersign
Encoding: 35 35 6
Width: 554
Flags: W
LayerCount: 2
Fore
SplineSet
534 298 m 1,0,-1
 534 237 l 1,1,-1
 399 237 l 1,2,-1
 356 0 l 1,3,-1
 290 0 l 1,4,-1
 333 237 l 1,5,-1
 169 237 l 1,6,-1
 124 0 l 1,7,-1
 59 0 l 1,8,-1
 104 237 l 1,9,-1
 5 237 l 1,10,-1
 5 298 l 1,11,-1
 116 298 l 1,12,-1
 145 453 l 1,13,-1
 21 453 l 1,14,-1
 21 514 l 1,15,-1
 156 514 l 1,16,-1
 198 739 l 1,17,-1
 262 739 l 1,18,-1
 221 514 l 1,19,-1
 384 514 l 1,20,-1
 424 739 l 1,21,-1
 491 739 l 1,22,-1
 450 514 l 1,23,-1
 549 514 l 1,24,-1
 549 453 l 1,25,-1
 439 453 l 1,26,-1
 411 298 l 1,27,-1
 534 298 l 1,0,-1
373 453 m 1,28,-1
 210 453 l 1,29,-1
 181 298 l 1,30,-1
 344 298 l 1,31,-1
 373 453 l 1,28,-1
EndSplineSet
Validated: 1
EndChar

StartChar: dollar
Encoding: 36 36 7
Width: 554
Flags: W
LayerCount: 2
Fore
SplineSet
245 -56 m 1,0,-1
 245 29 l 1,1,2
 159 45 159 45 115.5 96 c 128,-1,3
 72 147 72 147 75 228 c 1,4,-1
 144 228 l 1,5,6
 148 163 148 163 183 126.5 c 128,-1,7
 218 90 218 90 277 90 c 0,8,9
 333 90 333 90 369 128 c 128,-1,10
 405 166 405 166 405 224 c 0,11,12
 405 285 405 285 363 321 c 0,13,14
 335 344 335 344 270 363 c 0,15,16
 214 380 214 380 186.5 395.5 c 128,-1,17
 159 411 159 411 139 436 c 0,18,19
 100 483 100 483 100 552 c 0,20,21
 100 620 100 620 139 667.5 c 128,-1,22
 178 715 178 715 245 728 c 1,23,-1
 245 810 l 1,24,-1
 311 810 l 1,25,-1
 311 728 l 1,26,27
 385 717 385 717 427.5 669 c 128,-1,28
 470 621 470 621 473 547 c 1,29,-1
 403 547 l 1,30,31
 400 603 400 603 369.5 634 c 128,-1,32
 339 665 339 665 287 665 c 128,-1,33
 235 665 235 665 204.5 633 c 128,-1,34
 174 601 174 601 174 546 c 0,35,36
 174 500 174 500 199.5 475.5 c 128,-1,37
 225 451 225 451 296 428 c 0,38,39
 389 398 389 398 424 363 c 0,40,41
 479 311 479 311 479 226 c 0,42,43
 479 147 479 147 432 92 c 128,-1,44
 385 37 385 37 311 29 c 1,45,-1
 311 -56 l 1,46,-1
 245 -56 l 1,0,-1
EndSplineSet
Validated: 33
EndChar

StartChar: percent
Encoding: 37 37 8
Width: 775
Flags: W
LayerCount: 2
Fore
SplineSet
514 739 m 1,0,-1
 588 739 l 1,1,-1
 254 0 l 1,2,-1
 182 0 l 1,3,-1
 514 739 l 1,0,-1
578 338 m 0,4,5
 649 338 649 338 700.5 286 c 128,-1,6
 752 234 752 234 752 163 c 0,7,8
 752 90 752 90 700.5 38.5 c 128,-1,9
 649 -13 649 -13 576 -13 c 0,10,11
 504 -13 504 -13 452.5 38.5 c 128,-1,12
 401 90 401 90 401 162 c 0,13,14
 401 236 401 236 452.5 287 c 128,-1,15
 504 338 504 338 578 338 c 0,4,5
577 272 m 0,16,17
 531 272 531 272 499.5 240 c 128,-1,18
 468 208 468 208 468 162 c 0,19,20
 468 117 468 117 500 85 c 128,-1,21
 532 53 532 53 576 53 c 128,-1,22
 620 53 620 53 652 85 c 128,-1,23
 684 117 684 117 684 162 c 128,-1,24
 684 207 684 207 652.5 239.5 c 128,-1,25
 621 272 621 272 577 272 c 0,16,17
190 749 m 0,26,27
 261 749 261 749 312.5 697 c 128,-1,28
 364 645 364 645 364 573 c 0,29,30
 364 500 364 500 312.5 448.5 c 128,-1,31
 261 397 261 397 188 397 c 0,32,33
 116 397 116 397 64.5 448.5 c 128,-1,34
 13 500 13 500 13 573 c 0,35,36
 13 647 13 647 64.5 698 c 128,-1,37
 116 749 116 749 190 749 c 0,26,27
189 683 m 0,38,39
 143 683 143 683 111 651 c 128,-1,40
 79 619 79 619 79 573 c 0,41,42
 79 528 79 528 111 495.5 c 128,-1,43
 143 463 143 463 188 463 c 0,44,45
 232 463 232 463 264 495 c 128,-1,46
 296 527 296 527 296 573 c 0,47,48
 296 618 296 618 264.5 650.5 c 128,-1,49
 233 683 233 683 189 683 c 0,38,39
EndSplineSet
Validated: 1
EndChar

StartChar: ampersand
Encoding: 38 38 9
Width: 757
Flags: W
LayerCount: 2
Fore
SplineSet
602 481 m 1,0,-1
 684 481 l 1,1,-1
 548 220 l 1,2,-1
 735 38 l 1,3,-1
 684 -13 l 1,4,-1
 513 153 l 1,5,6
 469 66 469 66 416 26.5 c 128,-1,7
 363 -13 363 -13 290 -13 c 0,8,9
 188 -13 188 -13 123 52 c 0,10,11
 57 120 57 120 57 213 c 0,12,13
 57 313 57 313 138 378 c 0,14,15
 174 406 174 406 227 433 c 1,16,17
 181 481 181 481 163 515.5 c 128,-1,18
 145 550 145 550 145 588 c 0,19,20
 145 657 145 657 196 704.5 c 128,-1,21
 247 752 247 752 320 752 c 0,22,23
 397 752 397 752 447.5 704 c 128,-1,24
 498 656 498 656 498 583 c 0,25,26
 498 505 498 505 431 455 c 0,27,28
 412 440 412 440 354 411 c 1,29,-1
 494 273 l 1,30,-1
 602 481 l 1,0,-1
458 206 m 1,31,-1
 280 380 l 1,32,33
 198 340 198 340 164 300.5 c 128,-1,34
 130 261 130 261 130 205 c 0,35,36
 130 142 130 142 175 98 c 128,-1,37
 220 54 220 54 285 54 c 0,38,39
 338 54 338 54 378 89 c 128,-1,40
 418 124 418 124 458 206 c 1,31,-1
300 464 m 1,41,42
 366 489 366 489 397 519.5 c 128,-1,43
 428 550 428 550 428 589 c 0,44,45
 428 630 428 630 397.5 657.5 c 128,-1,46
 367 685 367 685 322 685 c 0,47,48
 279 685 279 685 249 657.5 c 128,-1,49
 219 630 219 630 219 590 c 0,50,51
 219 538 219 538 300 464 c 1,41,42
EndSplineSet
Validated: 1
EndChar

StartChar: quotesingle
Encoding: 39 39 10
Width: 198
Flags: W
LayerCount: 2
Fore
SplineSet
124 513 m 1,0,-1
 74 513 l 1,1,-1
 74 739 l 1,2,-1
 124 739 l 1,3,-1
 124 513 l 1,0,-1
EndSplineSet
Validated: 1
EndChar

StartChar: parenleft
Encoding: 40 40 11
Width: 369
Flags: W
LayerCount: 2
Fore
SplineSet
335 739 m 1,0,-1
 335 676 l 1,1,2
 252 626 252 626 206 551 c 0,3,4
 131 436 131 436 131 309 c 0,5,6
 131 162 131 162 226 35 c 0,7,8
 266 -17 266 -17 335 -60 c 1,9,-1
 335 -125 l 1,10,11
 277 -104 277 -104 235 -70.5 c 128,-1,12
 193 -37 193 -37 153 19 c 0,13,14
 57 151 57 151 57 309 c 0,15,16
 57 404 57 404 95.5 496.5 c 128,-1,17
 134 589 134 589 201 656 c 0,18,19
 255 711 255 711 335 739 c 1,0,-1
EndSplineSet
Validated: 1
EndChar

StartChar: parenright
Encoding: 41 41 12
Width: 369
Flags: W
LayerCount: 2
Fore
SplineSet
34 -125 m 1,0,-1
 34 -61 l 1,1,2
 115 -14 115 -14 163 63 c 0,3,4
 238 180 238 180 238 306 c 0,5,6
 238 452 238 452 143 579 c 0,7,8
 101 634 101 634 34 674 c 1,9,-1
 34 739 l 1,10,11
 91 719 91 719 133.5 685.5 c 128,-1,12
 176 652 176 652 216 595 c 0,13,14
 312 463 312 463 312 305 c 0,15,16
 312 211 312 211 274 118.5 c 128,-1,17
 236 26 236 26 168 -42 c 0,18,19
 112 -98 112 -98 34 -125 c 1,0,-1
EndSplineSet
Validated: 1
EndChar

StartChar: asterisk
Encoding: 42 42 13
Width: 425
Flags: W
LayerCount: 2
Fore
SplineSet
267 752 m 1,0,-1
 314 724 l 1,1,-1
 257 632 l 1,2,-1
 360 635 l 1,3,-1
 360 583 l 1,4,-1
 258 585 l 1,5,-1
 313 495 l 1,6,-1
 266 468 l 1,7,-1
 213 559 l 1,8,-1
 160 468 l 1,9,-1
 112 496 l 1,10,-1
 169 585 l 1,11,-1
 64 583 l 1,12,-1
 64 635 l 1,13,-1
 169 632 l 1,14,-1
 113 724 l 1,15,-1
 162 752 l 1,16,-1
 215 662 l 1,17,-1
 267 752 l 1,0,-1
EndSplineSet
Validated: 1
EndChar

StartChar: plus
Encoding: 43 43 14
Width: 606
Flags: W
LayerCount: 2
Fore
SplineSet
265 341 m 1,0,-1
 265 557 l 1,1,-1
 342 557 l 1,2,-1
 342 341 l 1,3,-1
 555 341 l 1,4,-1
 555 267 l 1,5,-1
 342 267 l 1,6,-1
 342 49 l 1,7,-1
 265 49 l 1,8,-1
 265 267 l 1,9,-1
 51 267 l 1,10,-1
 51 341 l 1,11,-1
 265 341 l 1,0,-1
EndSplineSet
Validated: 1
EndChar

StartChar: comma
Encoding: 44 44 15
Width: 277
Flags: W
LayerCount: 2
Fore
SplineSet
91 -67 m 1,0,-1
 179 126 l 1,1,-1
 253 126 l 1,2,-1
 165 -67 l 1,3,-1
 91 -67 l 1,0,-1
EndSplineSet
Validated: 1
EndChar

StartChar: hyphen
Encoding: 45 45 16
Width: 332
Flags: W
LayerCount: 2
Fore
SplineSet
31 296 m 1,0,-1
 302 296 l 1,1,-1
 302 233 l 1,2,-1
 31 233 l 1,3,-1
 31 296 l 1,0,-1
EndSplineSet
Validated: 1
EndChar

StartChar: period
Encoding: 46 46 17
Width: 277
Flags: W
LayerCount: 2
Fore
SplineSet
101 0 m 1,0,-1
 101 126 l 1,1,-1
 175 126 l 1,2,-1
 175 0 l 1,3,-1
 101 0 l 1,0,-1
EndSplineSet
Validated: 1
EndChar

StartChar: slash
Encoding: 47 47 18
Width: 437
Flags: W
LayerCount: 2
Fore
SplineSet
40 -128 m 1,0,-1
 327 739 l 1,1,-1
 397 739 l 1,2,-1
 107 -128 l 1,3,-1
 40 -128 l 1,0,-1
EndSplineSet
Validated: 1
EndChar

StartChar: zero
Encoding: 48 48 19
Width: 554
Flags: W
LayerCount: 2
Fore
SplineSet
30 269 m 2,0,-1
 30 479 l 2,1,2
 30 603 30 603 83 669 c 0,3,4
 149 752 149 752 277 752 c 0,5,6
 414 752 414 752 482 653 c 0,7,8
 506 619 506 619 515.5 580.5 c 128,-1,9
 525 542 525 542 525 479 c 2,10,-1
 525 269 l 2,11,12
 525 144 525 144 481 79 c 0,13,14
 418 -13 418 -13 283 -13 c 0,15,16
 131 -13 131 -13 66 98 c 0,17,18
 30 160 30 160 30 269 c 2,0,-1
452 281 m 2,19,-1
 452 462 l 2,20,21
 452 573 452 573 418 619 c 0,22,23
 369 685 369 685 278 685 c 0,24,25
 229 685 229 685 190 664.5 c 128,-1,26
 151 644 151 644 129 607 c 0,27,28
 103 562 103 562 103 462 c 2,29,-1
 103 281 l 2,30,31
 103 171 103 171 136 124 c 0,32,33
 183 54 183 54 280 54 c 0,34,35
 387 54 387 54 428 134 c 0,36,37
 452 180 452 180 452 281 c 2,19,-1
EndSplineSet
Validated: 1
EndChar

StartChar: one
Encoding: 49 49 20
Width: 554
Flags: W
LayerCount: 2
Fore
SplineSet
281 0 m 1,0,-1
 281 672 l 1,1,-1
 155 672 l 1,2,-1
 155 739 l 1,3,-1
 354 739 l 1,4,-1
 354 0 l 1,5,-1
 281 0 l 1,0,-1
EndSplineSet
Validated: 1
EndChar

StartChar: two
Encoding: 50 50 21
Width: 554
Flags: W
LayerCount: 2
Fore
SplineSet
33 0 m 1,0,-1
 33 67 l 1,1,-1
 292 317 l 2,2,3
 358 380 358 380 380 407 c 0,4,5
 432 468 432 468 432 531 c 0,6,7
 432 598 432 598 387 641.5 c 128,-1,8
 342 685 342 685 272 685 c 0,9,10
 225 685 225 685 188 663 c 128,-1,11
 151 641 151 641 131 602 c 0,12,13
 112 563 112 563 112 500 c 1,14,-1
 39 500 l 1,15,16
 39 565 39 565 55 608 c 0,17,18
 80 675 80 675 138 713.5 c 128,-1,19
 196 752 196 752 273 752 c 0,20,21
 374 752 374 752 440 688.5 c 128,-1,22
 506 625 506 625 506 527 c 0,23,24
 506 468 506 468 477 418 c 128,-1,25
 448 368 448 368 370 294 c 2,26,-1
 133 67 l 1,27,-1
 502 67 l 1,28,-1
 502 0 l 1,29,-1
 33 0 l 1,0,-1
EndSplineSet
Validated: 1
EndChar

StartChar: three
Encoding: 51 51 22
Width: 554
Flags: W
LayerCount: 2
Fore
SplineSet
155 555 m 1,0,-1
 82 555 l 1,1,2
 85 646 85 646 135.5 699 c 128,-1,3
 186 752 186 752 269 752 c 0,4,5
 351 752 351 752 403 699.5 c 128,-1,6
 455 647 455 647 455 565 c 0,7,8
 455 476 455 476 379 423 c 1,9,10
 504 360 504 360 504 224 c 0,11,12
 504 124 504 124 437 55.5 c 128,-1,13
 370 -13 370 -13 272 -13 c 0,14,15
 206 -13 206 -13 151 18 c 128,-1,16
 96 49 96 49 65 103 c 0,17,18
 36 154 36 154 33 231 c 1,19,-1
 106 231 l 1,20,21
 111 162 111 162 135 126 c 0,22,23
 184 54 184 54 270 54 c 0,24,25
 338 54 338 54 384 102 c 128,-1,26
 430 150 430 150 430 220 c 0,27,28
 430 278 430 278 395.5 323 c 128,-1,29
 361 368 361 368 305 382 c 0,30,31
 281 387 281 387 219 388 c 1,32,-1
 219 454 l 1,33,-1
 236 453 l 2,34,35
 245 452 245 452 255 452 c 0,36,37
 313 452 313 452 347 483.5 c 128,-1,38
 381 515 381 515 381 568 c 0,39,40
 381 620 381 620 350 652.5 c 128,-1,41
 319 685 319 685 269 685 c 0,42,43
 215 685 215 685 185.5 651 c 128,-1,44
 156 617 156 617 155 555 c 1,0,-1
EndSplineSet
Validated: 1
EndChar

StartChar: four
Encoding: 52 52 23
Width: 554
Flags: W
LayerCount: 2
Fore
SplineSet
386 0 m 1,0,-1
 386 135 l 1,1,-1
 12 135 l 1,2,-1
 12 202 l 1,3,-1
 372 739 l 1,4,-1
 459 739 l 1,5,-1
 459 202 l 1,6,-1
 527 202 l 1,7,-1
 527 135 l 1,8,-1
 459 135 l 1,9,-1
 459 0 l 1,10,-1
 386 0 l 1,0,-1
386 202 m 1,11,-1
 386 637 l 1,12,-1
 97 202 l 1,13,-1
 386 202 l 1,11,-1
EndSplineSet
Validated: 1
EndChar

StartChar: five
Encoding: 53 53 24
Width: 554
Flags: W
LayerCount: 2
Fore
SplineSet
67 375 m 1,0,-1
 133 739 l 1,1,-1
 466 739 l 1,2,-1
 466 672 l 1,3,-1
 192 672 l 1,4,-1
 156 468 l 1,5,6
 219 503 219 503 283 503 c 0,7,8
 386 503 386 503 457 428.5 c 128,-1,9
 528 354 528 354 528 246 c 0,10,11
 528 137 528 137 456 62 c 128,-1,12
 384 -13 384 -13 280 -13 c 0,13,14
 206 -13 206 -13 144.5 26.5 c 128,-1,15
 83 66 83 66 51 134 c 0,16,17
 35 170 35 170 26 232 c 1,18,-1
 98 232 l 1,19,20
 108 153 108 153 157.5 103.5 c 128,-1,21
 207 54 207 54 277 54 c 0,22,23
 351 54 351 54 402.5 109.5 c 128,-1,24
 454 165 454 165 454 246 c 128,-1,25
 454 327 454 327 403 381.5 c 128,-1,26
 352 436 352 436 277 436 c 0,27,28
 191 436 191 436 124 353 c 1,29,-1
 67 375 l 1,0,-1
EndSplineSet
Validated: 1
EndChar

StartChar: six
Encoding: 54 54 25
Width: 554
Flags: W
LayerCount: 2
Fore
SplineSet
296 739 m 1,0,-1
 381 739 l 1,1,-1
 207 482 l 1,2,3
 253 503 253 503 294 503 c 0,4,5
 392 503 392 503 460.5 429 c 128,-1,6
 529 355 529 355 529 249 c 0,7,8
 529 136 529 136 458.5 61.5 c 128,-1,9
 388 -13 388 -13 280 -13 c 0,10,11
 171 -13 171 -13 98 60.5 c 128,-1,12
 25 134 25 134 25 244 c 0,13,14
 25 299 25 299 42.5 343.5 c 128,-1,15
 60 388 60 388 113 467 c 2,16,-1
 296 739 l 1,0,-1
278 436 m 0,17,18
 202 436 202 436 150.5 382 c 128,-1,19
 99 328 99 328 99 248 c 0,20,21
 99 164 99 164 150.5 109 c 128,-1,22
 202 54 202 54 280 54 c 0,23,24
 356 54 356 54 405.5 108.5 c 128,-1,25
 455 163 455 163 455 246 c 128,-1,26
 455 329 455 329 405 382.5 c 128,-1,27
 355 436 355 436 278 436 c 0,17,18
EndSplineSet
Validated: 1
EndChar

StartChar: seven
Encoding: 55 55 26
Width: 554
Flags: W
LayerCount: 2
Fore
SplineSet
110 0 m 1,0,-1
 414 672 l 1,1,-1
 64 672 l 1,2,-1
 64 739 l 1,3,-1
 490 739 l 1,4,-1
 490 672 l 1,5,-1
 188 0 l 1,6,-1
 110 0 l 1,0,-1
EndSplineSet
Validated: 1
EndChar

StartChar: eight
Encoding: 56 56 27
Width: 554
Flags: W
LayerCount: 2
Fore
SplineSet
167 413 m 1,0,1
 133 433 133 433 119 451 c 0,2,3
 81 495 81 495 81 561 c 0,4,5
 81 643 81 643 137.5 697.5 c 128,-1,6
 194 752 194 752 278 752 c 0,7,8
 363 752 363 752 418 698 c 128,-1,9
 473 644 473 644 473 561 c 0,10,11
 473 454 473 454 385 413 c 1,12,13
 512 357 512 357 512 218 c 0,14,15
 512 117 512 117 446.5 52 c 128,-1,16
 381 -13 381 -13 280 -13 c 0,17,18
 178 -13 178 -13 110 52 c 128,-1,19
 42 117 42 117 42 215 c 0,20,21
 42 353 42 353 167 413 c 1,0,1
278 375 m 0,22,23
 207 375 207 375 161.5 330.5 c 128,-1,24
 116 286 116 286 116 216 c 0,25,26
 116 145 116 145 161.5 99.5 c 128,-1,27
 207 54 207 54 279 54 c 0,28,29
 349 54 349 54 393.5 99.5 c 128,-1,30
 438 145 438 145 438 216 c 0,31,32
 438 286 438 286 393 330.5 c 128,-1,33
 348 375 348 375 278 375 c 0,22,23
277 685 m 128,-1,35
 224 685 224 685 189.5 652 c 128,-1,36
 155 619 155 619 155 567 c 0,37,38
 155 514 155 514 190.5 479 c 128,-1,39
 226 444 226 444 281 444 c 0,40,41
 331 444 331 444 365 478.5 c 128,-1,42
 399 513 399 513 399 565 c 128,-1,43
 399 617 399 617 364.5 651 c 128,-1,34
 330 685 330 685 277 685 c 128,-1,35
EndSplineSet
Validated: 1
EndChar

StartChar: nine
Encoding: 57 57 28
Width: 554
Flags: W
LayerCount: 2
Fore
SplineSet
2731 915 m 5,0,-1
 2503 915 l 5,1,-1
 2503 1103 l 5,2,-1
 2731 1103 l 5,3,-1
 2731 915 l 5,0,-1
1371 915 m 5,4,-1
 1143 915 l 5,5,-1
 1143 1027 l 5,6,-1
 1371 1027 l 5,7,-1
 1371 915 l 5,4,-1
1143 915 m 5,8,-1
 915 915 l 5,9,-1
 915 953 l 5,10,-1
 1143 953 l 5,11,-1
 1143 915 l 5,8,-1
258 0 m 1,12,-1
 173 0 l 1,13,-1
 347 257 l 1,14,15
 301 236 301 236 260 236 c 0,16,17
 162 236 162 236 93.5 310 c 128,-1,18
 25 384 25 384 25 490 c 0,19,20
 25 603 25 603 95.5 677.5 c 128,-1,21
 166 752 166 752 274 752 c 0,22,23
 383 752 383 752 456 678.5 c 128,-1,24
 529 605 529 605 529 495 c 0,25,26
 529 440 529 440 511.5 395.5 c 128,-1,27
 494 351 494 351 441 272 c 2,28,-1
 258 0 l 1,12,-1
274 685 m 0,29,30
 198 685 198 685 148.5 631 c 128,-1,31
 99 577 99 577 99 493 c 0,32,33
 99 410 99 410 149 356.5 c 128,-1,34
 199 303 199 303 276 303 c 0,35,36
 352 303 352 303 403.5 357 c 128,-1,37
 455 411 455 411 455 491 c 0,38,39
 455 575 455 575 403.5 630 c 128,-1,40
 352 685 352 685 274 685 c 0,29,30
EndSplineSet
Validated: 5
EndChar

StartChar: colon
Encoding: 58 58 29
Width: 277
Flags: W
LayerCount: 2
Fore
SplineSet
101 0 m 1,0,-1
 101 126 l 1,1,-1
 175 126 l 1,2,-1
 175 0 l 1,3,-1
 101 0 l 1,0,-1
101 381 m 1,4,-1
 101 507 l 1,5,-1
 175 507 l 1,6,-1
 175 381 l 1,7,-1
 101 381 l 1,4,-1
EndSplineSet
Validated: 1
EndChar

StartChar: semicolon
Encoding: 59 59 30
Width: 277
Flags: W
LayerCount: 2
Fore
SplineSet
41 -67 m 1,0,-1
 129 126 l 1,1,-1
 203 126 l 1,2,-1
 115 -67 l 1,3,-1
 41 -67 l 1,0,-1
125 381 m 1,4,-1
 125 507 l 1,5,-1
 199 507 l 1,6,-1
 199 381 l 1,7,-1
 125 381 l 1,4,-1
EndSplineSet
Validated: 1
EndChar

StartChar: less
Encoding: 60 60 31
Width: 606
Flags: W
LayerCount: 2
Fore
SplineSet
558 565 m 1,0,-1
 558 487 l 1,1,-1
 157 300 l 1,2,-1
 558 115 l 1,3,-1
 558 37 l 1,4,-1
 49 268 l 1,5,-1
 49 333 l 1,6,-1
 558 565 l 1,0,-1
EndSplineSet
Validated: 1
EndChar

StartChar: equal
Encoding: 61 61 32
Width: 606
Flags: W
LayerCount: 2
Fore
SplineSet
555 436 m 1,0,-1
 555 362 l 1,1,-1
 51 362 l 1,2,-1
 51 436 l 1,3,-1
 555 436 l 1,0,-1
555 238 m 1,4,-1
 555 164 l 1,5,-1
 51 164 l 1,6,-1
 51 238 l 1,7,-1
 555 238 l 1,4,-1
EndSplineSet
Validated: 1
EndChar

StartChar: greater
Encoding: 62 62 33
Width: 606
Flags: W
LayerCount: 2
Fore
SplineSet
48 37 m 1,0,-1
 48 115 l 1,1,-1
 450 302 l 1,2,-1
 48 487 l 1,3,-1
 48 565 l 1,4,-1
 557 334 l 1,5,-1
 557 269 l 1,6,-1
 48 37 l 1,0,-1
EndSplineSet
Validated: 1
EndChar

StartChar: question
Encoding: 63 63 34
Width: 591
Flags: W
LayerCount: 2
Fore
SplineSet
261 0 m 1,0,-1
 261 126 l 1,1,-1
 335 126 l 1,2,-1
 335 0 l 1,3,-1
 261 0 l 1,0,-1
135 508 m 1,4,-1
 65 508 l 1,5,6
 68 596 68 596 101 649 c 0,7,8
 167 752 167 752 299 752 c 0,9,10
 397 752 397 752 461 690.5 c 128,-1,11
 525 629 525 629 525 535 c 0,12,13
 525 486 525 486 505 448 c 128,-1,14
 485 410 485 410 435 365 c 0,15,16
 379 316 379 316 356.5 278 c 128,-1,17
 334 240 334 240 333 193 c 1,18,-1
 263 193 l 1,19,20
 264 254 264 254 287 299 c 128,-1,21
 310 344 310 344 367 397 c 0,22,23
 418 445 418 445 434.5 472.5 c 128,-1,24
 451 500 451 500 451 537 c 0,25,26
 451 601 451 601 408 643 c 128,-1,27
 365 685 365 685 299 685 c 0,28,29
 254 685 254 685 216.5 664.5 c 128,-1,30
 179 644 179 644 159 608 c 0,31,32
 140 575 140 575 135 508 c 1,4,-1
EndSplineSet
Validated: 1
EndChar

StartChar: at
Encoding: 64 64 35
Width: 867
Flags: W
LayerCount: 2
Fore
SplineSet
656 574 m 1,0,-1
 563 296 l 2,1,2
 543 235 543 235 543 219 c 0,3,4
 543 207 543 207 552.5 199 c 128,-1,5
 562 191 562 191 577 191 c 0,6,7
 619 191 619 191 666 240 c 0,8,9
 747 319 747 319 747 434 c 0,10,11
 747 547 747 547 662.5 624 c 128,-1,12
 578 701 578 701 452 701 c 0,13,14
 316 701 316 701 219.5 603 c 128,-1,15
 123 505 123 505 123 368 c 0,16,17
 123 230 123 230 219 133.5 c 128,-1,18
 315 37 315 37 453 37 c 128,-1,19
 591 37 591 37 687 138 c 1,20,-1
 727 105 l 1,21,22
 681 50 681 50 606.5 18.5 c 128,-1,23
 532 -13 532 -13 451 -13 c 0,24,25
 292 -13 292 -13 181.5 97.5 c 128,-1,26
 71 208 71 208 71 367 c 0,27,28
 71 527 71 527 182.5 639.5 c 128,-1,29
 294 752 294 752 453 752 c 0,30,31
 590 752 590 752 689 667 c 0,32,33
 797 576 797 576 797 433 c 0,34,35
 797 292 797 292 695 198 c 0,36,37
 632 139 632 139 564 139 c 0,38,39
 529 139 529 139 508.5 152 c 128,-1,40
 488 165 488 165 476 196 c 1,41,42
 424 144 424 144 357 144 c 0,43,44
 296 144 296 144 257.5 185.5 c 128,-1,45
 219 227 219 227 219 292 c 0,46,47
 219 407 219 407 294.5 500 c 128,-1,48
 370 593 370 593 463 593 c 0,49,50
 510 593 510 593 543 571 c 0,51,52
 563 559 563 559 578 524 c 1,53,-1
 595 574 l 1,54,-1
 656 574 l 1,0,-1
466 539 m 0,55,56
 400 539 400 539 345.5 462.5 c 128,-1,57
 291 386 291 386 291 294 c 0,58,59
 291 253 291 253 313 227.5 c 128,-1,60
 335 202 335 202 371 202 c 0,61,62
 436 202 436 202 486 291 c 0,63,64
 508 331 508 331 524 381 c 128,-1,65
 540 431 540 431 540 459 c 0,66,67
 540 496 540 496 520 517.5 c 128,-1,68
 500 539 500 539 466 539 c 0,55,56
EndSplineSet
Validated: 1
EndChar

StartChar: A
Encoding: 65 65 36
Width: 740
Flags: W
LayerCount: 2
Fore
SplineSet
2222 1328 m 1,0,-1
 2222 1328 l 1,1,2
 2218 1296 2218 1296 2204 1296 c 2,3,-1
 2202 1296 l 1,4,5
 2194 1298 2194 1298 2194 1304 c 1,6,-1
 2194 1304 l 1,7,8
 2194 1312 2194 1312 2222 1328 c 1,0,-1
2282 1364 m 1,9,-1
 2282 1364 l 1,10,11
 2278 1334 2278 1334 2264 1334 c 1,12,-1
 2264 1334 l 1,13,14
 2254 1336 2254 1336 2254 1340 c 1,15,-1
 2254 1340 l 1,16,17
 2254 1348 2254 1348 2282 1364 c 1,9,-1
2334 1382 m 1,18,-1
 2334 1382 l 1,19,20
 2330 1352 2330 1352 2318 1352 c 2,21,-1
 2316 1352 l 2,22,23
 2308 1352 2308 1352 2308 1358 c 1,24,-1
 2308 1358 l 1,25,26
 2308 1366 2308 1366 2334 1382 c 1,18,-1
2344 1340 m 1,27,-1
 2344 1340 l 1,28,29
 2340 1308 2340 1308 2326 1308 c 1,30,-1
 2326 1308 l 1,31,32
 2318 1310 2318 1310 2318 1316 c 1,33,-1
 2318 1316 l 1,34,35
 2318 1324 2318 1324 2344 1340 c 1,27,-1
2396 1370 m 1,36,-1
 2396 1370 l 1,37,38
 2392 1340 2392 1340 2380 1340 c 2,39,-1
 2378 1340 l 2,40,41
 2370 1340 2370 1340 2370 1346 c 1,42,-1
 2370 1346 l 1,43,44
 2370 1354 2370 1354 2396 1370 c 1,36,-1
2412 1340 m 1,45,-1
 2414 1340 l 1,46,47
 2408 1308 2408 1308 2396 1308 c 2,48,-1
 2394 1308 l 1,49,50
 2386 1310 2386 1310 2386 1316 c 1,51,-1
 2386 1316 l 1,52,53
 2386 1324 2386 1324 2412 1340 c 1,45,-1
2400 1290 m 1,54,-1
 2400 1290 l 1,55,56
 2396 1258 2396 1258 2382 1258 c 1,57,-1
 2382 1258 l 1,58,59
 2372 1260 2372 1260 2372 1266 c 1,60,-1
 2372 1266 l 1,61,62
 2372 1290 2372 1290 2400 1290 c 1,54,-1
2286 1296 m 1,63,-1
 2294 1296 l 1,64,-1
 2294 1296 l 1,65,-1
 2294 1280 l 1,66,-1
 2294 1280 l 1,67,68
 2360 1280 2360 1280 2400 1216 c 0,69,70
 2406 1206 2406 1206 2406 1204 c 2,71,-1
 2406 1202 l 1,72,-1
 2406 1202 l 1,73,74
 2402 1204 2402 1204 2400 1210 c 1,75,76
 2396 1214 2396 1214 2386 1214 c 2,77,-1
 2380 1214 l 2,78,79
 2358 1214 2358 1214 2342 1200 c 1,80,-1
 2342 1194 l 2,81,82
 2342 1192 2342 1192 2340 1192 c 1,83,-1
 2336 1200 l 1,84,85
 2314 1208 2314 1208 2294 1208 c 1,86,-1
 2294 1118 l 2,87,88
 2294 1106 2294 1106 2278 1102 c 1,89,-1
 2274 1102 l 2,90,91
 2260 1102 2260 1102 2256 1114 c 1,92,-1
 2254 1118 l 1,93,-1
 2254 1122 l 1,94,-1
 2256 1122 l 1,95,-1
 2262 1122 l 1,96,-1
 2262 1122 l 1,97,-1
 2262 1120 l 1,98,99
 2264 1106 2264 1106 2274 1106 c 2,100,-1
 2276 1106 l 2,101,102
 2282 1106 2282 1106 2286 1114 c 1,103,-1
 2286 1120 l 1,104,-1
 2286 1208 l 1,105,106
 2256 1208 2256 1208 2244 1200 c 1,107,108
 2240 1192 2240 1192 2238 1192 c 1,109,-1
 2238 1194 l 1,110,-1
 2238 1194 l 1,111,-1
 2238 1202 l 1,112,-1
 2238 1202 l 1,113,114
 2228 1210 2228 1210 2200 1214 c 1,115,-1
 2190 1214 l 2,116,117
 2176 1214 2176 1214 2170 1206 c 1,118,-1
 2168 1204 l 1,119,-1
 2166 1204 l 1,120,-1
 2166 1204 l 1,121,122
 2176 1222 2176 1222 2204 1250 c 0,123,124
 2238 1280 2238 1280 2284 1280 c 1,125,-1
 2284 1296 l 1,126,-1
 2286 1296 l 1,63,-1
498 917.5 m 1,127,-1
 498 917.5 l 1,128,129
 494 885.5 494 885.5 480 885.5 c 2,130,-1
 478 885.5 l 1,131,132
 470 887.5 470 887.5 470 893.5 c 1,133,-1
 470 893.5 l 1,134,135
 470 901.5 470 901.5 498 917.5 c 1,127,-1
558 953.5 m 1,136,-1
 558 953.5 l 1,137,138
 554 923.5 554 923.5 540 923.5 c 1,139,-1
 540 923.5 l 1,140,141
 530 925.5 530 925.5 530 929.5 c 1,142,-1
 530 929.5 l 1,143,144
 530 937.5 530 937.5 558 953.5 c 1,136,-1
610 971.5 m 1,145,-1
 610 971.5 l 1,146,147
 606 941.5 606 941.5 594 941.5 c 2,148,-1
 592 941.5 l 2,149,150
 584 941.5 584 941.5 584 947.5 c 1,151,-1
 584 947.5 l 1,152,153
 584 955.5 584 955.5 610 971.5 c 1,145,-1
620 929.5 m 1,154,-1
 620 929.5 l 1,155,156
 616 897.5 616 897.5 602 897.5 c 1,157,-1
 602 897.5 l 1,158,159
 594 899.5 594 899.5 594 905.5 c 1,160,-1
 594 905.5 l 1,161,162
 594 913.5 594 913.5 620 929.5 c 1,154,-1
672 959.5 m 1,163,-1
 672 959.5 l 1,164,165
 668 929.5 668 929.5 656 929.5 c 2,166,-1
 654 929.5 l 2,167,168
 646 929.5 646 929.5 646 935.5 c 1,169,-1
 646 935.5 l 1,170,171
 646 943.5 646 943.5 672 959.5 c 1,163,-1
688 929.5 m 1,172,-1
 690 929.5 l 1,173,174
 684 897.5 684 897.5 672 897.5 c 2,175,-1
 670 897.5 l 1,176,177
 662 899.5 662 899.5 662 905.5 c 1,178,-1
 662 905.5 l 1,179,180
 662 913.5 662 913.5 688 929.5 c 1,172,-1
676 879.5 m 1,181,-1
 676 879.5 l 1,182,183
 672 847.5 672 847.5 658 847.5 c 1,184,-1
 658 847.5 l 1,185,186
 648 849.5 648 849.5 648 855.5 c 1,187,-1
 648 855.5 l 1,188,189
 648 879.5 648 879.5 676 879.5 c 1,181,-1
562 885.5 m 1,190,-1
 570 885.5 l 1,191,-1
 570 885.5 l 1,192,-1
 570 869.5 l 1,193,-1
 570 869.5 l 1,194,195
 637.6 869.5 637.6 869.5 676 805.5 c 0,196,197
 682 795.5 682 795.5 682 793.5 c 2,198,-1
 682 791.5 l 1,199,-1
 682 791.5 l 1,200,201
 678 793.5 678 793.5 676 799.5 c 1,202,203
 672 803.5 672 803.5 662 803.5 c 2,204,-1
 656 803.5 l 2,205,206
 634 803.5 634 803.5 618 789.5 c 1,207,-1
 618 783.5 l 2,208,209
 618 781.5 618 781.5 616 781.5 c 1,210,-1
 612 789.5 l 1,211,212
 590 797.5 590 797.5 570 797.5 c 1,213,-1
 570 707.5 l 2,214,215
 570 695.5 570 695.5 554 691.5 c 1,216,-1
 550 691.5 l 2,217,218
 536 691.5 536 691.5 532 703.5 c 1,219,-1
 530 707.5 l 1,220,-1
 530 711.5 l 1,221,-1
 532 711.5 l 1,222,-1
 538 711.5 l 1,223,-1
 538 711.5 l 1,224,-1
 538 709.5 l 1,225,226
 540 695.5 540 695.5 550 695.5 c 2,227,-1
 552 695.5 l 2,228,229
 558 695.5 558 695.5 562 703.5 c 1,230,-1
 562 709.5 l 1,231,-1
 562 797.5 l 1,232,233
 532 797.5 532 797.5 520 789.5 c 1,234,235
 516 781.5 516 781.5 514 781.5 c 1,236,-1
 514 783.5 l 1,237,-1
 514 783.5 l 1,238,-1
 514 791.5 l 1,239,-1
 514 791.5 l 1,240,241
 504 799.5 504 799.5 476 803.5 c 1,242,-1
 466 803.5 l 2,243,244
 452 803.5 452 803.5 446 795.5 c 1,245,-1
 444 793.5 l 1,246,-1
 442 793.5 l 1,247,-1
 442 793.5 l 1,248,249
 455.59 817.962 455.59 817.962 480 839.5 c 0,250,251
 514 869.5 514 869.5 560 869.5 c 1,252,-1
 560 885.5 l 1,253,-1
 562 885.5 l 1,190,-1
4648 1026 m 1,254,-1
 4826 1026 l 1,255,-1
 4738 1204 l 1,256,-1
 4648 1026 l 1,254,-1
4622 1008 m 1,257,-1
 4738 1238 l 1,258,-1
 4852 1008 l 1,259,-1
 4622 1008 l 1,257,-1
4762 1256 m 1,260,-1
 4942 1256 l 1,261,-1
 4852 1434 l 1,262,-1
 4762 1256 l 1,260,-1
4738 1238 m 1,263,-1
 4852 1468 l 1,264,-1
 4966 1238 l 1,265,-1
 4738 1238 l 1,263,-1
4648 1486 m 1,266,-1
 4826 1486 l 1,267,-1
 4736 1664 l 1,268,-1
 4648 1486 l 1,266,-1
4622 1468 m 1,269,-1
 4736 1698 l 1,270,-1
 4852 1468 l 1,271,-1
 4622 1468 l 1,269,-1
639 -214 m 1,272,-1
 819 -214 l 1,273,-1
 729 -34 l 1,274,-1
 639 -214 l 1,272,-1
615 -230 m 1,275,-1
 729 0 l 1,276,-1
 843 -230 l 1,277,-1
 615 -230 l 1,275,-1
11 0 m 1,278,-1
 328 739 l 1,279,-1
 411 739 l 1,280,-1
 729 0 l 1,281,-1
 648 0 l 1,282,-1
 541 249 l 1,283,-1
 197 249 l 1,284,-1
 89 0 l 1,285,-1
 11 0 l 1,278,-1
225 316 m 1,286,-1
 512 316 l 1,287,-1
 370 655 l 1,288,-1
 225 316 l 1,286,-1
EndSplineSet
Validated: 5
EndChar

StartChar: B
Encoding: 66 66 37
Width: 574
Flags: W
LayerCount: 2
Fore
SplineSet
76 0 m 1,0,-1
 76 739 l 1,1,-1
 249 739 l 2,2,3
 376 739 376 739 436 696 c 0,4,5
 502 647 502 647 502 547 c 0,6,7
 502 440 502 440 420 394 c 1,8,9
 544 344 544 344 544 212 c 0,10,11
 544 155 544 155 522 109 c 128,-1,12
 500 63 500 63 461 39 c 0,13,14
 396 0 396 0 259 0 c 2,15,-1
 76 0 l 1,0,-1
150 67 m 1,16,-1
 251 67 l 2,17,18
 361 67 361 67 411 94 c 0,19,20
 437 108 437 108 453 139 c 128,-1,21
 469 170 469 170 469 208 c 0,22,23
 469 298 469 298 400 333 c 0,24,25
 357 354 357 354 238 354 c 2,26,-1
 150 354 l 1,27,-1
 150 67 l 1,16,-1
150 421 m 1,28,-1
 240 421 l 2,29,30
 328 421 328 421 370 440 c 0,31,32
 427 466 427 466 427 546 c 0,33,34
 427 578 427 578 415 605.5 c 128,-1,35
 403 633 403 633 384 646 c 0,36,37
 346 672 346 672 239 672 c 2,38,-1
 150 672 l 1,39,-1
 150 421 l 1,28,-1
EndSplineSet
Validated: 1
EndChar

StartChar: C
Encoding: 67 67 38
Width: 813
Flags: W
LayerCount: 2
Fore
SplineSet
2200 -386 m 1,0,-1
 1972 -386 l 1,1,-1
 1972 -198 l 1,2,-1
 2200 -198 l 1,3,-1
 2200 -386 l 1,0,-1
1702 -386 m 1,4,-1
 1474 -386 l 1,5,-1
 1474 -272 l 1,6,-1
 1702 -272 l 1,7,-1
 1702 -386 l 1,4,-1
1244 -386 m 1,8,-1
 1016 -386 l 1,9,-1
 1016 -348 l 1,10,-1
 1244 -348 l 1,11,-1
 1244 -386 l 1,8,-1
4736 -1150 m 4,12,13
 4736 -1144 4736 -1144 4732 -1143 c 132,-1,14
 4728 -1142 4728 -1142 4712 -1142 c 4,15,16
 4706 -1142 4706 -1142 4672 -1138 c 5,17,-1
 4650 -1168 l 5,18,-1
 4634 -1170 l 5,19,-1
 4644 -1134 l 5,20,-1
 4634 -1130 l 5,21,-1
 4644 -1128 l 5,22,-1
 4634 -1092 l 5,23,-1
 4650 -1094 l 5,24,-1
 4672 -1124 l 5,25,-1
 4682 -1122 l 6,26,27
 4690 -1122 4690 -1122 4699 -1121 c 132,-1,28
 4708 -1120 4708 -1120 4716 -1120 c 6,29,-1
 4724 -1120 l 6,30,31
 4736 -1120 4736 -1120 4736 -1112 c 6,32,33
 4736 -1110 l 5,34,-1
 4736 -1108 l 6,35,36
 4736 -1095.38 4736 -1095.38 4730 -1082 c 6,37,-1
 4704 -1024 l 5,38,-1
 4714 -1024 l 6,39,40
 4718 -1024 4718 -1024 4720 -1025 c 4,41,42
 4721.2 -1025.6 4721.2 -1025.6 4726 -1032 c 6,43,-1
 4738 -1048 l 5,44,-1
 4756 -1048 l 6,45,46
 4758 -1048 4758 -1048 4759 -1049 c 132,-1,47
 4760 -1050 4760 -1050 4760 -1052 c 132,-1,48
 4760 -1054 4760 -1054 4759 -1056 c 132,-1,49
 4758 -1058 4758 -1058 4756 -1058 c 6,50,-1
 4746 -1058 l 5,51,-1
 4762 -1078 l 5,52,-1
 4780 -1078 l 5,53,-1
 4780 -1080 l 5,54,55
 4782 -1082 4782 -1082 4782 -1084 c 132,-1,56
 4782 -1086 4782 -1086 4781 -1088 c 132,-1,57
 4780 -1090 4780 -1090 4778 -1090 c 6,58,-1
 4770 -1090 l 5,59,-1
 4792 -1118 l 5,60,-1
 4794 -1120 l 5,61,-1
 4816 -1120 l 6,62,63
 4852 -1120 4852 -1120 4852 -1130 c 4,64,65
 4852 -1136 4852 -1136 4838 -1139 c 132,-1,66
 4824 -1142 4824 -1142 4792 -1144 c 5,67,-1
 4770 -1172 l 5,68,-1
 4778 -1172 l 6,69,70
 4780 -1172 4780 -1172 4781 -1174 c 132,-1,71
 4782 -1176 4782 -1176 4782 -1178 c 132,-1,72
 4782 -1180 4782 -1180 4780 -1182 c 5,73,-1
 4780 -1182 l 5,74,-1
 4762 -1182 l 5,75,-1
 4746 -1204 l 5,76,-1
 4756 -1204 l 6,77,78
 4758 -1204 4758 -1204 4759 -1205 c 132,-1,79
 4760 -1206 4760 -1206 4760 -1208 c 132,-1,80
 4760 -1210 4760 -1210 4759 -1212 c 132,-1,81
 4758 -1214 4758 -1214 4756 -1214 c 6,82,-1
 4738 -1214 l 5,83,-1
 4726 -1230 l 6,84,85
 4721.2 -1236.4 4721.2 -1236.4 4720 -1237 c 4,86,87
 4718 -1238 4718 -1238 4714 -1238 c 6,88,-1
 4704 -1238 l 5,89,-1
 4730 -1180 l 5,90,91
 4736 -1154 4736 -1154 4736 -1150 c 4,12,13
6500.75 -796 m 1,92,-1
 6500.75 -792 l 2,93,94
 6500.75 -788 6500.75 -788 6501.75 -782 c 128,-1,95
 6502.75 -776 6502.75 -776 6504.75 -768 c 128,-1,96
 6506.75 -760 6506.75 -760 6510.75 -753 c 128,-1,97
 6514.75 -746 6514.75 -746 6520.75 -739 c 128,-1,98
 6526.75 -732 6526.75 -732 6535.75 -729 c 128,-1,99
 6544.75 -726 6544.75 -726 6558.75 -726 c 0,100,101
 6568.75 -726 6568.75 -726 6577.75 -729 c 128,-1,102
 6586.75 -732 6586.75 -732 6593.75 -739 c 128,-1,103
 6600.75 -746 6600.75 -746 6604.75 -755 c 128,-1,104
 6608.75 -764 6608.75 -764 6609.75 -774 c 128,-1,105
 6610.75 -784 6610.75 -784 6606.75 -795 c 0,106,107
 6601.74 -808.781 6601.74 -808.781 6594.75 -818 c 2,108,-1
 6500.75 -942 l 1,109,-1
 6500.75 -796 l 1,92,-1
6488.75 -796 m 1,110,-1
 6488.75 -942 l 1,111,-1
 6394.75 -818 l 2,112,113
 6387.37 -808.26 6387.37 -808.26 6383.75 -795 c 0,114,115
 6380.75 -784 6380.75 -784 6380.75 -774 c 128,-1,116
 6380.75 -764 6380.75 -764 6384.75 -755 c 128,-1,117
 6388.75 -746 6388.75 -746 6395.75 -739 c 128,-1,118
 6402.75 -732 6402.75 -732 6411.75 -729 c 128,-1,119
 6420.75 -726 6420.75 -726 6432.75 -726 c 256,120,121
 6444.75 -726 6444.75 -726 6454.75 -729 c 128,-1,122
 6464.75 -732 6464.75 -732 6469.75 -739 c 0,123,-1
 6479.75 -753 l 0,124,125
 6484.75 -760 6484.75 -760 6485.75 -768 c 128,-1,126
 6486.75 -776 6486.75 -776 6487.75 -782 c 128,-1,127
 6488.75 -788 6488.75 -788 6488.75 -792 c 2,128,-1
 6488.75 -796 l 1,110,-1
562.5 994 m 1,129,-1
 562.5 998 l 2,130,131
 562.5 1002 562.5 1002 563.5 1008 c 128,-1,132
 564.5 1014 564.5 1014 565.5 1022 c 128,-1,133
 566.5 1030 566.5 1030 571.5 1037 c 0,134,-1
 581.5 1051 l 0,135,136
 586.5 1058 586.5 1058 596.5 1061 c 128,-1,137
 606.5 1064 606.5 1064 620.5 1064 c 0,138,139
 630.5 1064 630.5 1064 639.5 1061 c 128,-1,140
 648.5 1058 648.5 1058 655.5 1051 c 128,-1,141
 662.5 1044 662.5 1044 666.5 1035 c 128,-1,142
 670.5 1026 670.5 1026 670.5 1016 c 128,-1,143
 670.5 1006 670.5 1006 667.5 995 c 0,144,145
 663.884 981.74 663.884 981.74 656.5 972 c 2,146,-1
 562.5 848 l 1,147,-1
 562.5 994 l 1,129,-1
550.5 994 m 1,148,-1
 550.5 848 l 1,149,-1
 456.5 972 l 2,150,151
 449.511 981.219 449.511 981.219 444.5 995 c 0,152,153
 440.5 1006 440.5 1006 441.5 1016 c 128,-1,154
 442.5 1026 442.5 1026 446.5 1035 c 128,-1,155
 450.5 1044 450.5 1044 457.5 1051 c 128,-1,156
 464.5 1058 464.5 1058 473.5 1061 c 128,-1,157
 482.5 1064 482.5 1064 492.5 1064 c 0,158,159
 504.5 1064 504.5 1064 514.5 1061 c 128,-1,160
 524.5 1058 524.5 1058 530.5 1051 c 128,-1,161
 536.5 1044 536.5 1044 540.5 1037 c 128,-1,162
 544.5 1030 544.5 1030 546.5 1022 c 128,-1,163
 548.5 1014 548.5 1014 549.5 1008 c 128,-1,164
 550.5 1002 550.5 1002 550.5 998 c 2,165,-1
 550.5 994 l 1,148,-1
688 194 m 1,166,-1
 770 194 l 1,167,168
 658 -13 658 -13 432 -13 c 0,169,170
 266 -13 266 -13 155 96 c 128,-1,171
 44 205 44 205 44 367 c 0,172,173
 44 533 44 533 153 642.5 c 128,-1,174
 262 752 262 752 427 752 c 0,175,176
 542 752 542 752 633 697 c 128,-1,177
 724 642 724 642 767 547 c 1,178,-1
 684 547 l 1,179,180
 646 607 646 607 603 634 c 0,181,182
 529 684 529 684 430 684 c 0,183,184
 298 684 298 684 208.5 593.5 c 128,-1,185
 119 503 119 503 119 370 c 0,186,187
 119 240 119 240 211 147.5 c 128,-1,188
 303 55 303 55 431 55 c 0,189,190
 537 55 537 55 614 116 c 0,191,192
 644 139 644 139 688 194 c 1,166,-1
EndSplineSet
Validated: 37
EndChar

StartChar: D
Encoding: 68 68 39
Width: 744
Flags: W
LayerCount: 2
Fore
SplineSet
76 0 m 1,0,-1
 76 739 l 1,1,-1
 250 739 l 2,2,3
 351 739 351 739 415.5 725.5 c 128,-1,4
 480 712 480 712 532 681 c 0,5,6
 700 582 700 582 700 367 c 0,7,8
 700 156 700 156 529 55 c 0,9,10
 435 0 435 0 275 0 c 2,11,-1
 76 0 l 1,0,-1
150 67 m 1,12,-1
 253 67 l 2,13,14
 351 67 351 67 413 82.5 c 128,-1,15
 475 98 475 98 519 133 c 0,16,17
 625 219 625 219 625 370 c 0,18,19
 625 453 625 453 590 519.5 c 128,-1,20
 555 586 555 586 491 624 c 0,21,22
 412 672 412 672 253 672 c 2,23,-1
 150 672 l 1,24,-1
 150 67 l 1,12,-1
EndSplineSet
Validated: 1
EndChar

StartChar: E
Encoding: 69 69 40
Width: 536
Flags: W
LayerCount: 2
Fore
SplineSet
76 0 m 1,0,-1
 76 739 l 1,1,-1
 480 739 l 1,2,-1
 480 672 l 1,3,-1
 150 672 l 1,4,-1
 150 407 l 1,5,-1
 469 407 l 1,6,-1
 469 340 l 1,7,-1
 150 340 l 1,8,-1
 150 67 l 1,9,-1
 480 67 l 1,10,-1
 480 0 l 1,11,-1
 76 0 l 1,0,-1
EndSplineSet
Validated: 1
EndChar

StartChar: F
Encoding: 70 70 41
Width: 485
Flags: W
LayerCount: 2
Fore
SplineSet
76 0 m 1,0,-1
 76 739 l 1,1,-1
 451 739 l 1,2,-1
 451 672 l 1,3,-1
 150 672 l 1,4,-1
 150 405 l 1,5,-1
 440 405 l 1,6,-1
 440 338 l 1,7,-1
 150 338 l 1,8,-1
 150 0 l 1,9,-1
 76 0 l 1,0,-1
EndSplineSet
Validated: 1
EndChar

StartChar: G
Encoding: 71 71 42
Width: 872
Flags: W
LayerCount: 2
Fore
SplineSet
329 341 m 1,0,-1
 831 341 l 1,1,2
 823 215 823 215 734 112 c 0,3,4
 624 -13 624 -13 446 -13 c 0,5,6
 276 -13 276 -13 160 98 c 128,-1,7
 44 209 44 209 44 371 c 0,8,9
 44 531 44 531 157.5 641.5 c 128,-1,10
 271 752 271 752 436 752 c 0,11,12
 557 752 557 752 653 694 c 128,-1,13
 749 636 749 636 786 542 c 1,14,-1
 703 542 l 1,15,16
 665 609 665 609 596.5 646.5 c 128,-1,17
 528 684 528 684 442 684 c 0,18,19
 305 684 305 684 212 593 c 128,-1,20
 119 502 119 502 119 369 c 0,21,22
 119 237 119 237 213 146 c 128,-1,23
 307 55 307 55 443 55 c 0,24,25
 576 55 576 55 664 143 c 0,26,27
 726 205 726 205 742 274 c 1,28,-1
 329 274 l 1,29,-1
 329 341 l 1,0,-1
EndSplineSet
Validated: 1
EndChar

StartChar: H
Encoding: 72 72 43
Width: 683
Flags: W
LayerCount: 2
Fore
SplineSet
76 0 m 1,0,-1
 76 739 l 1,1,-1
 150 739 l 1,2,-1
 150 414 l 1,3,-1
 533 414 l 1,4,-1
 533 739 l 1,5,-1
 607 739 l 1,6,-1
 607 0 l 1,7,-1
 533 0 l 1,8,-1
 533 347 l 1,9,-1
 150 347 l 1,10,-1
 150 0 l 1,11,-1
 76 0 l 1,0,-1
EndSplineSet
Validated: 1
EndChar

StartChar: I
Encoding: 73 73 44
Width: 226
Flags: W
LayerCount: 2
Fore
SplineSet
992.721 37.9541 m 4,0,1
 996.26 37.96 996.26 37.96 999.4 36.3926 c 5,2,3
 997.74 34.5303 997.74 34.5303 998.061 31.2861 c 5,4,5
 1001 32.3223 1001 32.3223 1006.26 31.0645 c 132,-1,6
 1011.5 29.8105 1011.5 29.8105 1014.82 25.9404 c 5,7,8
 1014.8 25.9404 1014.8 25.9404 1011.3 26.1104 c 132,-1,9
 1007.78 26.2803 1007.78 26.2803 1007.86 25.6748 c 5,10,-1
 1011.88 19.7725 l 5,11,-1
 1006.52 16.0166 l 5,12,-1
 1005.72 11.1719 l 5,13,14
 1004.38 10.6943 1004.38 10.6943 1002 9.49219 c 132,-1,15
 999.641 8.29199 999.641 8.29199 997.62 7.57812 c 132,-1,16
 995.62 6.86621 995.62 6.86621 993.66 6.88281 c 5,17,18
 996.5 4.84473 996.5 4.84473 996.881 1.5127 c 5,19,20
 995.76 0.868164 995.76 0.868164 993.721 -0.535156 c 132,-1,21
 991.681 -1.93359 991.681 -1.93359 990.801 -2.4834 c 5,22,23
 1000.48 2.0166 1000.48 2.0166 1007.62 4.55469 c 4,24,25
 1029.7 12.4082 1029.7 12.4082 1050.78 14.1602 c 4,26,27
 1060.02 14.9307 1060.02 14.9307 1073.74 11.1104 c 132,-1,28
 1087.48 7.28809 1087.48 7.28809 1093.42 4 c 4,29,30
 1103.62 -1.63379 1103.62 -1.63379 1110.06 -8.06738 c 5,31,32
 1095.36 -9.94922 1095.36 -9.94922 1095.3 -9.94727 c 5,33,34
 1091.78 -8.07324 1091.78 -8.07324 1085.38 -3.65918 c 132,-1,35
 1078.98 0.753906 1078.98 0.753906 1075.46 2.65039 c 5,36,-1
 1084.58 -5.65918 l 5,37,38
 1072.94 0.87793 1072.94 0.87793 1068.2 5.05859 c 5,39,40
 1068.78 3.25391 1068.78 3.25391 1070.62 -0.231445 c 132,-1,41
 1072.46 -3.72168 1072.46 -3.72168 1073.04 -5.39355 c 5,42,43
 1071.4 -4.40918 1071.4 -4.40918 1068.26 -2.71582 c 132,-1,44
 1065.14 -1.02539 1065.14 -1.02539 1062.68 0.450195 c 132,-1,45
 1060.2 1.92676 1060.2 1.92676 1058.28 3.44434 c 5,46,47
 1058.36 0.298828 1058.36 0.298828 1060.16 -3.80762 c 5,48,49
 1056.9 -2.86133 1056.9 -2.86133 1053.98 -0.0498047 c 5,50,51
 1050.38 -1.33984 1050.38 -1.33984 1047.3 -4.07324 c 5,52,53
 1045.88 -3.89746 1045.88 -3.89746 1042.6 -4.26953 c 132,-1,54
 1039.32 -4.63965 1039.32 -4.63965 1037.8 -4.49609 c 5,55,56
 1047.4 -8.95605 1047.4 -8.95605 1055.5 -17.542 c 4,57,58
 1064.54 -27.1279 1064.54 -27.1279 1066.08 -40.8057 c 5,59,60
 1062.26 -37.1914 1062.26 -37.1914 1060.44 -32.7617 c 5,61,62
 1058.56 -34.6875 1058.56 -34.6875 1057.72 -37.208 c 5,63,-1
 1059.42 -38.2393 l 6,64,65
 1065.82 -42.2314 1065.82 -42.2314 1073.36 -50.7393 c 132,-1,66
 1080.88 -59.25 1080.88 -59.25 1084.6 -66.292 c 5,67,68
 1084.06 -66.0752 1084.06 -66.0752 1082.92 -64.9414 c 132,-1,69
 1081.78 -63.8057 1081.78 -63.8057 1081.4 -63.5137 c 5,70,71
 1084.5 -68.748 1084.5 -68.748 1084.96 -76.668 c 5,72,73
 1082.94 -74.7373 1082.94 -74.7373 1080.06 -74.3379 c 5,74,75
 1080.12 -75.0996 1080.12 -75.0996 1080.12 -76.0576 c 5,76,-1
 1081.68 -78.8896 l 5,77,-1
 1079.52 -86.1396 l 5,78,79
 1076.16 -85.9395 1076.16 -85.9395 1074.16 -84.2637 c 5,80,-1
 1068.7 -84.6875 l 5,81,-1
 1072.84 -89.8994 l 5,82,83
 1070.92 -92.0098 1070.92 -92.0098 1067.46 -93.1016 c 5,84,-1
 1065.84 -91.5156 l 5,85,86
 1064.9 -92.6992 1064.9 -92.6992 1062.78 -93.3398 c 5,87,-1
 1060.48 -89.3721 l 5,88,89
 1060.28 -91.0557 1060.28 -91.0557 1059.74 -93.418 c 5,90,91
 1057.2 -94.3516 1057.2 -94.3516 1053.92 -93.2598 c 5,92,93
 1053.86 -88.3154 1053.86 -88.3154 1053.02 -84.0234 c 5,94,95
 1052.66 -90.2061 1052.66 -90.2061 1051.68 -92.626 c 5,96,97
 1048.76 -92.2295 1048.76 -92.2295 1044.7 -89.9795 c 5,98,99
 1044.68 -89.4258 1044.68 -89.4258 1044.76 -85.1475 c 132,-1,100
 1044.84 -80.8779 1044.84 -80.8779 1044.32 -80.5576 c 5,101,102
 1040.74 -80.6279 1040.74 -80.6279 1037.6 -80.1074 c 5,103,104
 1035.98 -76.8721 1035.98 -76.8721 1036.34 -67.9053 c 5,105,106
 1034.8 -71.2256 1034.8 -71.2256 1034.46 -74.6299 c 5,107,-1
 1033.66 -73.9414 l 5,108,109
 1034.86 -83.0195 1034.86 -83.0195 1034.46 -91.248 c 5,110,111
 1033.94 -90.75 1033.94 -90.75 1033.26 -88.2598 c 132,-1,112
 1032.56 -85.7734 1032.56 -85.7734 1031.82 -84.29 c 5,113,114
 1030.64 -88.6816 1030.64 -88.6816 1028 -90.0576 c 5,115,116
 1022.24 -78.9277 1022.24 -78.9277 1019.56 -68.3301 c 5,117,118
 1019.64 -65.5293 1019.64 -65.5293 1019.3 -63.8613 c 132,-1,119
 1018.96 -62.1973 1018.96 -62.1973 1017.98 -60.2578 c 132,-1,120
 1017.02 -58.3232 1017.02 -58.3232 1016.76 -57.6377 c 5,121,122
 1016.3 -57.5996 1016.3 -57.5996 1014.06 -57.4795 c 5,123,124
 1013.94 -57.3496 1013.94 -57.3496 1013.7 -57.1074 c 6,125,-1
 1013.36 -56.7393 l 5,126,127
 1013.22 -57.126 1013.22 -57.126 1012.6 -59.0537 c 132,-1,128
 1011.96 -60.9736 1011.96 -60.9736 1011.54 -61.9775 c 5,129,130
 1010.12 -57.3418 1010.12 -57.3418 1010.46 -53.5098 c 5,131,-1
 1009.52 -52.5039 l 5,132,133
 1008.14 -54.5996 1008.14 -54.5996 1006.16 -56.5273 c 5,134,135
 1008.04 -65.5801 1008.04 -65.5801 1011.98 -71.6914 c 4,136,137
 1016.74 -78.7217 1016.74 -78.7217 1021.1 -85.9775 c 132,-1,138
 1025.44 -93.2393 1025.44 -93.2393 1033.78 -102.951 c 132,-1,139
 1042.1 -112.657 1042.1 -112.657 1051.68 -120.229 c 6,140,-1
 1129.24 -182.659 l 6,141,142
 1170.48 -217.036 1170.48 -217.036 1195.34 -250.569 c 4,143,144
 1208.82 -268.737 1208.82 -268.737 1219.68 -280.264 c 5,145,-1
 1190 -280 l 5,146,147
 1172.4 -243.64 1172.4 -243.64 1145.7 -217.542 c 4,148,149
 1122.9 -195.262 1122.9 -195.262 1095.52 -172.498 c 6,150,-1
 1070.76 -151.246 l 6,151,152
 1037.02 -121.958 1037.02 -121.958 1029.86 -114.857 c 4,153,154
 1012.26 -97.4033 1012.26 -97.4033 997.48 -75.7939 c 4,155,156
 996.66 -74.5957 996.66 -74.5957 995.92 -72.9355 c 5,157,158
 995.521 -73.6494 995.521 -73.6494 995.141 -74.2598 c 5,159,-1
 996.881 -78.5977 l 5,160,-1
 997.08 -78.9941 l 6,161,162
 1005.24 -98.876 1005.24 -98.876 1010.2 -104.878 c 5,163,-1
 993.78 -85.082 l 5,164,-1
 994.5 -86.9873 l 6,165,166
 999.44 -100.622 999.44 -100.622 1002.02 -121.974 c 5,167,168
 1000.02 -124.756 1000.02 -124.756 998.7 -126.13 c 5,169,170
 998.221 -128.682 998.221 -128.682 998.381 -130.392 c 5,171,172
 997.681 -130.989 997.681 -130.989 996.26 -131.792 c 132,-1,173
 994.82 -132.598 994.82 -132.598 994.521 -132.878 c 5,174,175
 996.101 -134.804 996.101 -134.804 996.9 -139.788 c 5,176,177
 993.62 -140.941 993.62 -140.941 991.801 -142.832 c 5,178,179
 991.16 -145.252 991.16 -145.252 987.62 -148.336 c 5,180,181
 987.36 -145.976 987.36 -145.976 984.58 -142.46 c 5,182,183
 983.021 -143.823 983.021 -143.823 980.98 -143.783 c 5,184,185
 980.881 -142.466 980.881 -142.466 979.54 -139.525 c 132,-1,186
 978.2 -136.582 978.2 -136.582 978.141 -136.399 c 5,187,188
 976.021 -135.962 976.021 -135.962 973.78 -134.68 c 5,189,190
 974.04 -128.894 974.04 -128.894 972.82 -124.834 c 5,191,192
 970.84 -124.367 970.84 -124.367 967.881 -125.018 c 5,193,194
 969.36 -120.248 969.36 -120.248 971.48 -117.424 c 5,195,-1
 966.181 -117.052 l 5,196,197
 966.181 -117.018 966.181 -117.018 966.12 -111.912 c 132,-1,198
 966.061 -106.79 966.061 -106.79 966.54 -106.626 c 5,199,200
 965.82 -105.978 965.82 -105.978 964.301 -104.974 c 132,-1,201
 962.778 -103.972 962.778 -103.972 961.811 -103.212 c 5,202,203
 963.82 -100.405 963.82 -100.405 963.881 -97.8916 c 5,204,-1
 958.37 -89.1855 l 5,205,206
 961.725 -85.2578 961.725 -85.2578 961.891 -75.8994 c 5,207,208
 964.34 -69.71 964.34 -69.71 966.04 -67.6699 c 5,209,210
 965.86 -66.8652 965.86 -66.8652 962.42 -58.8535 c 5,211,212
 963.221 -54.9775 963.221 -54.9775 963.4 -49.1436 c 5,213,-1
 958.688 -46.5752 l 5,214,215
 960.398 -52.1875 960.398 -52.1875 962.024 -55.0693 c 5,216,217
 957.179 -49.832 957.179 -49.832 954.506 -44.6201 c 5,218,219
 959.32 -58.7617 959.32 -58.7617 959.353 -58.8301 c 5,220,221
 957.76 -56.1797 957.76 -56.1797 956.57 -53.96 c 5,222,223
 957.059 -57.9756 957.059 -57.9756 956.358 -61.792 c 5,224,225
 954.366 -62.6797 954.366 -62.6797 953.08 -64.0693 c 5,226,227
 953.092 -64.1777 953.092 -64.1777 953.131 -64.3955 c 132,-1,228
 953.17 -64.6338 953.17 -64.6338 953.185 -64.7295 c 5,229,-1
 953.09 -64.4512 l 6,230,231
 953.028 -64.2676 953.028 -64.2676 952.998 -64.1758 c 5,232,233
 950.628 -66.7939 950.628 -66.7939 950.112 -67.0879 c 5,234,235
 949.986 -69.2441 949.986 -69.2441 952.54 -75.3613 c 132,-1,236
 955.097 -81.4775 955.097 -81.4775 955.221 -83.9697 c 5,237,238
 955.181 -84.0039 955.181 -84.0039 953.143 -85.876 c 132,-1,239
 951.104 -87.75 951.104 -87.75 949.931 -88.3398 c 5,240,241
 950.141 -90.0938 950.141 -90.0938 950.055 -91.4336 c 132,-1,242
 949.971 -92.7734 949.971 -92.7734 950.181 -94.5273 c 132,-1,243
 950.391 -96.2812 950.391 -96.2812 951.066 -97.8135 c 5,244,245
 951.053 -97.8154 951.053 -97.8154 948.674 -98.9121 c 132,-1,246
 946.294 -100.012 946.294 -100.012 944.608 -99.3496 c 5,247,248
 943.221 -99.876 943.221 -99.876 941.473 -101.758 c 4,249,250
 940.59 -102.708 940.59 -102.708 940.084 -103.132 c 5,251,252
 941.038 -105.237 941.038 -105.237 941.448 -107.706 c 132,-1,253
 941.86 -110.17 941.86 -110.17 942.062 -113.224 c 132,-1,254
 942.271 -116.281 942.271 -116.281 942.544 -117.928 c 5,255,-1
 939.316 -115.464 l 5,256,257
 938.688 -117.659 938.688 -117.659 938.874 -121.932 c 132,-1,258
 939.059 -126.201 939.059 -126.201 938.362 -127.615 c 5,259,-1
 934.578 -124.754 l 5,260,-1
 937.25 -129.888 l 5,261,-1
 934.393 -131.212 l 5,262,263
 934.376 -131.228 934.376 -131.228 931.935 -136.319 c 5,264,265
 931.269 -136.399 931.269 -136.399 930.227 -135.857 c 132,-1,266
 929.183 -135.313 929.183 -135.313 928.519 -135.394 c 5,267,268
 928.508 -135.498 928.508 -135.498 928.309 -137.08 c 132,-1,269
 928.108 -138.651 928.108 -138.651 928.146 -139.653 c 5,270,271
 925.608 -140.025 925.608 -140.025 924.15 -139.363 c 5,272,273
 923.324 -134.523 923.324 -134.523 920.922 -129.888 c 5,274,275
 920.92 -129.896 920.92 -129.896 920.282 -132.817 c 132,-1,276
 919.646 -135.739 919.646 -135.739 919.969 -137.483 c 5,277,278
 918.944 -136.77 918.944 -136.77 918.381 -134.659 c 132,-1,279
 917.811 -132.552 917.811 -132.552 917.139 -131.794 c 5,280,281
 914.643 -135.014 914.643 -135.014 914.676 -137.3 c 5,282,283
 913.612 -135.72 913.612 -135.72 912.668 -132.321 c 132,-1,284
 911.725 -128.922 911.725 -128.922 910.864 -127.426 c 5,285,-1
 908.59 -131.794 l 5,286,287
 908.225 -128.344 908.225 -128.344 909.034 -122.06 c 132,-1,288
 909.849 -115.781 909.849 -115.781 909.729 -113.771 c 5,289,290
 909.71 -113.76 909.71 -113.76 908.832 -112.886 c 132,-1,291
 907.952 -112.02 907.952 -112.02 907.08 -111.865 c 5,292,293
 908.326 -105.098 908.326 -105.098 912.692 -97.7314 c 5,294,295
 912.017 -96.626 912.017 -96.626 910.717 -94.9053 c 132,-1,296
 909.416 -93.1816 909.416 -93.1816 908.96 -92.5195 c 5,297,298
 910.658 -98.9199 910.658 -98.9199 910.654 -98.9775 c 5,299,-1
 906.685 -94.0273 l 5,300,301
 906.685 -94.042 906.685 -94.042 906.767 -98.8135 c 132,-1,302
 906.851 -103.586 906.851 -103.586 906.314 -103.529 c 5,303,304
 904.614 -100.266 904.614 -100.266 902.314 -97.8398 c 5,305,306
 903.435 -102.216 903.435 -102.216 905.36 -105.409 c 5,307,308
 905.29 -105.344 905.29 -105.344 902.734 -103.27 c 132,-1,309
 900.172 -101.191 900.172 -101.191 899.274 -99.7432 c 5,310,-1
 901.763 -109.403 l 5,311,-1
 899.672 -105.222 l 5,312,313
 900.75 -109.432 900.75 -109.432 900.811 -112.819 c 5,314,315
 898.908 -109.149 898.908 -109.149 896.256 -105.991 c 5,316,317
 896.146 -109.22 896.146 -109.22 896.838 -112.264 c 5,318,-1
 892.26 -106.943 l 5,319,-1
 895.49 -115.464 l 5,320,-1
 890.566 -110.542 l 5,321,322
 890.145 -115.084 890.145 -115.084 891.334 -119.646 c 5,323,324
 890.676 -118.592 890.676 -118.592 889.024 -117.056 c 132,-1,325
 887.37 -115.523 887.37 -115.523 886.782 -114.538 c 5,326,327
 886.232 -118.588 886.232 -118.588 885.061 -120.786 c 5,328,-1
 882.416 -115.678 l 5,329,330
 882.296 -117.622 882.296 -117.622 882.49 -122.214 c 132,-1,331
 882.685 -126.812 882.685 -126.812 882.416 -128.752 c 5,332,-1
 880.139 -125.918 l 5,333,-1
 879.584 -130.288 l 5,334,335
 877.643 -126.512 877.643 -126.512 877.307 -122.319 c 5,336,337
 879.141 -108.821 879.141 -108.821 886.57 -93.2852 c 4,338,339
 888.969 -88.2734 888.969 -88.2734 897.139 -77.4814 c 132,-1,340
 905.309 -66.6895 905.309 -66.6895 909.889 -61.9775 c 4,341,342
 917.652 -53.9873 917.652 -53.9873 927.034 -45.7275 c 5,343,344
 928.17 -42.8633 928.17 -42.8633 929.444 -40.6221 c 5,345,346
 928.364 -39.5479 928.364 -39.5479 927.908 -38.9277 c 5,347,348
 927.028 -39.2852 927.028 -39.2852 926.082 -39.5381 c 5,349,350
 926.633 -38.6094 926.633 -38.6094 927.223 -37.7637 c 5,351,352
 926.78 -36.7881 926.78 -36.7881 926.639 -35.7256 c 5,353,-1
 925.395 -36.5439 l 5,354,355
 925.232 -36.7812 925.232 -36.7812 923.23 -39.2812 c 132,-1,356
 921.229 -41.7812 921.229 -41.7812 920.685 -43.2139 c 5,357,-1
 920.59 -40.3301 l 5,358,-1
 920.498 -37.5254 l 5,359,360
 916.71 -43.3975 916.71 -43.3975 914.994 -49.8574 c 5,361,362
 914.992 -49.8496 914.992 -49.8496 913.946 -45.3857 c 132,-1,363
 912.9 -40.9219 912.9 -40.9219 913.09 -38.4775 c 5,364,365
 912.561 -40.666 912.561 -40.666 910.458 -44.0332 c 132,-1,366
 908.362 -47.4014 908.362 -47.4014 907.794 -49.2754 c 5,367,368
 907.838 -45.5752 907.838 -45.5752 909.305 -40.1719 c 5,369,-1
 903.826 -51.7354 l 5,370,371
 903.824 -50.1592 903.824 -50.1592 903.812 -46.7061 c 132,-1,372
 903.801 -43.3652 903.801 -43.3652 903.799 -41.708 c 5,373,374
 899.334 -47.958 899.334 -47.958 897.74 -53.0859 c 5,375,376
 896.858 -47.7393 896.858 -47.7393 897.74 -45.3037 c 5,377,378
 891.546 -51.8379 891.546 -51.8379 889.956 -57.0557 c 5,379,-1
 887.893 -48.9033 l 5,380,381
 882.696 -54.4619 882.696 -54.4619 880.67 -57.8232 c 5,382,383
 879.706 -54.8359 879.706 -54.8359 880.299 -49.3018 c 5,384,385
 879.338 -51.002 879.338 -51.002 878.008 -54.6094 c 132,-1,386
 876.681 -58.2158 876.681 -58.2158 875.746 -59.916 c 5,387,388
 875.566 -56.0381 875.566 -56.0381 876.515 -51.5752 c 5,389,-1
 871.778 -62.958 l 5,390,391
 871.215 -59.1133 871.215 -59.1133 872.33 -54.4072 c 5,392,393
 868.406 -59.4473 868.406 -59.4473 866.826 -62.958 c 5,394,-1
 865.874 -54.6221 l 5,395,396
 865.294 -56.3877 865.294 -56.3877 864.982 -58.4092 c 132,-1,397
 864.67 -60.4316 864.67 -60.4316 864.44 -62.9092 c 132,-1,398
 864.206 -65.3818 864.206 -65.3818 863.994 -66.7412 c 5,399,400
 862.192 -63.668 862.192 -63.668 861.902 -60.8672 c 5,401,402
 859.851 -63.9453 859.851 -63.9453 859.628 -67.8799 c 5,403,404
 858.296 -62.2979 858.296 -62.2979 859.26 -57.4541 c 5,405,406
 859.21 -57.5654 859.21 -57.5654 854.889 -72.4336 c 5,407,408
 854.278 -61.8252 854.278 -61.8252 852.986 -59.3594 c 5,409,410
 852.562 -60.9795 852.562 -60.9795 851.756 -65.4355 c 132,-1,411
 850.95 -69.8896 850.95 -69.8896 850.578 -70.8438 c 5,412,413
 850.349 -69.3613 850.349 -69.3613 850.278 -66.6357 c 132,-1,414
 850.208 -63.9121 850.208 -63.9121 850.154 -63.1416 c 5,415,416
 846.19 -72.5996 846.19 -72.5996 846.158 -72.6436 c 5,417,-1
 847.11 -65.0479 l 5,418,419
 846.242 -66.3281 846.242 -66.3281 845.742 -68.0352 c 132,-1,420
 845.238 -69.7393 845.238 -69.7393 844.836 -71.9453 c 132,-1,421
 844.433 -74.1475 844.433 -74.1475 844.095 -75.292 c 5,422,423
 844.318 -73.5078 844.318 -73.5078 843.942 -69.8018 c 132,-1,424
 843.568 -66.0996 843.568 -66.0996 843.883 -64.0957 c 5,425,426
 845.004 -61.7412 845.004 -61.7412 852.391 -54.0996 c 132,-1,427
 859.778 -46.458 859.778 -46.458 866.061 -41.8896 c 4,428,429
 880.437 -31.4473 880.437 -31.4473 905.862 -25.75 c 5,430,431
 905.276 -24.6641 905.276 -24.6641 904.624 -22.4072 c 132,-1,432
 903.979 -20.1475 903.979 -20.1475 903.217 -18.9473 c 5,433,434
 902.305 -19.6055 902.305 -19.6055 900.853 -21.5576 c 132,-1,435
 899.398 -23.5137 899.398 -23.5137 898.294 -24.2373 c 5,436,437
 898.137 -23.5615 898.137 -23.5615 897.898 -22.8115 c 5,438,439
 892.608 -26.7178 892.608 -26.7178 885.962 -30.3252 c 5,440,-1
 890.515 -24.6357 l 5,441,-1
 882.944 -26.7256 l 5,442,-1
 886.544 -18.9473 l 5,443,-1
 879.133 -23.8701 l 5,444,-1
 883.314 -18.3896 l 5,445,446
 881.742 -19.0859 881.742 -19.0859 877.477 -21.626 c 132,-1,447
 873.208 -24.168 873.208 -24.168 870.612 -25.0332 c 5,448,-1
 874.028 -21.4072 l 5,449,-1
 867.754 -23.6836 l 5,450,451
 866.385 -22.8281 866.385 -22.8281 864.506 -20.6172 c 132,-1,452
 862.626 -18.4072 862.626 -18.4072 860.926 -17.0674 c 5,453,454
 868.836 -12.916 868.836 -12.916 884.612 -8.33398 c 5,455,456
 886.462 -5.21777 886.462 -5.21777 889.006 -3.19922 c 5,457,458
 884.301 -2.04004 884.301 -2.04004 880.272 -2.24609 c 5,459,460
 885.172 1.05273 885.172 1.05273 896.316 3.91016 c 132,-1,461
 907.46 6.77051 907.46 6.77051 918.805 6.45801 c 4,462,463
 920.338 6.41797 920.338 6.41797 922.562 6.14062 c 5,464,465
 921.208 7.14648 921.208 7.14648 920.154 7.81055 c 5,466,467
 923.992 12.0107 923.992 12.0107 925.131 12.9707 c 5,468,469
 924.166 12.6924 924.166 12.6924 921.616 11.2959 c 132,-1,470
 919.068 9.90234 919.068 9.90234 916.688 9.9541 c 5,471,472
 915.141 13.3486 915.141 13.3486 913.696 18.4219 c 5,473,474
 911.174 18.5322 911.174 18.5322 906.845 18.0264 c 5,475,476
 906.763 18.3525 906.763 18.3525 905.254 25.1719 c 5,477,478
 904.292 26.0459 904.292 26.0459 901.715 25.6484 c 132,-1,479
 899.135 25.2539 899.135 25.2539 898.429 25.4619 c 5,480,481
 898.696 28.2539 898.696 28.2539 899.194 29.9883 c 5,482,483
 901.929 32.1367 901.929 32.1367 905.862 32.8467 c 5,484,485
 906.301 34.3164 906.301 34.3164 906.845 36.6582 c 5,486,487
 906.982 36.5947 906.982 36.5947 916.931 34.0801 c 132,-1,488
 926.876 31.5645 926.876 31.5645 930.872 28.7188 c 5,489,490
 931.334 24.0088 931.334 24.0088 931.694 21.8887 c 5,491,492
 932.053 22.7061 932.053 22.7061 932.349 24.1982 c 132,-1,493
 932.645 25.6904 932.645 25.6904 932.883 26.3105 c 5,494,495
 933.362 26.0088 933.362 26.0088 936.482 24.9326 c 132,-1,496
 939.603 23.8545 939.603 23.8545 940.4 23.1084 c 5,497,498
 939.187 21.0762 939.187 21.0762 938.786 19.6143 c 5,499,500
 940.641 21.4268 940.641 21.4268 941.458 21.8887 c 5,501,502
 944.108 20.3281 944.108 20.3281 951.504 12.8203 c 132,-1,503
 958.898 5.31641 958.898 5.31641 961.23 3.39062 c 6,504,-1
 961.572 3.12598 l 6,505,506
 962.479 2.39648 962.479 2.39648 962.92 2.09473 c 5,507,-1
 961.465 10.0859 l 5,508,509
 962.84 11.3408 962.84 11.3408 965.58 11.46 c 4,510,511
 966.94 11.5244 966.94 11.5244 967.641 11.7021 c 5,512,513
 967.5 21.1006 967.5 21.1006 966.54 23.5039 c 5,514,515
 968.98 25.0283 968.98 25.0283 971.16 25.04 c 132,-1,516
 973.34 25.0508 973.34 25.0508 975.681 24.5625 c 5,517,518
 976.76 27.0488 976.76 27.0488 980.4 30.8984 c 132,-1,519
 984.04 34.75 984.04 34.75 984.78 36.6582 c 5,520,521
 990.16 37.9502 990.16 37.9502 992.721 37.9541 c 4,0,1
71.6387 1088.76 m 0,522,523
 75.166 1088.76 75.166 1088.76 78.3086 1087.2 c 1,524,525
 76.6562 1085.34 76.6562 1085.34 76.9844 1082.08 c 1,526,527
 79.9248 1083.12 79.9248 1083.12 85.166 1081.86 c 128,-1,528
 90.4062 1080.62 90.4062 1080.62 93.7344 1076.74 c 1,529,530
 93.7148 1076.74 93.7148 1076.74 90.2061 1076.92 c 128,-1,531
 86.6963 1077.08 86.6963 1077.08 86.7744 1076.48 c 1,532,-1
 90.7988 1070.58 l 1,533,-1
 85.4268 1066.82 l 1,534,-1
 84.6328 1061.98 l 1,535,536
 83.2949 1061.5 83.2949 1061.5 80.9248 1060.3 c 128,-1,537
 78.5547 1059.1 78.5547 1059.1 76.542 1058.38 c 128,-1,538
 74.5322 1057.66 74.5322 1057.66 72.5645 1057.68 c 1,539,540
 75.4062 1055.64 75.4062 1055.64 75.792 1052.32 c 1,541,542
 74.6807 1051.68 74.6807 1051.68 72.6406 1050.26 c 128,-1,543
 70.6045 1048.86 70.6045 1048.86 69.7061 1048.32 c 1,544,545
 79.3965 1052.82 79.3965 1052.82 86.5381 1055.36 c 0,546,547
 108.616 1063.22 108.616 1063.22 129.702 1064.96 c 0,548,549
 138.94 1065.74 138.94 1065.74 152.664 1061.92 c 128,-1,550
 166.387 1058.1 166.387 1058.1 172.337 1054.8 c 0,551,552
 182.54 1049.16 182.54 1049.16 188.984 1042.74 c 1,553,554
 174.284 1040.86 174.284 1040.86 174.219 1040.86 c 1,555,556
 170.698 1042.72 170.698 1042.72 164.295 1047.14 c 128,-1,557
 157.893 1051.56 157.893 1051.56 154.368 1053.46 c 1,558,-1
 163.498 1045.14 l 1,559,560
 151.858 1051.68 151.858 1051.68 147.118 1055.86 c 1,561,562
 147.704 1054.06 147.704 1054.06 149.536 1050.58 c 128,-1,563
 151.368 1047.08 151.368 1047.08 151.963 1045.4 c 1,564,565
 150.314 1046.4 150.314 1046.4 147.185 1048.08 c 128,-1,566
 144.055 1049.78 144.055 1049.78 141.591 1051.26 c 128,-1,567
 139.122 1052.72 139.122 1052.72 137.192 1054.24 c 1,568,569
 137.269 1051.1 137.269 1051.1 139.07 1047 c 1,570,571
 135.814 1047.94 135.814 1047.94 132.904 1050.76 c 1,572,573
 129.305 1049.46 129.305 1049.46 126.211 1046.72 c 1,574,575
 124.79 1046.9 124.79 1046.9 121.519 1046.54 c 128,-1,576
 118.244 1046.16 118.244 1046.16 116.708 1046.3 c 1,577,578
 126.314 1041.84 126.314 1041.84 134.412 1033.26 c 0,579,580
 143.454 1023.68 143.454 1023.68 145 1010 c 1,581,582
 141.177 1013.62 141.177 1013.62 139.362 1018.05 c 1,583,584
 137.469 1016.12 137.469 1016.12 136.639 1013.6 c 1,585,-1
 138.33 1012.57 l 2,586,587
 144.589 1008.74 144.589 1008.74 152.271 1000.07 c 128,-1,588
 159.805 991.556 159.805 991.556 163.524 984.514 c 1,589,590
 162.984 984.729 162.984 984.729 161.843 985.866 c 128,-1,591
 160.698 987 160.698 987 160.322 987.294 c 1,592,593
 163.414 982.058 163.414 982.058 163.87 974.14 c 1,594,595
 161.849 976.068 161.849 976.068 158.977 976.47 c 1,596,597
 159.038 975.708 159.038 975.708 159.026 974.748 c 1,598,-1
 160.587 971.916 l 1,599,-1
 158.444 964.666 l 1,600,601
 155.074 964.868 155.074 964.868 153.07 966.544 c 1,602,-1
 147.622 966.12 l 1,603,-1
 151.748 960.906 l 1,604,605
 149.845 958.798 149.845 958.798 146.376 957.706 c 1,606,-1
 144.761 959.292 l 1,607,608
 143.814 958.107 143.814 958.107 141.692 957.468 c 1,609,-1
 139.391 961.436 l 1,610,611
 139.187 959.75 139.187 959.75 138.648 957.388 c 1,612,613
 136.116 956.456 136.116 956.456 132.826 957.548 c 1,614,615
 132.78 962.49 132.78 962.49 131.927 966.784 c 1,616,617
 131.572 960.602 131.572 960.602 130.603 958.182 c 1,618,619
 127.679 958.576 127.679 958.576 123.614 960.826 c 1,620,621
 123.589 961.382 123.589 961.382 123.671 965.658 c 128,-1,622
 123.75 969.928 123.75 969.928 123.242 970.248 c 1,623,624
 119.646 970.178 119.646 970.178 116.524 970.7 c 1,625,626
 114.893 973.936 114.893 973.936 115.252 982.9 c 1,627,628
 113.715 979.58 113.715 979.58 113.374 976.176 c 1,629,-1
 112.578 976.866 l 1,630,631
 113.772 967.788 113.772 967.788 113.374 959.558 c 1,632,633
 112.851 960.056 112.851 960.056 112.166 962.548 c 128,-1,634
 111.482 965.034 111.482 965.034 110.729 966.518 c 1,635,636
 109.562 962.126 109.562 962.126 106.914 960.748 c 1,637,638
 101.15 971.88 101.15 971.88 98.4746 982.476 c 1,639,640
 98.5566 985.278 98.5566 985.278 98.2207 986.946 c 128,-1,641
 97.8828 988.609 97.8828 988.609 96.9043 990.55 c 128,-1,642
 95.9287 992.482 95.9287 992.482 95.666 993.168 c 1,643,644
 95.2168 993.208 95.2168 993.208 92.9707 993.326 c 1,645,646
 92.8545 993.458 92.8545 993.458 92.6221 993.7 c 2,647,-1
 92.2822 994.066 l 1,648,649
 92.1426 993.68 92.1426 993.68 91.5068 991.752 c 128,-1,650
 90.8721 989.832 90.8721 989.832 90.4541 988.828 c 1,651,652
 89.0303 993.466 89.0303 993.466 89.3701 997.298 c 1,653,-1
 88.4424 998.304 l 1,654,655
 87.0605 996.208 87.0605 996.208 85.0801 994.28 c 1,656,657
 86.9463 985.226 86.9463 985.226 90.9043 979.116 c 0,658,659
 95.6543 972.084 95.6543 972.084 100.009 964.828 c 128,-1,660
 104.364 957.566 104.364 957.566 112.688 947.855 c 0,661,662
 120.602 938.628 120.602 938.628 130.603 930.576 c 2,663,-1
 208.146 868.146 l 2,664,665
 247.258 836.657 247.258 836.657 274.257 800.236 c 0,666,667
 287.727 782.068 287.727 782.068 298.603 770.544 c 1,668,-1
 268.91 770.806 l 1,669,670
 251.314 807.166 251.314 807.166 224.606 833.264 c 0,671,672
 208.126 849.37 208.126 849.37 174.431 878.308 c 2,673,-1
 149.685 899.56 l 2,674,675
 118.167 926.627 118.167 926.627 108.769 935.95 c 0,676,677
 91.1826 953.402 91.1826 953.402 76.4004 975.012 c 0,678,679
 75.582 976.212 75.582 976.212 74.8408 977.872 c 1,680,681
 74.4385 977.156 74.4385 977.156 74.0469 976.548 c 1,682,-1
 75.792 972.21 l 1,683,-1
 76.0049 971.812 l 2,684,685
 84.1602 951.932 84.1602 951.932 89.1064 945.928 c 1,686,-1
 72.6963 965.724 l 1,687,-1
 73.4082 963.818 l 2,688,689
 78.2724 950.801 78.2724 950.801 80.9268 928.832 c 1,690,691
 78.9287 926.052 78.9287 926.052 77.6182 924.676 c 1,692,693
 77.1328 922.126 77.1328 922.126 77.3027 920.414 c 1,694,695
 76.6006 919.816 76.6006 919.816 75.166 919.016 c 128,-1,696
 73.7305 918.21 73.7305 918.21 73.4385 917.928 c 1,697,698
 75.0068 916.002 75.0068 916.002 75.8164 911.02 c 1,699,700
 72.5303 909.866 72.5303 909.866 70.7109 907.974 c 1,701,702
 70.0742 905.556 70.0742 905.556 66.5303 902.472 c 1,703,704
 66.2842 904.83 66.2842 904.83 63.4863 908.346 c 1,705,706
 61.9443 906.982 61.9443 906.982 59.8867 907.023 c 1,707,708
 59.792 908.34 59.792 908.34 58.4541 911.282 c 128,-1,709
 57.1162 914.224 57.1162 914.224 57.0566 914.406 c 1,710,711
 54.9346 914.844 54.9346 914.844 52.6885 916.128 c 1,712,713
 52.9482 921.912 52.9482 921.912 51.7344 925.972 c 1,714,715
 49.7607 926.439 49.7607 926.439 46.7881 925.79 c 1,716,717
 48.2764 930.558 48.2764 930.558 50.3867 933.384 c 1,718,-1
 45.0908 933.754 l 1,719,720
 45.0928 933.79 45.0928 933.79 45.0283 938.894 c 128,-1,721
 44.9668 944.018 44.9668 944.018 45.4629 944.18 c 1,722,723
 44.7324 944.828 44.7324 944.828 43.2148 945.832 c 128,-1,724
 41.6943 946.834 41.6943 946.834 40.7266 947.594 c 1,725,726
 42.7441 950.4 42.7441 950.4 42.7881 952.914 c 1,727,-1
 37.2861 961.622 l 1,728,729
 40.6406 965.55 40.6406 965.55 40.8066 974.906 c 1,730,731
 43.2607 981.096 43.2607 981.096 44.9609 983.138 c 1,732,733
 44.7744 983.941 44.7744 983.941 41.334 991.954 c 1,734,735
 42.126 995.828 42.126 995.828 42.3145 1001.66 c 1,736,-1
 37.6025 1004.23 l 1,737,738
 39.3145 998.62 39.3145 998.62 40.9385 995.736 c 1,739,740
 36.0928 1000.97 36.0928 1000.97 33.4209 1006.19 c 1,741,742
 38.2344 992.046 38.2344 992.046 38.2666 991.976 c 1,743,744
 36.6748 994.628 36.6748 994.628 35.4844 996.846 c 1,745,746
 35.9746 992.83 35.9746 992.83 35.2725 989.014 c 1,747,748
 33.2822 988.128 33.2822 988.128 31.9941 986.736 c 1,749,750
 32.0068 986.63 32.0068 986.63 32.0469 986.41 c 128,-1,751
 32.084 986.172 32.084 986.172 32.0986 986.076 c 1,752,-1
 32.0049 986.355 l 2,753,754
 31.9424 986.54 31.9424 986.54 31.9121 986.632 c 1,755,756
 29.5449 984.012 29.5449 984.012 29.0283 983.72 c 1,757,758
 28.9004 981.562 28.9004 981.562 31.4561 975.446 c 128,-1,759
 34.0107 969.328 34.0107 969.328 34.1367 966.836 c 1,760,761
 34.0947 966.804 34.0947 966.804 32.0586 964.93 c 128,-1,762
 30.0186 963.056 30.0186 963.056 28.8447 962.468 c 1,763,764
 29.0566 960.714 29.0566 960.714 28.9707 959.374 c 128,-1,765
 28.8867 958.034 28.8867 958.034 29.0947 956.28 c 128,-1,766
 29.3066 954.525 29.3066 954.525 29.9824 952.992 c 1,767,768
 29.9688 952.99 29.9688 952.99 27.5889 951.894 c 128,-1,769
 25.2109 950.796 25.2109 950.796 23.5225 951.458 c 1,770,771
 22.1367 950.932 22.1367 950.932 20.3887 949.05 c 0,772,773
 19.5049 948.1 19.5049 948.1 18.998 947.674 c 1,774,775
 19.9541 945.568 19.9541 945.568 20.3643 943.102 c 128,-1,776
 20.7744 940.638 20.7744 940.638 20.9785 937.582 c 128,-1,777
 21.1846 934.525 21.1846 934.525 21.4609 932.88 c 1,778,-1
 18.2305 935.342 l 1,779,780
 17.6025 933.146 17.6025 933.146 17.79 928.876 c 128,-1,781
 17.9746 924.605 17.9746 924.605 17.2783 923.191 c 1,782,-1
 13.4922 926.054 l 1,783,-1
 16.1641 920.918 l 1,784,-1
 13.3086 919.594 l 1,785,786
 13.292 919.578 13.292 919.578 10.8486 914.486 c 1,787,788
 10.1826 914.406 10.1826 914.406 9.14258 914.95 c 128,-1,789
 8.09668 915.492 8.09668 915.492 7.43262 915.412 c 1,790,791
 7.42285 915.308 7.42285 915.308 7.22461 913.726 c 128,-1,792
 7.02246 912.154 7.02246 912.154 7.0625 911.152 c 1,793,794
 4.52246 910.782 4.52246 910.782 3.06445 911.444 c 1,795,796
 2.23828 916.284 2.23828 916.284 -0.163086 920.918 c 1,797,798
 -0.166016 920.91 -0.166016 920.91 -0.801758 917.988 c 128,-1,799
 -1.4375 915.066 -1.4375 915.066 -1.11523 913.322 c 1,800,801
 -2.13965 914.038 -2.13965 914.038 -2.70312 916.146 c 128,-1,802
 -3.27344 918.254 -3.27344 918.254 -3.94531 919.012 c 1,803,804
 -6.44141 915.794 -6.44141 915.794 -6.40918 913.506 c 1,805,806
 -7.47363 915.086 -7.47363 915.086 -8.41797 918.484 c 128,-1,807
 -9.35938 921.886 -9.35938 921.886 -10.2197 923.382 c 1,808,-1
 -12.4951 919.012 l 1,809,810
 -12.8594 922.464 -12.8594 922.464 -12.0498 928.746 c 128,-1,811
 -11.2373 935.025 -11.2373 935.025 -11.3555 937.036 c 1,812,813
 -11.374 937.048 -11.374 937.048 -12.2539 937.92 c 128,-1,814
 -13.1318 938.788 -13.1318 938.788 -14.0059 938.941 c 1,815,816
 -12.7598 945.71 -12.7598 945.71 -8.39355 953.074 c 1,817,818
 -9.06934 954.182 -9.06934 954.182 -10.3672 955.9 c 128,-1,819
 -11.6699 957.626 -11.6699 957.626 -12.124 958.288 c 1,820,821
 -10.4277 951.888 -10.4277 951.888 -10.4316 951.828 c 1,822,-1
 -14.4014 956.78 l 1,823,824
 -14.4014 956.766 -14.4014 956.766 -14.3193 951.992 c 128,-1,825
 -14.2354 947.222 -14.2354 947.222 -14.7695 947.278 c 1,826,827
 -16.4697 950.542 -16.4697 950.542 -18.7705 952.968 c 1,828,829
 -17.6514 948.59 -17.6514 948.59 -15.7256 945.396 c 1,830,831
 -15.7939 945.464 -15.7939 945.464 -18.3506 947.538 c 128,-1,832
 -20.9131 949.616 -20.9131 949.616 -21.8115 951.062 c 1,833,-1
 -19.3232 941.402 l 1,834,-1
 -21.4131 945.584 l 1,835,836
 -20.335 941.376 -20.335 941.376 -20.2744 937.986 c 1,837,838
 -22.1768 941.656 -22.1768 941.656 -24.8291 944.814 c 1,839,840
 -24.9385 941.586 -24.9385 941.586 -24.2471 938.544 c 1,841,-1
 -28.8252 943.864 l 1,842,-1
 -25.5947 935.342 l 1,843,-1
 -30.5186 940.264 l 1,844,845
 -30.9404 935.722 -30.9404 935.722 -29.751 931.16 c 1,846,847
 -30.4092 932.216 -30.4092 932.216 -32.0615 933.75 c 128,-1,848
 -33.7139 935.284 -33.7139 935.284 -34.3018 936.27 c 1,849,850
 -34.8525 932.22 -34.8525 932.22 -36.0244 930.021 c 1,851,-1
 -38.6689 935.13 l 1,852,853
 -38.7881 933.186 -38.7881 933.186 -38.5947 928.592 c 128,-1,854
 -38.4014 923.994 -38.4014 923.994 -38.6689 922.056 c 1,855,-1
 -40.9463 924.888 l 1,856,-1
 -41.501 920.52 l 1,857,858
 -43.4424 924.296 -43.4424 924.296 -43.7783 928.486 c 1,859,860
 -41.9443 941.984 -41.9443 941.984 -34.5146 957.521 c 0,861,862
 -32.1162 962.534 -32.1162 962.534 -23.9463 973.324 c 128,-1,863
 -15.7754 984.118 -15.7754 984.118 -11.1953 988.828 c 0,864,865
 -3.43359 996.818 -3.43359 996.818 5.9502 1005.08 c 1,866,867
 7.08398 1007.94 7.08398 1007.94 8.3584 1010.19 c 1,868,869
 7.28027 1011.26 7.28027 1011.26 6.82227 1011.88 c 1,870,871
 5.94238 1011.52 5.94238 1011.52 4.99609 1011.27 c 1,872,873
 5.54883 1012.2 5.54883 1012.2 6.13867 1013.04 c 1,874,875
 5.69629 1014.02 5.69629 1014.02 5.55469 1015.08 c 1,876,-1
 4.31055 1014.26 l 1,877,878
 4.14844 1014.03 4.14844 1014.03 2.14648 1011.53 c 128,-1,879
 0.144531 1009.03 0.144531 1009.03 -0.401367 1007.59 c 1,880,-1
 -0.495117 1010.48 l 1,881,-1
 -0.587891 1013.28 l 1,882,883
 -4.37402 1007.41 -4.37402 1007.41 -6.0918 1000.95 c 1,884,885
 -6.09375 1000.96 -6.09375 1000.96 -7.1377 1005.42 c 128,-1,886
 -8.18555 1009.89 -8.18555 1009.89 -7.99512 1012.33 c 1,887,888
 -8.52344 1010.14 -8.52344 1010.14 -10.626 1006.77 c 128,-1,889
 -12.7236 1003.4 -12.7236 1003.4 -13.2891 1001.53 c 1,890,891
 -13.248 1005.23 -13.248 1005.23 -11.7793 1010.64 c 1,892,-1
 -17.2588 999.07 l 1,893,894
 -17.2607 1000.65 -17.2607 1000.65 -17.2725 1004.1 c 128,-1,895
 -17.2842 1007.44 -17.2842 1007.44 -17.2861 1009.1 c 1,896,897
 -21.751 1002.85 -21.751 1002.85 -23.3447 997.722 c 1,898,899
 -24.2275 1003.07 -24.2275 1003.07 -23.3447 1005.5 c 1,900,901
 -29.5381 998.97 -29.5381 998.97 -31.1279 993.75 c 1,902,-1
 -33.1924 1001.9 l 1,903,904
 -38.3896 996.344 -38.3896 996.344 -40.415 992.982 c 1,905,906
 -41.3779 995.972 -41.3779 995.972 -40.7861 1001.5 c 1,907,908
 -41.7471 999.806 -41.7471 999.806 -43.0771 996.198 c 128,-1,909
 -44.4053 992.59 -44.4053 992.59 -45.3389 990.89 c 1,910,911
 -45.5186 994.77 -45.5186 994.77 -44.5713 999.229 c 1,912,-1
 -49.3076 987.848 l 1,913,914
 -49.8701 991.694 -49.8701 991.694 -48.7549 996.398 c 1,915,916
 -52.6787 991.359 -52.6787 991.359 -54.2588 987.848 c 1,917,-1
 -55.21 996.186 l 1,918,919
 -55.79 994.418 -55.79 994.418 -56.1025 992.396 c 128,-1,920
 -56.415 990.376 -56.415 990.376 -56.6455 987.896 c 128,-1,921
 -56.8779 985.424 -56.8779 985.424 -57.0908 984.064 c 1,922,923
 -58.8936 987.14 -58.8936 987.14 -59.1826 989.939 c 1,924,925
 -61.2354 986.862 -61.2354 986.862 -61.4561 982.926 c 1,926,927
 -62.7881 988.508 -62.7881 988.508 -61.8252 993.354 c 1,928,929
 -61.874 993.24 -61.874 993.24 -66.1963 978.374 c 1,930,931
 -66.8057 988.979 -66.8057 988.979 -68.0986 991.448 c 1,932,933
 -68.5225 989.826 -68.5225 989.826 -69.3291 985.372 c 128,-1,934
 -70.1338 980.916 -70.1338 980.916 -70.5068 979.964 c 1,935,936
 -70.7373 981.446 -70.7373 981.446 -70.8076 984.17 c 128,-1,937
 -70.876 986.894 -70.876 986.894 -70.9307 987.664 c 1,938,939
 -74.8955 978.208 -74.8955 978.208 -74.9268 978.162 c 1,940,-1
 -73.9756 985.758 l 1,941,942
 -74.8428 984.478 -74.8428 984.478 -75.3428 982.771 c 128,-1,943
 -75.8467 981.066 -75.8467 981.066 -76.249 978.862 c 128,-1,944
 -76.6533 976.658 -76.6533 976.658 -76.9912 975.516 c 1,945,946
 -76.7666 977.3 -76.7666 977.3 -77.1436 981.004 c 128,-1,947
 -77.5166 984.708 -77.5166 984.708 -77.2021 986.712 c 1,948,949
 -76.0811 989.064 -76.0811 989.064 -68.6943 996.708 c 128,-1,950
 -61.3076 1004.35 -61.3076 1004.35 -55.0244 1008.92 c 0,951,952
 -40.6494 1019.36 -40.6494 1019.36 -15.2217 1025.06 c 1,953,954
 -15.8096 1026.14 -15.8096 1026.14 -16.46 1028.4 c 128,-1,955
 -17.1064 1030.66 -17.1064 1030.66 -17.8682 1031.86 c 1,956,957
 -18.7803 1031.2 -18.7803 1031.2 -20.2334 1029.24 c 128,-1,958
 -21.6865 1027.28 -21.6865 1027.28 -22.79 1026.57 c 1,959,960
 -22.9482 1027.24 -22.9482 1027.24 -23.1865 1028 c 1,961,962
 -28.4775 1024.09 -28.4775 1024.09 -35.1221 1020.48 c 1,963,-1
 -30.5713 1026.17 l 1,964,-1
 -38.1416 1024.08 l 1,965,-1
 -34.54 1031.86 l 1,966,-1
 -41.9521 1026.94 l 1,967,-1
 -37.7705 1032.42 l 1,968,969
 -39.3428 1031.72 -39.3428 1031.72 -43.6084 1029.18 c 128,-1,970
 -47.876 1026.64 -47.876 1026.64 -50.4736 1025.77 c 1,971,-1
 -47.0576 1029.4 l 1,972,-1
 -53.3311 1027.12 l 1,973,974
 -54.7002 1027.98 -54.7002 1027.98 -56.5791 1030.18 c 128,-1,975
 -58.458 1032.4 -58.458 1032.4 -60.1592 1033.74 c 1,976,977
 -52.249 1037.88 -52.249 1037.88 -36.4717 1042.46 c 1,978,979
 -34.6221 1045.58 -34.6221 1045.58 -32.0791 1047.6 c 1,980,981
 -36.7842 1048.76 -36.7842 1048.76 -40.8135 1048.56 c 1,982,983
 -35.9131 1051.86 -35.9131 1051.86 -24.7686 1054.72 c 128,-1,984
 -13.624 1057.58 -13.624 1057.58 -2.2793 1057.26 c 0,985,986
 -0.748047 1057.22 -0.748047 1057.22 1.47852 1056.94 c 1,987,988
 0.124023 1057.94 0.124023 1057.94 -0.931641 1058.62 c 1,989,990
 2.90625 1062.82 2.90625 1062.82 4.04688 1063.78 c 1,991,992
 3.08008 1063.5 3.08008 1063.5 0.532227 1062.1 c 128,-1,993
 -2.01758 1060.7 -2.01758 1060.7 -4.39746 1060.76 c 1,994,995
 -5.94336 1064.16 -5.94336 1064.16 -7.3877 1069.22 c 1,996,997
 -9.91113 1069.34 -9.91113 1069.34 -14.2412 1068.82 c 1,998,999
 -14.3232 1069.16 -14.3232 1069.16 -15.832 1075.98 c 1,1000,1001
 -16.792 1076.84 -16.792 1076.84 -19.3701 1076.46 c 128,-1,1002
 -21.9502 1076.06 -21.9502 1076.06 -22.6572 1076.26 c 1,1003,1004
 -22.3896 1079.06 -22.3896 1079.06 -21.8916 1080.8 c 1,1005,1006
 -19.1572 1082.94 -19.1572 1082.94 -15.2217 1083.64 c 1,1007,1008
 -14.7832 1085.12 -14.7832 1085.12 -14.2412 1087.46 c 1,1009,1010
 -14.1016 1087.4 -14.1016 1087.4 -4.15527 1084.88 c 128,-1,1011
 5.79199 1082.36 5.79199 1082.36 9.78809 1079.52 c 1,1012,1013
 10.248 1074.82 10.248 1074.82 10.6084 1072.7 c 1,1014,1015
 10.9688 1073.5 10.9688 1073.5 11.2627 1075 c 128,-1,1016
 11.5605 1076.5 11.5605 1076.5 11.7988 1077.12 c 1,1017,1018
 12.2764 1076.82 12.2764 1076.82 15.3984 1075.74 c 128,-1,1019
 18.5166 1074.66 18.5166 1074.66 19.3145 1073.92 c 1,1020,1021
 18.1006 1071.88 18.1006 1071.88 17.7021 1070.42 c 1,1022,1023
 19.5566 1072.22 19.5566 1072.22 20.374 1072.7 c 1,1024,1025
 23.0225 1071.14 23.0225 1071.14 30.418 1063.62 c 128,-1,1026
 37.7957 1056.14 37.7957 1056.14 40.1465 1054.2 c 2,1027,-1
 40.4863 1053.92 l 2,1028,1029
 41.1993 1053.34 41.1993 1053.34 41.8389 1052.9 c 1,1030,-1
 40.3809 1060.88 l 1,1031,1032
 41.75 1062.14 41.75 1062.14 44.4922 1062.26 c 0,1033,1034
 45.8643 1062.32 45.8643 1062.32 46.5508 1062.5 c 1,1035,1036
 46.4248 1071.9 46.4248 1071.9 45.4629 1074.3 c 1,1037,1038
 47.9023 1075.84 47.9023 1075.84 50.0781 1075.84 c 128,-1,1039
 52.252 1075.86 52.252 1075.86 54.5947 1075.36 c 1,1040,1041
 55.6729 1077.86 55.6729 1077.86 59.3125 1081.7 c 128,-1,1042
 62.9463 1085.56 62.9463 1085.56 63.6982 1087.46 c 1,1043,1044
 69.0781 1088.76 69.0781 1088.76 71.6387 1088.76 c 0,522,523
991.606 1315.26 m 0,1045,1046
 991.606 1321.26 991.606 1321.26 987.606 1322.26 c 128,-1,1047
 983.606 1323.26 983.606 1323.26 967.606 1323.26 c 0,1048,1049
 961.606 1323.26 961.606 1323.26 927.606 1327.26 c 1,1050,-1
 905.606 1297.26 l 1,1051,-1
 889.606 1295.26 l 1,1052,-1
 899.606 1331.26 l 1,1053,-1
 889.606 1335.26 l 1,1054,-1
 899.606 1337.26 l 1,1055,-1
 889.606 1373.26 l 1,1056,-1
 905.606 1371.26 l 1,1057,-1
 927.606 1341.26 l 1,1058,-1
 937.606 1343.26 l 2,1059,1060
 945.606 1343.26 945.606 1343.26 954.606 1344.26 c 128,-1,1061
 963.606 1345.26 963.606 1345.26 971.606 1345.26 c 2,1062,-1
 979.606 1345.26 l 2,1063,1064
 991.606 1345.26 991.606 1345.26 991.606 1353.26 c 2,1065,-1
 991.606 1355.26 l 1,1066,-1
 991.606 1357.26 l 2,1067,1068
 991.606 1369.88 991.606 1369.88 985.606 1383.26 c 2,1069,-1
 959.606 1441.26 l 1,1070,-1
 969.606 1441.26 l 2,1071,1072
 973.606 1441.26 973.606 1441.26 975.606 1440.26 c 0,1073,1074
 976.806 1439.66 976.806 1439.66 981.606 1433.26 c 2,1075,-1
 993.606 1417.26 l 1,1076,-1
 1011.61 1417.26 l 2,1077,1078
 1013.61 1417.26 1013.61 1417.26 1014.61 1416.26 c 128,-1,1079
 1015.61 1415.26 1015.61 1415.26 1015.61 1413.26 c 128,-1,1080
 1015.61 1411.26 1015.61 1411.26 1014.61 1409.26 c 128,-1,1081
 1013.61 1407.26 1013.61 1407.26 1011.61 1407.26 c 2,1082,-1
 1001.61 1407.26 l 1,1083,-1
 1017.61 1387.26 l 1,1084,-1
 1035.61 1387.26 l 1,1085,-1
 1035.61 1385.26 l 1,1086,1087
 1037.61 1383.26 1037.61 1383.26 1037.61 1381.26 c 128,-1,1088
 1037.61 1379.26 1037.61 1379.26 1036.61 1377.26 c 128,-1,1089
 1035.61 1375.26 1035.61 1375.26 1033.61 1375.26 c 2,1090,-1
 1025.61 1375.26 l 1,1091,-1
 1047.61 1347.26 l 1,1092,-1
 1049.61 1345.26 l 1,1093,-1
 1071.61 1345.26 l 2,1094,1095
 1107.61 1345.26 1107.61 1345.26 1107.61 1335.26 c 0,1096,1097
 1107.61 1329.26 1107.61 1329.26 1093.61 1326.26 c 128,-1,1098
 1079.61 1323.26 1079.61 1323.26 1047.61 1321.26 c 1,1099,-1
 1025.61 1293.26 l 1,1100,-1
 1033.61 1293.26 l 2,1101,1102
 1035.61 1293.26 1035.61 1293.26 1036.61 1291.26 c 128,-1,1103
 1037.61 1289.26 1037.61 1289.26 1037.61 1287.26 c 128,-1,1104
 1037.61 1285.26 1037.61 1285.26 1035.61 1283.26 c 1,1105,-1
 1035.61 1283.26 l 1,1106,-1
 1017.61 1283.26 l 1,1107,-1
 1001.61 1261.26 l 1,1108,-1
 1011.61 1261.26 l 2,1109,1110
 1013.61 1261.26 1013.61 1261.26 1014.61 1260.26 c 128,-1,1111
 1015.61 1259.26 1015.61 1259.26 1015.61 1257.26 c 128,-1,1112
 1015.61 1255.26 1015.61 1255.26 1014.61 1253.26 c 128,-1,1113
 1013.61 1251.26 1013.61 1251.26 1011.61 1251.26 c 2,1114,-1
 993.606 1251.26 l 1,1115,-1
 981.606 1235.26 l 2,1116,1117
 976.806 1228.86 976.806 1228.86 975.606 1228.26 c 0,1118,1119
 973.606 1227.26 973.606 1227.26 969.606 1227.26 c 2,1120,-1
 959.606 1227.26 l 1,1121,-1
 985.606 1285.26 l 1,1122,1123
 991.606 1311.26 991.606 1311.26 991.606 1315.26 c 0,1045,1046
76 0 m 1,1124,-1
 76 739 l 1,1125,-1
 150 739 l 1,1126,-1
 150 0 l 1,1127,-1
 76 0 l 1,1124,-1
EndSplineSet
Validated: 37
EndChar

StartChar: J
Encoding: 74 74 45
Width: 482
Flags: W
LayerCount: 2
Fore
SplineSet
406 739 m 1,0,-1
 406 231 l 2,1,2
 406 137 406 137 377 82 c 0,3,4
 330 -14 330 -14 209 -14 c 0,5,6
 121 -14 121 -14 68.5 36 c 128,-1,7
 16 86 16 86 11 175 c 1,8,-1
 84 175 l 1,9,10
 88 119 88 119 121.5 86.5 c 128,-1,11
 155 54 155 54 210 54 c 0,12,13
 332 54 332 54 332 231 c 2,14,-1
 332 739 l 1,15,-1
 406 739 l 1,0,-1
EndSplineSet
Validated: 1
EndChar

StartChar: K
Encoding: 75 75 46
Width: 591
Flags: W
LayerCount: 2
Fore
SplineSet
76 0 m 1,0,-1
 76 739 l 1,1,-1
 150 739 l 1,2,-1
 150 314 l 1,3,-1
 492 739 l 1,4,-1
 585 739 l 1,5,-1
 293 379 l 1,6,-1
 585 0 l 1,7,-1
 492 0 l 1,8,-1
 246 320 l 1,9,-1
 150 202 l 1,10,-1
 150 0 l 1,11,-1
 76 0 l 1,0,-1
EndSplineSet
Validated: 1
EndChar

StartChar: L
Encoding: 76 76 47
Width: 462
Flags: W
LayerCount: 2
Fore
SplineSet
76 0 m 1,0,-1
 76 739 l 1,1,-1
 150 739 l 1,2,-1
 150 67 l 1,3,-1
 456 67 l 1,4,-1
 456 0 l 1,5,-1
 76 0 l 1,0,-1
EndSplineSet
Validated: 1
EndChar

StartChar: M
Encoding: 77 77 48
Width: 919
Flags: W
LayerCount: 2
Fore
SplineSet
4197 -708 m 5,0,-1
 4197 -708 l 5,1,-1
 4197 -708 l 5,2,-1
 4199 -708 l 5,3,-1
 4199 -708 l 5,4,-1
 4199 -710 l 5,5,-1
 4197 -710 l 5,6,-1
 4197 -710 l 5,7,-1
 4197 -708 l 5,0,-1
4159 -706 m 5,8,-1
 4159 -702 l 5,9,-1
 4153 -702 l 5,10,-1
 4149 -702 l 5,11,-1
 4149 -700 l 5,12,-1
 4149 -698 l 5,13,-1
 4147 -698 l 5,14,-1
 4143 -698 l 5,15,-1
 4143 -696 l 5,16,-1
 4143 -692 l 5,17,-1
 4141 -692 l 5,18,-1
 4139 -692 l 5,19,-1
 4139 -696 l 5,20,-1
 4139 -698 l 5,21,-1
 4139 -698 l 5,22,-1
 4137 -698 l 5,23,-1
 4137 -696 l 5,24,-1
 4137 -696 l 5,25,-1
 4135 -696 l 5,26,-1
 4133 -696 l 5,27,-1
 4133 -692 l 5,28,-1
 4133 -690 l 5,29,-1
 4131 -690 l 5,30,-1
 4127 -690 l 5,31,-1
 4127 -688 l 5,32,-1
 4127 -686 l 5,33,-1
 4125 -686 l 5,34,-1
 4125 -686 l 5,35,-1
 4125 -686 l 5,36,-1
 4125 -688 l 5,37,-1
 4123 -688 l 5,38,-1
 4121 -688 l 5,39,-1
 4121 -686 l 5,40,-1
 4121 -682 l 5,41,-1
 4119 -682 l 5,42,-1
 4117 -682 l 5,43,-1
 4117 -684 l 5,44,-1
 4117 -686 l 5,45,-1
 4115 -686 l 5,46,-1
 4113 -686 l 5,47,-1
 4113 -684 l 5,48,-1
 4113 -682 l 5,49,-1
 4111 -682 l 5,50,-1
 4109 -682 l 5,51,-1
 4109 -682 l 5,52,-1
 4109 -680 l 5,53,-1
 4107 -680 l 5,54,-1
 4107 -680 l 5,55,-1
 4107 -678 l 5,56,-1
 4105 -678 l 5,57,-1
 4105 -678 l 5,58,-1
 4099 -678 l 5,59,-1
 4099 -676 l 5,60,-1
 4099 -676 l 5,61,-1
 4097 -676 l 5,62,-1
 4097 -674 l 5,63,-1
 4097 -672 l 5,64,-1
 4095 -672 l 5,65,-1
 4093 -672 l 5,66,-1
 4093 -674 l 5,67,-1
 4093 -676 l 5,68,-1
 4095 -676 l 5,69,-1
 4097 -676 l 5,70,-1
 4097 -676 l 5,71,-1
 4097 -678 l 5,72,-1
 4095 -678 l 5,73,-1
 4093 -678 l 5,74,-1
 4093 -676 l 5,75,-1
 4093 -676 l 5,76,-1
 4093 -676 l 5,77,-1
 4091 -676 l 5,78,-1
 4091 -674 l 5,79,-1
 4091 -672 l 5,80,-1
 4089 -672 l 5,81,-1
 4085 -672 l 5,82,-1
 4085 -672 l 5,83,-1
 4085 -670 l 5,84,-1
 4079 -670 l 5,85,-1
 4073 -670 l 5,86,-1
 4073 -670 l 5,87,-1
 4073 -668 l 5,88,-1
 4071 -668 l 5,89,-1
 4067 -668 l 5,90,-1
 4067 -666 l 5,91,-1
 4067 -664 l 5,92,-1
 4065 -664 l 5,93,-1
 4065 -664 l 5,94,-1
 4065 -662 l 5,95,-1
 4065 -660 l 5,96,-1
 4063 -660 l 5,97,-1
 4061 -660 l 5,98,-1
 4061 -660 l 5,99,-1
 4061 -658 l 5,100,-1
 4061 -658 l 5,101,-1
 4059 -658 l 5,102,-1
 4059 -654 l 5,103,-1
 4059 -650 l 5,104,-1
 4057 -650 l 5,105,-1
 4057 -650 l 5,106,-1
 4057 -650 l 5,107,-1
 4057 -648 l 5,108,-1
 4057 -648 l 5,109,-1
 4059 -648 l 5,110,-1
 4059 -644 l 5,111,-1
 4059 -640 l 5,112,-1
 4057 -640 l 5,113,-1
 4057 -640 l 5,114,-1
 4057 -636 l 5,115,-1
 4057 -632 l 5,116,-1
 4057 -632 l 5,117,-1
 4059 -632 l 5,118,-1
 4059 -628 l 5,119,-1
 4059 -624 l 5,120,-1
 4061 -624 l 5,121,-1
 4061 -624 l 5,122,-1
 4061 -624 l 5,123,-1
 4061 -624 l 5,124,-1
 4063 -624 l 5,125,-1
 4065 -624 l 5,126,-1
 4065 -618 l 5,127,-1
 4065 -614 l 5,128,-1
 4067 -614 l 5,129,-1
 4069 -614 l 5,130,-1
 4069 -610 l 5,131,-1
 4069 -608 l 5,132,-1
 4069 -604 l 5,133,-1
 4071 -604 l 5,134,-1
 4073 -604 l 5,135,-1
 4073 -600 l 5,136,-1
 4073 -598 l 5,137,-1
 4075 -598 l 5,138,-1
 4077 -598 l 5,139,-1
 4077 -594 l 5,140,-1
 4077 -590 l 5,141,-1
 4079 -590 l 5,142,-1
 4081 -590 l 5,143,-1
 4081 -588 l 5,144,-1
 4081 -586 l 5,145,-1
 4083 -586 l 5,146,-1
 4085 -586 l 5,147,-1
 4085 -582 l 5,148,-1
 4085 -580 l 5,149,-1
 4085 -578 l 5,150,-1
 4087 -578 l 5,151,-1
 4089 -578 l 5,152,-1
 4089 -580 l 5,153,-1
 4089 -580 l 5,154,-1
 4091 -580 l 5,155,-1
 4091 -580 l 5,156,-1
 4091 -576 l 5,157,-1
 4091 -572 l 5,158,-1
 4093 -572 l 5,159,-1
 4093 -572 l 5,160,-1
 4093 -572 l 5,161,-1
 4093 -570 l 5,162,-1
 4095 -570 l 5,163,-1
 4097 -570 l 5,164,-1
 4097 -568 l 5,165,-1
 4097 -566 l 5,166,-1
 4101 -566 l 5,167,-1
 4105 -566 l 5,168,-1
 4105 -566 l 5,169,-1
 4105 -560 l 5,170,-1
 4107 -560 l 5,171,-1
 4109 -560 l 5,172,-1
 4111 -560 l 5,173,-1
 4111 -558 l 5,174,-1
 4111 -556 l 5,175,-1
 4117 -556 l 5,176,-1
 4121 -556 l 5,177,-1
 4121 -552 l 5,178,-1
 4121 -550 l 5,179,-1
 4127 -550 l 5,180,-1
 4131 -550 l 5,181,-1
 4131 -548 l 5,182,-1
 4131 -546 l 5,183,-1
 4133 -546 l 5,184,-1
 4133 -546 l 5,185,-1
 4133 -544 l 5,186,-1
 4133 -542 l 5,187,-1
 4137 -542 l 5,188,-1
 4139 -542 l 5,189,-1
 4139 -544 l 5,190,-1
 4139 -546 l 5,191,-1
 4141 -546 l 5,192,-1
 4143 -546 l 5,193,-1
 4143 -544 l 5,194,-1
 4143 -540 l 5,195,-1
 4149 -540 l 5,196,-1
 4153 -540 l 5,197,-1
 4153 -540 l 5,198,-1
 4153 -538 l 5,199,-1
 4155 -538 l 5,200,-1
 4157 -538 l 5,201,-1
 4157 -540 l 5,202,-1
 4157 -540 l 5,203,-1
 4159 -540 l 5,204,-1
 4161 -540 l 5,205,-1
 4161 -542 l 5,206,-1
 4161 -542 l 5,207,-1
 4163 -542 l 5,208,-1
 4165 -542 l 5,209,-1
 4165 -544 l 5,210,-1
 4165 -546 l 5,211,-1
 4165 -546 l 5,212,-1
 4167 -546 l 5,213,-1
 4167 -550 l 5,214,-1
 4167 -552 l 5,215,-1
 4165 -552 l 5,216,-1
 4161 -552 l 5,217,-1
 4161 -552 l 5,218,-1
 4161 -550 l 5,219,-1
 4161 -550 l 5,220,-1
 4159 -550 l 5,221,-1
 4159 -556 l 5,222,-1
 4159 -560 l 5,223,-1
 4161 -560 l 5,224,-1
 4161 -560 l 5,225,-1
 4161 -560 l 5,226,-1
 4161 -558 l 5,227,-1
 4163 -558 l 5,228,-1
 4165 -558 l 5,229,-1
 4165 -560 l 5,230,-1
 4165 -562 l 5,231,-1
 4165 -562 l 5,232,-1
 4165 -560 l 5,233,-1
 4167 -560 l 5,234,-1
 4169 -560 l 5,235,-1
 4169 -558 l 5,236,-1
 4169 -556 l 5,237,-1
 4171 -556 l 5,238,-1
 4171 -556 l 5,239,-1
 4171 -556 l 5,240,-1
 4171 -558 l 5,241,-1
 4175 -558 l 5,242,-1
 4179 -558 l 5,243,-1
 4179 -560 l 5,244,-1
 4179 -560 l 5,245,-1
 4181 -560 l 5,246,-1
 4183 -560 l 5,247,-1
 4183 -562 l 5,248,-1
 4183 -562 l 5,249,-1
 4183 -562 l 5,250,-1
 4181 -562 l 5,251,-1
 4181 -570 l 5,252,-1
 4181 -576 l 5,253,-1
 4183 -576 l 5,254,-1
 4183 -576 l 5,255,-1
 4183 -570 l 5,256,-1
 4183 -566 l 5,257,-1
 4185 -566 l 5,258,-1
 4187 -566 l 5,259,-1
 4187 -566 l 5,260,-1
 4187 -568 l 5,261,-1
 4199 -568 l 5,262,-1
 4211 -568 l 5,263,-1
 4211 -570 l 5,264,-1
 4211 -572 l 5,265,-1
 4213 -572 l 5,266,-1
 4215 -572 l 5,267,-1
 4215 -568 l 5,268,-1
 4219 -568 l 5,269,-1
 4219 -570 l 5,270,-1
 4219 -572 l 5,271,-1
 4217 -572 l 5,272,-1
 4215 -572 l 5,273,-1
 4215 -574 l 5,274,-1
 4215 -576 l 5,275,-1
 4217 -576 l 5,276,-1
 4219 -576 l 5,277,-1
 4219 -574 l 5,278,-1
 4219 -572 l 5,279,-1
 4225 -572 l 5,280,-1
 4231 -572 l 5,281,-1
 4231 -574 l 5,282,-1
 4231 -576 l 5,283,-1
 4235 -576 l 5,284,-1
 4235 -580 l 5,285,-1
 4235 -584 l 5,286,-1
 4239 -584 l 5,287,-1
 4241 -584 l 5,288,-1
 4241 -580 l 5,289,-1
 4241 -578 l 5,290,-1
 4243 -578 l 5,291,-1
 4243 -578 l 5,292,-1
 4243 -580 l 5,293,-1
 4243 -580 l 5,294,-1
 4247 -580 l 5,295,-1
 4249 -580 l 5,296,-1
 4249 -582 l 5,297,-1
 4249 -584 l 5,298,-1
 4251 -584 l 5,299,-1
 4255 -584 l 5,300,-1
 4255 -582 l 5,301,-1
 4255 -580 l 5,302,-1
 4255 -580 l 5,303,-1
 4255 -580 l 5,304,-1
 4255 -586 l 5,305,-1
 4255 -590 l 5,306,-1
 4257 -590 l 5,307,-1
 4259 -590 l 5,308,-1
 4259 -588 l 5,309,-1
 4259 -586 l 5,310,-1
 4261 -586 l 5,311,-1
 4263 -586 l 5,312,-1
 4263 -584 l 5,313,-1
 4263 -584 l 5,314,-1
 4265 -584 l 5,315,-1
 4267 -584 l 5,316,-1
 4267 -584 l 5,317,-1
 4267 -586 l 5,318,-1
 4267 -586 l 5,319,-1
 4269 -586 l 5,320,-1
 4269 -586 l 5,321,-1
 4269 -588 l 5,322,-1
 4267 -588 l 5,323,-1
 4267 -588 l 5,324,-1
 4267 -590 l 5,325,-1
 4267 -592 l 5,326,-1
 4269 -592 l 5,327,-1
 4271 -592 l 5,328,-1
 4271 -592 l 5,329,-1
 4271 -590 l 5,330,-1
 4275 -590 l 5,331,-1
 4279 -590 l 5,332,-1
 4279 -594 l 5,333,-1
 4279 -598 l 5,334,-1
 4283 -598 l 5,335,-1
 4283 -594 l 5,336,-1
 4283 -592 l 5,337,-1
 4285 -592 l 5,338,-1
 4287 -592 l 5,339,-1
 4287 -596 l 5,340,-1
 4287 -600 l 5,341,-1
 4287 -600 l 5,342,-1
 4289 -600 l 5,343,-1
 4289 -598 l 5,344,-1
 4289 -598 l 5,345,-1
 4291 -598 l 5,346,-1
 4291 -598 l 5,347,-1
 4291 -600 l 5,348,-1
 4291 -604 l 5,349,-1
 4293 -604 l 5,350,-1
 4295 -604 l 5,351,-1
 4295 -604 l 5,352,-1
 4295 -606 l 5,353,-1
 4297 -606 l 5,354,-1
 4299 -606 l 5,355,-1
 4299 -604 l 5,356,-1
 4299 -604 l 5,357,-1
 4301 -604 l 5,358,-1
 4303 -604 l 5,359,-1
 4303 -604 l 5,360,-1
 4303 -606 l 5,361,-1
 4305 -606 l 5,362,-1
 4307 -606 l 5,363,-1
 4307 -606 l 5,364,-1
 4307 -608 l 5,365,-1
 4307 -608 l 5,366,-1
 4309 -608 l 5,367,-1
 4309 -612 l 5,368,-1
 4309 -616 l 5,369,-1
 4311 -616 l 5,370,-1
 4313 -616 l 5,371,-1
 4313 -620 l 5,372,-1
 4313 -624 l 5,373,-1
 4315 -624 l 5,374,-1
 4317 -624 l 5,375,-1
 4317 -624 l 5,376,-1
 4317 -624 l 5,377,-1
 4315 -624 l 5,378,-1
 4313 -624 l 5,379,-1
 4313 -624 l 5,380,-1
 4313 -624 l 5,381,-1
 4309 -624 l 5,382,-1
 4307 -624 l 5,383,-1
 4307 -624 l 5,384,-1
 4307 -624 l 5,385,-1
 4309 -624 l 5,386,-1
 4313 -624 l 5,387,-1
 4313 -628 l 5,388,-1
 4313 -632 l 5,389,-1
 4313 -632 l 5,390,-1
 4311 -632 l 5,391,-1
 4311 -634 l 5,392,-1
 4311 -636 l 5,393,-1
 4313 -636 l 5,394,-1
 4317 -636 l 5,395,-1
 4317 -630 l 5,396,-1
 4317 -624 l 5,397,-1
 4317 -624 l 5,398,-1
 4319 -624 l 5,399,-1
 4319 -622 l 5,400,-1
 4319 -620 l 5,401,-1
 4319 -620 l 5,402,-1
 4321 -620 l 5,403,-1
 4321 -624 l 5,404,-1
 4321 -628 l 5,405,-1
 4319 -628 l 5,406,-1
 4319 -628 l 5,407,-1
 4319 -630 l 5,408,-1
 4319 -632 l 5,409,-1
 4323 -632 l 5,410,-1
 4329 -632 l 5,411,-1
 4331 -632 l 5,412,-1
 4331 -638 l 5,413,-1
 4333 -638 l 5,414,-1
 4333 -642 l 5,415,-1
 4333 -646 l 5,416,-1
 4333 -646 l 5,417,-1
 4331 -646 l 5,418,-1
 4331 -644 l 5,419,-1
 4331 -644 l 5,420,-1
 4329 -644 l 5,421,-1
 4327 -644 l 5,422,-1
 4327 -644 l 5,423,-1
 4327 -646 l 5,424,-1
 4325 -646 l 5,425,-1
 4323 -646 l 5,426,-1
 4323 -646 l 5,427,-1
 4323 -648 l 5,428,-1
 4321 -648 l 5,429,-1
 4319 -648 l 5,430,-1
 4319 -646 l 5,431,-1
 4319 -646 l 5,432,-1
 4321 -646 l 5,433,-1
 4321 -642 l 5,434,-1
 4321 -640 l 5,435,-1
 4321 -640 l 5,436,-1
 4319 -640 l 5,437,-1
 4319 -642 l 5,438,-1
 4319 -644 l 5,439,-1
 4319 -644 l 5,440,-1
 4317 -644 l 5,441,-1
 4317 -646 l 5,442,-1
 4317 -648 l 5,443,-1
 4317 -650 l 5,444,-1
 4319 -650 l 5,445,-1
 4323 -650 l 5,446,-1
 4323 -652 l 5,447,-1
 4323 -652 l 5,448,-1
 4325 -652 l 5,449,-1
 4327 -652 l 5,450,-1
 4327 -654 l 5,451,-1
 4327 -656 l 5,452,-1
 4323 -656 l 5,453,-1
 4319 -656 l 5,454,-1
 4319 -656 l 5,455,-1
 4319 -658 l 5,456,-1
 4319 -658 l 5,457,-1
 4321 -658 l 5,458,-1
 4321 -660 l 5,459,-1
 4321 -660 l 5,460,-1
 4319 -660 l 5,461,-1
 4319 -660 l 5,462,-1
 4319 -660 l 5,463,-1
 4319 -666 l 5,464,-1
 4309 -666 l 5,465,-1
 4309 -658 l 5,466,-1
 4311 -658 l 5,467,-1
 4313 -658 l 5,468,-1
 4313 -660 l 5,469,-1
 4313 -660 l 5,470,-1
 4315 -660 l 5,471,-1
 4317 -660 l 5,472,-1
 4317 -658 l 5,473,-1
 4317 -656 l 5,474,-1
 4313 -656 l 5,475,-1
 4311 -656 l 5,476,-1
 4311 -654 l 5,477,-1
 4311 -652 l 5,478,-1
 4309 -652 l 5,479,-1
 4309 -652 l 5,480,-1
 4309 -656 l 5,481,-1
 4309 -658 l 5,482,-1
 4307 -658 l 5,483,-1
 4307 -658 l 5,484,-1
 4307 -664 l 5,485,-1
 4307 -670 l 5,486,-1
 4303 -670 l 5,487,-1
 4301 -670 l 5,488,-1
 4301 -672 l 5,489,-1
 4301 -672 l 5,490,-1
 4299 -672 l 5,491,-1
 4299 -672 l 5,492,-1
 4299 -670 l 5,493,-1
 4299 -668 l 5,494,-1
 4297 -668 l 5,495,-1
 4295 -668 l 5,496,-1
 4295 -666 l 5,497,-1
 4295 -664 l 5,498,-1
 4293 -664 l 5,499,-1
 4289 -664 l 5,500,-1
 4289 -668 l 5,501,-1
 4289 -670 l 5,502,-1
 4287 -670 l 5,503,-1
 4287 -670 l 5,504,-1
 4287 -672 l 5,505,-1
 4287 -672 l 5,506,-1
 4289 -672 l 5,507,-1
 4291 -672 l 5,508,-1
 4291 -676 l 5,509,-1
 4291 -678 l 5,510,-1
 4287 -678 l 5,511,-1
 4283 -678 l 5,512,-1
 4283 -676 l 5,513,-1
 4283 -676 l 5,514,-1
 4283 -676 l 5,515,-1
 4281 -676 l 5,516,-1
 4281 -676 l 5,517,-1
 4281 -678 l 5,518,-1
 4279 -678 l 5,519,-1
 4279 -678 l 5,520,-1
 4279 -680 l 5,521,-1
 4279 -680 l 5,522,-1
 4277 -680 l 5,523,-1
 4275 -680 l 5,524,-1
 4275 -682 l 5,525,-1
 4275 -682 l 5,526,-1
 4273 -682 l 5,527,-1
 4269 -682 l 5,528,-1
 4269 -682 l 5,529,-1
 4269 -680 l 5,530,-1
 4267 -680 l 5,531,-1
 4267 -680 l 5,532,-1
 4267 -682 l 5,533,-1
 4267 -682 l 5,534,-1
 4261 -682 l 5,535,-1
 4255 -682 l 5,536,-1
 4255 -686 l 5,537,-1
 4255 -688 l 5,538,-1
 4257 -688 l 5,539,-1
 4259 -688 l 5,540,-1
 4259 -686 l 5,541,-1
 4259 -686 l 5,542,-1
 4259 -686 l 5,543,-1
 4263 -686 l 5,544,-1
 4263 -690 l 5,545,-1
 4263 -690 l 5,546,-1
 4263 -690 l 5,547,-1
 4261 -690 l 5,548,-1
 4261 -688 l 5,549,-1
 4261 -688 l 5,550,-1
 4261 -688 l 5,551,-1
 4259 -688 l 5,552,-1
 4259 -690 l 5,553,-1
 4259 -692 l 5,554,-1
 4257 -692 l 5,555,-1
 4255 -692 l 5,556,-1
 4255 -694 l 5,557,-1
 4255 -696 l 5,558,-1
 4257 -696 l 5,559,-1
 4259 -696 l 5,560,-1
 4259 -698 l 5,561,-1
 4259 -700 l 5,562,-1
 4257 -700 l 5,563,-1
 4255 -700 l 5,564,-1
 4255 -698 l 5,565,-1
 4255 -696 l 5,566,-1
 4255 -696 l 5,567,-1
 4255 -696 l 5,568,-1
 4255 -692 l 5,569,-1
 4255 -688 l 5,570,-1
 4253 -688 l 5,571,-1
 4251 -688 l 5,572,-1
 4251 -688 l 5,573,-1
 4251 -690 l 5,574,-1
 4249 -690 l 5,575,-1
 4249 -690 l 5,576,-1
 4249 -696 l 5,577,-1
 4249 -702 l 5,578,-1
 4247 -702 l 5,579,-1
 4247 -702 l 5,580,-1
 4247 -700 l 5,581,-1
 4247 -698 l 5,582,-1
 4241 -698 l 5,583,-1
 4237 -698 l 5,584,-1
 4237 -700 l 5,585,-1
 4237 -700 l 5,586,-1
 4233 -700 l 5,587,-1
 4231 -700 l 5,588,-1
 4231 -702 l 5,589,-1
 4231 -702 l 5,590,-1
 4229 -702 l 5,591,-1
 4227 -702 l 5,592,-1
 4227 -702 l 5,593,-1
 4227 -700 l 5,594,-1
 4223 -700 l 5,595,-1
 4219 -700 l 5,596,-1
 4219 -700 l 5,597,-1
 4219 -698 l 5,598,-1
 4217 -698 l 5,599,-1
 4215 -698 l 5,600,-1
 4215 -696 l 5,601,-1
 4215 -696 l 5,602,-1
 4215 -696 l 5,603,-1
 4215 -696 l 5,604,-1
 4215 -692 l 5,605,-1
 4215 -690 l 5,606,-1
 4213 -690 l 5,607,-1
 4211 -690 l 5,608,-1
 4211 -692 l 5,609,-1
 4211 -692 l 5,610,-1
 4211 -692 l 5,611,-1
 4209 -692 l 5,612,-1
 4209 -694 l 5,613,-1
 4209 -696 l 5,614,-1
 4207 -696 l 5,615,-1
 4207 -696 l 5,616,-1
 4207 -696 l 5,617,-1
 4207 -698 l 5,618,-1
 4203 -698 l 5,619,-1
 4199 -698 l 5,620,-1
 4199 -700 l 5,621,-1
 4199 -700 l 5,622,-1
 4211 -700 l 5,623,-1
 4211 -702 l 5,624,-1
 4211 -702 l 5,625,-1
 4213 -702 l 5,626,-1
 4215 -702 l 5,627,-1
 4215 -704 l 5,628,-1
 4215 -706 l 5,629,-1
 4213 -706 l 5,630,-1
 4211 -706 l 5,631,-1
 4211 -706 l 5,632,-1
 4211 -708 l 5,633,-1
 4209 -708 l 5,634,-1
 4207 -708 l 5,635,-1
 4207 -706 l 5,636,-1
 4207 -706 l 5,637,-1
 4209 -706 l 5,638,-1
 4211 -706 l 5,639,-1
 4211 -704 l 5,640,-1
 4211 -702 l 5,641,-1
 4207 -702 l 5,642,-1
 4203 -702 l 5,643,-1
 4203 -704 l 5,644,-1
 4203 -706 l 5,645,-1
 4203 -706 l 5,646,-1
 4201 -706 l 5,647,-1
 4201 -704 l 5,648,-1
 4201 -702 l 5,649,-1
 4199 -702 l 5,650,-1
 4197 -702 l 5,651,-1
 4197 -704 l 5,652,-1
 4197 -706 l 5,653,-1
 4195 -706 l 5,654,-1
 4195 -706 l 5,655,-1
 4195 -704 l 5,656,-1
 4195 -702 l 5,657,-1
 4193 -702 l 5,658,-1
 4191 -702 l 5,659,-1
 4191 -704 l 5,660,-1
 4191 -706 l 5,661,-1
 4189 -706 l 5,662,-1
 4189 -706 l 5,663,-1
 4189 -704 l 5,664,-1
 4189 -702 l 5,665,-1
 4187 -702 l 5,666,-1
 4187 -702 l 5,667,-1
 4187 -696 l 5,668,-1
 4187 -690 l 5,669,-1
 4183 -690 l 5,670,-1
 4181 -690 l 5,671,-1
 4181 -692 l 5,672,-1
 4181 -696 l 5,673,-1
 4183 -696 l 5,674,-1
 4183 -696 l 5,675,-1
 4183 -696 l 5,676,-1
 4183 -698 l 5,677,-1
 4181 -698 l 5,678,-1
 4179 -698 l 5,679,-1
 4179 -700 l 5,680,-1
 4179 -700 l 5,681,-1
 4181 -700 l 5,682,-1
 4183 -700 l 5,683,-1
 4183 -702 l 5,684,-1
 4183 -702 l 5,685,-1
 4185 -702 l 5,686,-1
 4187 -702 l 5,687,-1
 4187 -704 l 5,688,-1
 4187 -706 l 5,689,-1
 4183 -706 l 5,690,-1
 4181 -706 l 5,691,-1
 4181 -704 l 5,692,-1
 4181 -702 l 5,693,-1
 4179 -702 l 5,694,-1
 4177 -702 l 5,695,-1
 4177 -700 l 5,696,-1
 4177 -698 l 5,697,-1
 4175 -698 l 5,698,-1
 4171 -698 l 5,699,-1
 4171 -700 l 5,700,-1
 4171 -700 l 5,701,-1
 4171 -700 l 5,702,-1
 4169 -700 l 5,703,-1
 4169 -702 l 5,704,-1
 4169 -702 l 5,705,-1
 4167 -702 l 5,706,-1
 4167 -702 l 5,707,-1
 4167 -704 l 5,708,-1
 4167 -706 l 5,709,-1
 4165 -706 l 5,710,-1
 4165 -706 l 5,711,-1
 4165 -704 l 5,712,-1
 4165 -702 l 5,713,-1
 4163 -702 l 5,714,-1
 4161 -702 l 5,715,-1
 4161 -706 l 5,716,-1
 4161 -708 l 5,717,-1
 4161 -708 l 5,718,-1
 4159 -708 l 5,719,-1
 4159 -706 l 5,8,-1
4153 -700 m 5,720,-1
 4153 -698 l 5,721,-1
 4155 -698 l 5,722,-1
 4157 -698 l 5,723,-1
 4157 -696 l 5,724,-1
 4157 -696 l 5,725,-1
 4157 -696 l 5,726,-1
 4159 -696 l 5,727,-1
 4159 -692 l 5,728,-1
 4159 -690 l 5,729,-1
 4157 -690 l 5,730,-1
 4157 -690 l 5,731,-1
 4157 -692 l 5,732,-1
 4157 -692 l 5,733,-1
 4155 -692 l 5,734,-1
 4153 -692 l 5,735,-1
 4153 -694 l 5,736,-1
 4153 -696 l 5,737,-1
 4153 -696 l 5,738,-1
 4151 -696 l 5,739,-1
 4151 -698 l 5,740,-1
 4151 -700 l 5,741,-1
 4153 -700 l 5,742,-1
 4153 -700 l 5,720,-1
4195 -700 m 5,743,-1
 4195 -698 l 5,744,-1
 4193 -698 l 5,745,-1
 4191 -698 l 5,746,-1
 4191 -700 l 5,747,-1
 4191 -700 l 5,748,-1
 4193 -700 l 5,749,-1
 4195 -700 l 5,750,-1
 4195 -700 l 5,743,-1
4237 -696 m 5,751,-1
 4237 -696 l 5,752,-1
 4233 -696 l 5,753,-1
 4231 -696 l 5,754,-1
 4231 -696 l 5,755,-1
 4231 -698 l 5,756,-1
 4233 -698 l 5,757,-1
 4237 -698 l 5,758,-1
 4237 -696 l 5,751,-1
4201 -694 m 5,759,-1
 4201 -692 l 5,760,-1
 4201 -692 l 5,761,-1
 4199 -692 l 5,762,-1
 4199 -694 l 5,763,-1
 4199 -696 l 5,764,-1
 4201 -696 l 5,765,-1
 4201 -696 l 5,766,-1
 4201 -694 l 5,759,-1
4221 -694 m 5,767,-1
 4221 -692 l 5,768,-1
 4221 -692 l 5,769,-1
 4219 -692 l 5,770,-1
 4219 -694 l 5,771,-1
 4219 -696 l 5,772,-1
 4221 -696 l 5,773,-1
 4221 -696 l 5,774,-1
 4221 -694 l 5,767,-1
4243 -692 m 5,775,-1
 4243 -688 l 5,776,-1
 4243 -688 l 5,777,-1
 4241 -688 l 5,778,-1
 4241 -692 l 5,779,-1
 4241 -696 l 5,780,-1
 4243 -696 l 5,781,-1
 4243 -696 l 5,782,-1
 4243 -692 l 5,775,-1
4211 -688 m 5,783,-1
 4211 -688 l 5,784,-1
 4211 -688 l 5,785,-1
 4209 -688 l 5,786,-1
 4209 -688 l 5,787,-1
 4209 -690 l 5,788,-1
 4211 -690 l 5,789,-1
 4211 -690 l 5,790,-1
 4211 -688 l 5,783,-1
4231 -682 m 5,791,-1
 4231 -680 l 5,792,-1
 4229 -680 l 5,793,-1
 4229 -680 l 5,794,-1
 4229 -682 l 5,795,-1
 4229 -682 l 5,796,-1
 4229 -682 l 5,797,-1
 4231 -682 l 5,798,-1
 4231 -682 l 5,791,-1
4187 -676 m 5,799,-1
 4187 -676 l 5,800,-1
 4191 -676 l 5,801,-1
 4195 -676 l 5,802,-1
 4195 -676 l 5,803,-1
 4195 -678 l 5,804,-1
 4201 -678 l 5,805,-1
 4209 -678 l 5,806,-1
 4209 -676 l 5,807,-1
 4209 -676 l 5,808,-1
 4211 -676 l 5,809,-1
 4215 -676 l 5,810,-1
 4215 -676 l 5,811,-1
 4215 -678 l 5,812,-1
 4219 -678 l 5,813,-1
 4223 -678 l 5,814,-1
 4223 -676 l 5,815,-1
 4223 -676 l 5,816,-1
 4225 -676 l 5,817,-1
 4229 -676 l 5,818,-1
 4229 -672 l 5,819,-1
 4229 -670 l 5,820,-1
 4227 -670 l 5,821,-1
 4227 -672 l 5,822,-1
 4225 -672 l 5,823,-1
 4221 -672 l 5,824,-1
 4221 -672 l 5,825,-1
 4221 -670 l 5,826,-1
 4221 -670 l 5,827,-1
 4219 -670 l 5,828,-1
 4219 -672 l 5,829,-1
 4219 -672 l 5,830,-1
 4211 -672 l 5,831,-1
 4203 -672 l 5,832,-1
 4203 -672 l 5,833,-1
 4203 -670 l 5,834,-1
 4205 -670 l 5,835,-1
 4207 -670 l 5,836,-1
 4207 -670 l 5,837,-1
 4207 -668 l 5,838,-1
 4209 -668 l 5,839,-1
 4211 -668 l 5,840,-1
 4211 -670 l 5,841,-1
 4211 -670 l 5,842,-1
 4213 -670 l 5,843,-1
 4215 -670 l 5,844,-1
 4215 -668 l 5,845,-1
 4215 -664 l 5,846,-1
 4217 -664 l 5,847,-1
 4219 -664 l 5,848,-1
 4219 -664 l 5,849,-1
 4219 -664 l 5,850,-1
 4221 -664 l 5,851,-1
 4223 -664 l 5,852,-1
 4223 -662 l 5,853,-1
 4223 -660 l 5,854,-1
 4225 -660 l 5,855,-1
 4227 -660 l 5,856,-1
 4227 -662 l 5,857,-1
 4227 -664 l 5,858,-1
 4227 -664 l 5,859,-1
 4229 -664 l 5,860,-1
 4229 -666 l 5,861,-1
 4229 -668 l 5,862,-1
 4229 -668 l 5,863,-1
 4231 -668 l 5,864,-1
 4231 -666 l 5,865,-1
 4231 -664 l 5,866,-1
 4229 -664 l 5,867,-1
 4229 -664 l 5,868,-1
 4229 -662 l 5,869,-1
 4229 -660 l 5,870,-1
 4231 -660 l 5,871,-1
 4235 -660 l 5,872,-1
 4235 -662 l 5,873,-1
 4235 -664 l 5,874,-1
 4237 -664 l 5,875,-1
 4237 -664 l 5,876,-1
 4237 -664 l 5,877,-1
 4239 -664 l 5,878,-1
 4239 -662 l 5,879,-1
 4239 -660 l 5,880,-1
 4241 -660 l 5,881,-1
 4243 -660 l 5,882,-1
 4243 -660 l 5,883,-1
 4243 -658 l 5,884,-1
 4245 -658 l 5,885,-1
 4247 -658 l 5,886,-1
 4247 -656 l 5,887,-1
 4247 -656 l 5,888,-1
 4247 -656 l 5,889,-1
 4249 -656 l 5,890,-1
 4249 -652 l 5,891,-1
 4249 -650 l 5,892,-1
 4249 -650 l 5,893,-1
 4251 -650 l 5,894,-1
 4251 -652 l 5,895,-1
 4251 -656 l 5,896,-1
 4253 -656 l 5,897,-1
 4255 -656 l 5,898,-1
 4255 -654 l 5,899,-1
 4255 -652 l 5,900,-1
 4257 -652 l 5,901,-1
 4259 -652 l 5,902,-1
 4259 -652 l 5,903,-1
 4259 -650 l 5,904,-1
 4261 -650 l 5,905,-1
 4263 -650 l 5,906,-1
 4263 -648 l 5,907,-1
 4263 -646 l 5,908,-1
 4265 -646 l 5,909,-1
 4267 -646 l 5,910,-1
 4267 -648 l 5,911,-1
 4267 -650 l 5,912,-1
 4267 -650 l 5,913,-1
 4269 -650 l 5,914,-1
 4269 -648 l 5,915,-1
 4269 -646 l 5,916,-1
 4271 -646 l 5,917,-1
 4273 -646 l 5,918,-1
 4273 -644 l 5,919,-1
 4273 -644 l 5,920,-1
 4277 -644 l 5,921,-1
 4281 -644 l 5,922,-1
 4281 -642 l 5,923,-1
 4281 -640 l 5,924,-1
 4279 -640 l 5,925,-1
 4279 -640 l 5,926,-1
 4279 -638 l 5,927,-1
 4279 -638 l 5,928,-1
 4273 -638 l 5,929,-1
 4269 -638 l 5,930,-1
 4269 -636 l 5,931,-1
 4269 -636 l 5,932,-1
 4273 -636 l 5,933,-1
 4275 -636 l 5,934,-1
 4275 -634 l 5,935,-1
 4275 -632 l 5,936,-1
 4273 -632 l 5,937,-1
 4271 -632 l 5,938,-1
 4271 -632 l 5,939,-1
 4271 -630 l 5,940,-1
 4273 -630 l 5,941,-1
 4273 -630 l 5,942,-1
 4273 -630 l 5,943,-1
 4273 -628 l 5,944,-1
 4271 -628 l 5,945,-1
 4267 -628 l 5,946,-1
 4267 -622 l 5,947,-1
 4267 -618 l 5,948,-1
 4263 -618 l 5,949,-1
 4261 -618 l 5,950,-1
 4261 -616 l 5,951,-1
 4261 -616 l 5,952,-1
 4261 -616 l 5,953,-1
 4259 -616 l 5,954,-1
 4259 -614 l 5,955,-1
 4259 -612 l 5,956,-1
 4257 -612 l 5,957,-1
 4255 -612 l 5,958,-1
 4255 -608 l 5,959,-1
 4253 -608 l 5,960,-1
 4251 -608 l 5,961,-1
 4251 -610 l 5,962,-1
 4251 -610 l 5,963,-1
 4249 -610 l 5,964,-1
 4249 -610 l 5,965,-1
 4249 -608 l 5,966,-1
 4249 -606 l 5,967,-1
 4247 -606 l 5,968,-1
 4245 -606 l 5,969,-1
 4241 -606 l 5,970,-1
 4241 -600 l 5,971,-1
 4237 -600 l 5,972,-1
 4235 -600 l 5,973,-1
 4235 -598 l 5,974,-1
 4235 -598 l 5,975,-1
 4231 -598 l 5,976,-1
 4229 -598 l 5,977,-1
 4229 -596 l 5,978,-1
 4229 -596 l 5,979,-1
 4223 -596 l 5,980,-1
 4219 -596 l 5,981,-1
 4219 -592 l 5,982,-1
 4219 -590 l 5,983,-1
 4217 -590 l 5,984,-1
 4215 -590 l 5,985,-1
 4215 -592 l 5,986,-1
 4215 -592 l 5,987,-1
 4207 -592 l 5,988,-1
 4199 -592 l 5,989,-1
 4199 -592 l 5,990,-1
 4199 -590 l 5,991,-1
 4193 -590 l 5,992,-1
 4187 -590 l 5,993,-1
 4187 -592 l 5,994,-1
 4187 -596 l 5,995,-1
 4185 -596 l 5,996,-1
 4183 -596 l 5,997,-1
 4183 -594 l 5,998,-1
 4183 -592 l 5,999,-1
 4179 -592 l 5,1000,-1
 4177 -592 l 5,1001,-1
 4177 -594 l 5,1002,-1
 4177 -596 l 5,1003,-1
 4175 -596 l 5,1004,-1
 4171 -596 l 5,1005,-1
 4171 -596 l 5,1006,-1
 4171 -598 l 5,1007,-1
 4171 -598 l 5,1008,-1
 4169 -598 l 5,1009,-1
 4169 -596 l 5,1010,-1
 4167 -596 l 5,1011,-1
 4167 -596 l 5,1012,-1
 4167 -598 l 5,1013,-1
 4167 -600 l 5,1014,-1
 4165 -600 l 5,1015,-1
 4161 -600 l 5,1016,-1
 4161 -602 l 5,1017,-1
 4161 -604 l 5,1018,-1
 4159 -604 l 5,1019,-1
 4157 -604 l 5,1020,-1
 4157 -604 l 5,1021,-1
 4157 -606 l 5,1022,-1
 4155 -606 l 5,1023,-1
 4153 -606 l 5,1024,-1
 4153 -606 l 5,1025,-1
 4153 -608 l 5,1026,-1
 4151 -608 l 5,1027,-1
 4149 -608 l 5,1028,-1
 4149 -610 l 5,1029,-1
 4149 -612 l 5,1030,-1
 4147 -612 l 5,1031,-1
 4147 -612 l 5,1032,-1
 4147 -616 l 5,1033,-1
 4147 -618 l 5,1034,-1
 4143 -618 l 5,1035,-1
 4141 -618 l 5,1036,-1
 4141 -622 l 5,1037,-1
 4141 -624 l 5,1038,-1
 4141 -624 l 5,1039,-1
 4139 -624 l 5,1040,-1
 4139 -626 l 5,1041,-1
 4139 -628 l 5,1042,-1
 4141 -628 l 5,1043,-1
 4141 -628 l 5,1044,-1
 4141 -632 l 5,1045,-1
 4141 -636 l 5,1046,-1
 4143 -636 l 5,1047,-1
 4143 -636 l 5,1048,-1
 4143 -636 l 5,1049,-1
 4143 -638 l 5,1050,-1
 4143 -638 l 5,1051,-1
 4141 -638 l 5,1052,-1
 4141 -638 l 5,1053,-1
 4141 -640 l 5,1054,-1
 4143 -640 l 5,1055,-1
 4143 -640 l 5,1056,-1
 4143 -644 l 5,1057,-1
 4143 -648 l 5,1058,-1
 4145 -648 l 5,1059,-1
 4147 -648 l 5,1060,-1
 4147 -652 l 5,1061,-1
 4151 -652 l 5,1062,-1
 4151 -654 l 5,1063,-1
 4151 -656 l 5,1064,-1
 4153 -656 l 5,1065,-1
 4153 -656 l 5,1066,-1
 4153 -656 l 5,1067,-1
 4153 -658 l 5,1068,-1
 4159 -658 l 5,1069,-1
 4165 -658 l 5,1070,-1
 4165 -660 l 5,1071,-1
 4165 -660 l 5,1072,-1
 4163 -660 l 5,1073,-1
 4161 -660 l 5,1074,-1
 4161 -662 l 5,1075,-1
 4161 -664 l 5,1076,-1
 4163 -664 l 5,1077,-1
 4165 -664 l 5,1078,-1
 4165 -664 l 5,1079,-1
 4165 -664 l 5,1080,-1
 4171 -664 l 5,1081,-1
 4177 -664 l 5,1082,-1
 4177 -666 l 5,1083,-1
 4177 -668 l 5,1084,-1
 4177 -668 l 5,1085,-1
 4179 -668 l 5,1086,-1
 4179 -670 l 5,1087,-1
 4179 -672 l 5,1088,-1
 4177 -672 l 5,1089,-1
 4177 -672 l 5,1090,-1
 4177 -670 l 5,1091,-1
 4177 -668 l 5,1092,-1
 4173 -668 l 5,1093,-1
 4169 -668 l 5,1094,-1
 4169 -670 l 5,1095,-1
 4169 -670 l 5,1096,-1
 4171 -670 l 5,1097,-1
 4171 -670 l 5,1098,-1
 4171 -672 l 5,1099,-1
 4171 -672 l 5,1100,-1
 4175 -672 l 5,1101,-1
 4177 -672 l 5,1102,-1
 4177 -674 l 5,1103,-1
 4177 -676 l 5,1104,-1
 4179 -676 l 5,1105,-1
 4183 -676 l 5,1106,-1
 4183 -676 l 5,1107,-1
 4183 -678 l 5,1108,-1
 4185 -678 l 5,1109,-1
 4187 -678 l 5,1110,-1
 4187 -676 l 5,799,-1
4183 -672 m 5,1111,-1
 4183 -670 l 5,1112,-1
 4183 -670 l 5,1113,-1
 4181 -670 l 5,1114,-1
 4181 -666 l 5,1115,-1
 4181 -664 l 5,1116,-1
 4179 -664 l 5,1117,-1
 4179 -664 l 5,1118,-1
 4179 -662 l 5,1119,-1
 4179 -660 l 5,1120,-1
 4177 -660 l 5,1121,-1
 4175 -660 l 5,1122,-1
 4175 -660 l 5,1123,-1
 4175 -658 l 5,1124,-1
 4173 -658 l 5,1125,-1
 4171 -658 l 5,1126,-1
 4171 -656 l 5,1127,-1
 4171 -656 l 5,1128,-1
 4171 -656 l 5,1129,-1
 4169 -656 l 5,1130,-1
 4169 -654 l 5,1131,-1
 4169 -652 l 5,1132,-1
 4167 -652 l 5,1133,-1
 4167 -652 l 5,1134,-1
 4167 -650 l 5,1135,-1
 4167 -648 l 5,1136,-1
 4165 -648 l 5,1137,-1
 4165 -648 l 5,1138,-1
 4165 -646 l 5,1139,-1
 4165 -644 l 5,1140,-1
 4163 -644 l 5,1141,-1
 4161 -644 l 5,1142,-1
 4161 -640 l 5,1143,-1
 4161 -636 l 5,1144,-1
 4161 -636 l 5,1145,-1
 4159 -636 l 5,1146,-1
 4159 -634 l 5,1147,-1
 4159 -632 l 5,1148,-1
 4161 -632 l 5,1149,-1
 4161 -632 l 5,1150,-1
 4161 -626 l 5,1151,-1
 4161 -620 l 5,1152,-1
 4163 -620 l 5,1153,-1
 4165 -620 l 5,1154,-1
 4165 -618 l 5,1155,-1
 4165 -616 l 5,1156,-1
 4165 -616 l 5,1157,-1
 4167 -616 l 5,1158,-1
 4167 -614 l 5,1159,-1
 4167 -610 l 5,1160,-1
 4167 -610 l 5,1161,-1
 4169 -610 l 5,1162,-1
 4169 -610 l 5,1163,-1
 4169 -608 l 5,1164,-1
 4171 -608 l 5,1165,-1
 4171 -608 l 5,1166,-1
 4171 -606 l 5,1167,-1
 4171 -604 l 5,1168,-1
 4175 -604 l 5,1169,-1
 4177 -604 l 5,1170,-1
 4177 -602 l 5,1171,-1
 4177 -600 l 5,1172,-1
 4181 -600 l 5,1173,-1
 4187 -600 l 5,1174,-1
 4187 -598 l 5,1175,-1
 4187 -598 l 5,1176,-1
 4193 -598 l 5,1177,-1
 4201 -598 l 5,1178,-1
 4201 -598 l 5,1179,-1
 4201 -600 l 5,1180,-1
 4203 -600 l 5,1181,-1
 4207 -600 l 5,1182,-1
 4207 -602 l 5,1183,-1
 4207 -604 l 5,1184,-1
 4209 -604 l 5,1185,-1
 4211 -604 l 5,1186,-1
 4211 -604 l 5,1187,-1
 4211 -606 l 5,1188,-1
 4213 -606 l 5,1189,-1
 4215 -606 l 5,1190,-1
 4215 -606 l 5,1191,-1
 4215 -608 l 5,1192,-1
 4215 -608 l 5,1193,-1
 4215 -608 l 5,1194,-1
 4215 -610 l 5,1195,-1
 4215 -610 l 5,1196,-1
 4217 -610 l 5,1197,-1
 4219 -610 l 5,1198,-1
 4219 -614 l 5,1199,-1
 4219 -616 l 5,1200,-1
 4215 -616 l 5,1201,-1
 4209 -616 l 5,1202,-1
 4207 -616 l 5,1203,-1
 4207 -620 l 5,1204,-1
 4207 -620 l 5,1205,-1
 4205 -620 l 5,1206,-1
 4203 -620 l 5,1207,-1
 4203 -624 l 5,1208,-1
 4203 -628 l 5,1209,-1
 4205 -628 l 5,1210,-1
 4207 -628 l 5,1211,-1
 4207 -630 l 5,1212,-1
 4207 -630 l 5,1213,-1
 4211 -630 l 5,1214,-1
 4215 -630 l 5,1215,-1
 4215 -630 l 5,1216,-1
 4215 -628 l 5,1217,-1
 4217 -628 l 5,1218,-1
 4219 -628 l 5,1219,-1
 4219 -626 l 5,1220,-1
 4219 -624 l 5,1221,-1
 4221 -624 l 5,1222,-1
 4221 -624 l 5,1223,-1
 4221 -622 l 5,1224,-1
 4221 -620 l 5,1225,-1
 4223 -620 l 5,1226,-1
 4223 -620 l 5,1227,-1
 4223 -622 l 5,1228,-1
 4223 -624 l 5,1229,-1
 4225 -624 l 5,1230,-1
 4227 -624 l 5,1231,-1
 4227 -632 l 5,1232,-1
 4227 -638 l 5,1233,-1
 4225 -638 l 5,1234,-1
 4223 -638 l 5,1235,-1
 4223 -642 l 5,1236,-1
 4223 -646 l 5,1237,-1
 4223 -646 l 5,1238,-1
 4221 -646 l 5,1239,-1
 4221 -648 l 5,1240,-1
 4221 -650 l 5,1241,-1
 4221 -650 l 5,1242,-1
 4219 -650 l 5,1243,-1
 4219 -652 l 5,1244,-1
 4219 -656 l 5,1245,-1
 4217 -656 l 5,1246,-1
 4215 -656 l 5,1247,-1
 4215 -660 l 5,1248,-1
 4211 -660 l 5,1249,-1
 4211 -662 l 5,1250,-1
 4211 -664 l 5,1251,-1
 4207 -664 l 5,1252,-1
 4201 -664 l 5,1253,-1
 4201 -666 l 5,1254,-1
 4201 -668 l 5,1255,-1
 4201 -668 l 5,1256,-1
 4199 -668 l 5,1257,-1
 4199 -666 l 5,1258,-1
 4199 -664 l 5,1259,-1
 4193 -664 l 5,1260,-1
 4187 -664 l 5,1261,-1
 4187 -666 l 5,1262,-1
 4187 -668 l 5,1263,-1
 4185 -668 l 5,1264,-1
 4183 -668 l 5,1265,-1
 4183 -670 l 5,1266,-1
 4183 -670 l 5,1267,-1
 4185 -670 l 5,1268,-1
 4187 -670 l 5,1269,-1
 4187 -670 l 5,1270,-1
 4187 -668 l 5,1271,-1
 4189 -668 l 5,1272,-1
 4191 -668 l 5,1273,-1
 4191 -670 l 5,1274,-1
 4191 -670 l 5,1275,-1
 4189 -670 l 5,1276,-1
 4189 -670 l 5,1277,-1
 4189 -672 l 5,1278,-1
 4189 -672 l 5,1279,-1
 4187 -672 l 5,1280,-1
 4183 -672 l 5,1281,-1
 4183 -672 l 5,1111,-1
4197 -672 m 5,1282,-1
 4197 -670 l 5,1283,-1
 4197 -670 l 5,1284,-1
 4199 -670 l 5,1285,-1
 4199 -672 l 5,1286,-1
 4199 -672 l 5,1287,-1
 4197 -672 l 5,1288,-1
 4197 -672 l 5,1289,-1
 4197 -672 l 5,1282,-1
4237 -674 m 5,1290,-1
 4237 -672 l 5,1291,-1
 4233 -672 l 5,1292,-1
 4231 -672 l 5,1293,-1
 4231 -674 l 5,1294,-1
 4231 -676 l 5,1295,-1
 4233 -676 l 5,1296,-1
 4237 -676 l 5,1297,-1
 4237 -674 l 5,1290,-1
4239 -670 m 5,1298,-1
 4239 -668 l 5,1299,-1
 4237 -668 l 5,1300,-1
 4237 -668 l 5,1301,-1
 4237 -670 l 5,1302,-1
 4237 -670 l 5,1303,-1
 4237 -670 l 5,1304,-1
 4239 -670 l 5,1305,-1
 4239 -670 l 5,1298,-1
4281 -670 m 5,1306,-1
 4281 -668 l 5,1307,-1
 4279 -668 l 5,1308,-1
 4279 -668 l 5,1309,-1
 4279 -670 l 5,1310,-1
 4279 -670 l 5,1311,-1
 4279 -670 l 5,1312,-1
 4281 -670 l 5,1313,-1
 4281 -670 l 5,1306,-1
4255 -666 m 5,1314,-1
 4255 -664 l 5,1315,-1
 4257 -664 l 5,1316,-1
 4259 -664 l 5,1317,-1
 4259 -664 l 5,1318,-1
 4259 -664 l 5,1319,-1
 4255 -664 l 5,1320,-1
 4255 -668 l 5,1321,-1
 4255 -668 l 5,1322,-1
 4255 -668 l 5,1323,-1
 4255 -666 l 5,1314,-1
4269 -664 m 5,1324,-1
 4269 -664 l 5,1325,-1
 4267 -664 l 5,1326,-1
 4263 -664 l 5,1327,-1
 4263 -664 l 5,1328,-1
 4263 -664 l 5,1329,-1
 4267 -664 l 5,1330,-1
 4269 -664 l 5,1331,-1
 4269 -664 l 5,1324,-1
4303 -664 m 5,1332,-1
 4303 -664 l 5,1333,-1
 4301 -664 l 5,1334,-1
 4299 -664 l 5,1335,-1
 4299 -664 l 5,1336,-1
 4299 -664 l 5,1337,-1
 4301 -664 l 5,1338,-1
 4303 -664 l 5,1339,-1
 4303 -664 l 5,1332,-1
4295 -658 m 5,1340,-1
 4291 -658 l 5,1341,-1
 4291 -660 l 5,1342,-1
 4291 -664 l 5,1343,-1
 4293 -664 l 5,1344,-1
 4295 -664 l 5,1345,-1
 4295 -658 l 5,1340,-1
4273 -660 m 5,1346,-1
 4273 -658 l 5,1347,-1
 4271 -658 l 5,1348,-1
 4269 -658 l 5,1349,-1
 4269 -660 l 5,1350,-1
 4269 -660 l 5,1351,-1
 4271 -660 l 5,1352,-1
 4273 -660 l 5,1353,-1
 4273 -660 l 5,1346,-1
4281 -658 m 5,1354,-1
 4281 -656 l 5,1355,-1
 4279 -656 l 5,1356,-1
 4279 -656 l 5,1357,-1
 4279 -654 l 5,1358,-1
 4279 -652 l 5,1359,-1
 4281 -652 l 5,1360,-1
 4283 -652 l 5,1361,-1
 4283 -656 l 5,1362,-1
 4283 -658 l 5,1363,-1
 4285 -658 l 5,1364,-1
 4287 -658 l 5,1365,-1
 4287 -656 l 5,1366,-1
 4287 -652 l 5,1367,-1
 4285 -652 l 5,1368,-1
 4283 -652 l 5,1369,-1
 4283 -650 l 5,1370,-1
 4283 -648 l 5,1371,-1
 4285 -648 l 5,1372,-1
 4287 -648 l 5,1373,-1
 4287 -646 l 5,1374,-1
 4287 -646 l 5,1375,-1
 4283 -646 l 5,1376,-1
 4279 -646 l 5,1377,-1
 4279 -646 l 5,1378,-1
 4279 -648 l 5,1379,-1
 4279 -648 l 5,1380,-1
 4281 -648 l 5,1381,-1
 4281 -650 l 5,1382,-1
 4281 -650 l 5,1383,-1
 4279 -650 l 5,1384,-1
 4279 -650 l 5,1385,-1
 4279 -652 l 5,1386,-1
 4279 -652 l 5,1387,-1
 4277 -652 l 5,1388,-1
 4275 -652 l 5,1389,-1
 4275 -652 l 5,1390,-1
 4275 -650 l 5,1391,-1
 4273 -650 l 5,1392,-1
 4271 -650 l 5,1393,-1
 4271 -652 l 5,1394,-1
 4271 -652 l 5,1395,-1
 4273 -652 l 5,1396,-1
 4275 -652 l 5,1397,-1
 4275 -656 l 5,1398,-1
 4275 -660 l 5,1399,-1
 4279 -660 l 5,1400,-1
 4281 -660 l 5,1401,-1
 4281 -658 l 5,1354,-1
4261 -654 m 5,1402,-1
 4261 -652 l 5,1403,-1
 4261 -652 l 5,1404,-1
 4259 -652 l 5,1405,-1
 4259 -654 l 5,1406,-1
 4259 -656 l 5,1407,-1
 4261 -656 l 5,1408,-1
 4261 -656 l 5,1409,-1
 4261 -654 l 5,1402,-1
4293 -652 m 5,1410,-1
 4293 -650 l 5,1411,-1
 4293 -650 l 5,1412,-1
 4291 -650 l 5,1413,-1
 4291 -652 l 5,1414,-1
 4291 -656 l 5,1415,-1
 4293 -656 l 5,1416,-1
 4293 -656 l 5,1417,-1
 4293 -652 l 5,1410,-1
4309 -650 m 5,1418,-1
 4309 -648 l 5,1419,-1
 4307 -648 l 5,1420,-1
 4303 -648 l 5,1421,-1
 4303 -650 l 5,1422,-1
 4303 -650 l 5,1423,-1
 4307 -650 l 5,1424,-1
 4309 -650 l 5,1425,-1
 4309 -650 l 5,1418,-1
4139 -642 m 5,1426,-1
 4139 -640 l 5,1427,-1
 4139 -640 l 5,1428,-1
 4137 -640 l 5,1429,-1
 4137 -642 l 5,1430,-1
 4137 -644 l 5,1431,-1
 4139 -644 l 5,1432,-1
 4139 -644 l 5,1433,-1
 4139 -642 l 5,1426,-1
4329 -638 m 5,1434,-1
 4329 -636 l 5,1435,-1
 4327 -636 l 5,1436,-1
 4327 -636 l 5,1437,-1
 4327 -638 l 5,1438,-1
 4327 -640 l 5,1439,-1
 4327 -640 l 5,1440,-1
 4329 -640 l 5,1441,-1
 4329 -638 l 5,1434,-1
4307 -632 m 5,1442,-1
 4307 -630 l 5,1443,-1
 4303 -630 l 5,1444,-1
 4301 -630 l 5,1445,-1
 4301 -632 l 5,1446,-1
 4301 -632 l 5,1447,-1
 4303 -632 l 5,1448,-1
 4307 -632 l 5,1449,-1
 4307 -632 l 5,1442,-1
4287 -626 m 5,1450,-1
 4287 -624 l 5,1451,-1
 4285 -624 l 5,1452,-1
 4283 -624 l 5,1453,-1
 4283 -626 l 5,1454,-1
 4283 -628 l 5,1455,-1
 4285 -628 l 5,1456,-1
 4287 -628 l 5,1457,-1
 4287 -626 l 5,1450,-1
4301 -624 m 5,1458,-1
 4301 -624 l 5,1459,-1
 4299 -624 l 5,1460,-1
 4299 -624 l 5,1461,-1
 4299 -624 l 5,1462,-1
 4299 -624 l 5,1463,-1
 4299 -624 l 5,1464,-1
 4301 -624 l 5,1465,-1
 4301 -624 l 5,1458,-1
4311 -620 m 5,1466,-1
 4311 -618 l 5,1467,-1
 4307 -618 l 5,1468,-1
 4303 -618 l 5,1469,-1
 4303 -620 l 5,1470,-1
 4303 -620 l 5,1471,-1
 4307 -620 l 5,1472,-1
 4311 -620 l 5,1473,-1
 4311 -620 l 5,1466,-1
4293 -616 m 5,1474,-1
 4293 -616 l 5,1475,-1
 4293 -616 l 5,1476,-1
 4291 -616 l 5,1477,-1
 4291 -616 l 5,1478,-1
 4291 -618 l 5,1479,-1
 4293 -618 l 5,1480,-1
 4293 -618 l 5,1481,-1
 4293 -616 l 5,1474,-1
4269 -614 m 5,1482,-1
 4269 -612 l 5,1483,-1
 4271 -612 l 5,1484,-1
 4271 -612 l 5,1485,-1
 4271 -614 l 5,1486,-1
 4271 -616 l 5,1487,-1
 4273 -616 l 5,1488,-1
 4275 -616 l 5,1489,-1
 4275 -612 l 5,1490,-1
 4271 -612 l 5,1491,-1
 4271 -610 l 5,1492,-1
 4271 -608 l 5,1493,-1
 4271 -608 l 5,1494,-1
 4269 -608 l 5,1495,-1
 4269 -610 l 5,1496,-1
 4269 -610 l 5,1497,-1
 4267 -610 l 5,1498,-1
 4267 -610 l 5,1499,-1
 4267 -614 l 5,1500,-1
 4267 -616 l 5,1501,-1
 4267 -616 l 5,1502,-1
 4269 -616 l 5,1503,-1
 4269 -614 l 5,1482,-1
4299 -614 m 5,1504,-1
 4299 -612 l 5,1505,-1
 4299 -612 l 5,1506,-1
 4301 -612 l 5,1507,-1
 4301 -608 l 5,1508,-1
 4301 -606 l 5,1509,-1
 4299 -606 l 5,1510,-1
 4299 -606 l 5,1511,-1
 4299 -606 l 5,1512,-1
 4299 -608 l 5,1513,-1
 4297 -608 l 5,1514,-1
 4295 -608 l 5,1515,-1
 4295 -612 l 5,1516,-1
 4295 -616 l 5,1517,-1
 4297 -616 l 5,1518,-1
 4299 -616 l 5,1519,-1
 4299 -614 l 5,1504,-1
4263 -610 m 5,1520,-1
 4263 -608 l 5,1521,-1
 4265 -608 l 5,1522,-1
 4267 -608 l 5,1523,-1
 4267 -606 l 5,1524,-1
 4267 -606 l 5,1525,-1
 4263 -606 l 5,1526,-1
 4263 -600 l 5,1527,-1
 4261 -600 l 5,1528,-1
 4259 -600 l 5,1529,-1
 4259 -598 l 5,1530,-1
 4259 -598 l 5,1531,-1
 4257 -598 l 5,1532,-1
 4255 -598 l 5,1533,-1
 4255 -598 l 5,1534,-1
 4255 -600 l 5,1535,-1
 4255 -600 l 5,1536,-1
 4255 -600 l 5,1537,-1
 4255 -598 l 5,1538,-1
 4255 -598 l 5,1539,-1
 4251 -598 l 5,1540,-1
 4247 -598 l 5,1541,-1
 4247 -598 l 5,1542,-1
 4247 -600 l 5,1543,-1
 4249 -600 l 5,1544,-1
 4251 -600 l 5,1545,-1
 4251 -602 l 5,1546,-1
 4251 -604 l 5,1547,-1
 4253 -604 l 5,1548,-1
 4255 -604 l 5,1549,-1
 4255 -604 l 5,1550,-1
 4255 -606 l 5,1551,-1
 4257 -606 l 5,1552,-1
 4259 -606 l 5,1553,-1
 4259 -608 l 5,1554,-1
 4259 -610 l 5,1555,-1
 4261 -610 l 5,1556,-1
 4263 -610 l 5,1557,-1
 4263 -610 l 5,1520,-1
4289 -610 m 5,1558,-1
 4289 -608 l 5,1559,-1
 4287 -608 l 5,1560,-1
 4287 -608 l 5,1561,-1
 4287 -610 l 5,1562,-1
 4287 -610 l 5,1563,-1
 4287 -610 l 5,1564,-1
 4289 -610 l 5,1565,-1
 4289 -610 l 5,1558,-1
4307 -610 m 5,1566,-1
 4307 -608 l 5,1567,-1
 4305 -608 l 5,1568,-1
 4303 -608 l 5,1569,-1
 4303 -610 l 5,1570,-1
 4303 -610 l 5,1571,-1
 4305 -610 l 5,1572,-1
 4307 -610 l 5,1573,-1
 4307 -610 l 5,1566,-1
4281 -602 m 5,1574,-1
 4281 -600 l 5,1575,-1
 4279 -600 l 5,1576,-1
 4279 -600 l 5,1577,-1
 4279 -602 l 5,1578,-1
 4279 -604 l 5,1579,-1
 4279 -604 l 5,1580,-1
 4281 -604 l 5,1581,-1
 4281 -602 l 5,1574,-1
4275 -598 m 5,1582,-1
 4275 -598 l 5,1583,-1
 4275 -598 l 5,1584,-1
 4273 -598 l 5,1585,-1
 4273 -598 l 5,1586,-1
 4273 -600 l 5,1587,-1
 4275 -600 l 5,1588,-1
 4275 -600 l 5,1589,-1
 4275 -598 l 5,1582,-1
4241 -594 m 5,1590,-1
 4241 -592 l 5,1591,-1
 4243 -592 l 5,1592,-1
 4247 -592 l 5,1593,-1
 4247 -594 l 5,1594,-1
 4247 -596 l 5,1595,-1
 4247 -596 l 5,1596,-1
 4249 -596 l 5,1597,-1
 4249 -594 l 5,1598,-1
 4249 -592 l 5,1599,-1
 4247 -592 l 5,1600,-1
 4247 -592 l 5,1601,-1
 4247 -592 l 5,1602,-1
 4247 -590 l 5,1603,-1
 4243 -590 l 5,1604,-1
 4241 -590 l 5,1605,-1
 4241 -588 l 5,1606,-1
 4241 -588 l 5,1607,-1
 4239 -588 l 5,1608,-1
 4237 -588 l 5,1609,-1
 4237 -586 l 5,1610,-1
 4237 -586 l 5,1611,-1
 4233 -586 l 5,1612,-1
 4231 -586 l 5,1613,-1
 4231 -584 l 5,1614,-1
 4231 -584 l 5,1615,-1
 4229 -584 l 5,1616,-1
 4229 -584 l 5,1617,-1
 4229 -584 l 5,1618,-1
 4229 -586 l 5,1619,-1
 4225 -586 l 5,1620,-1
 4221 -586 l 5,1621,-1
 4221 -584 l 5,1622,-1
 4221 -584 l 5,1623,-1
 4221 -584 l 5,1624,-1
 4219 -584 l 5,1625,-1
 4219 -586 l 5,1626,-1
 4219 -588 l 5,1627,-1
 4223 -588 l 5,1628,-1
 4227 -588 l 5,1629,-1
 4227 -588 l 5,1630,-1
 4227 -590 l 5,1631,-1
 4229 -590 l 5,1632,-1
 4231 -590 l 5,1633,-1
 4231 -592 l 5,1634,-1
 4231 -592 l 5,1635,-1
 4233 -592 l 5,1636,-1
 4235 -592 l 5,1637,-1
 4235 -592 l 5,1638,-1
 4235 -590 l 5,1639,-1
 4235 -590 l 5,1640,-1
 4237 -590 l 5,1641,-1
 4237 -592 l 5,1642,-1
 4237 -592 l 5,1643,-1
 4237 -592 l 5,1644,-1
 4239 -592 l 5,1645,-1
 4239 -594 l 5,1646,-1
 4239 -596 l 5,1647,-1
 4241 -596 l 5,1648,-1
 4241 -596 l 5,1649,-1
 4241 -594 l 5,1590,-1
4263 -592 m 5,1650,-1
 4263 -590 l 5,1651,-1
 4263 -590 l 5,1652,-1
 4261 -590 l 5,1653,-1
 4261 -592 l 5,1654,-1
 4261 -596 l 5,1655,-1
 4263 -596 l 5,1656,-1
 4263 -596 l 5,1657,-1
 4263 -592 l 5,1650,-1
4275 -594 m 5,1658,-1
 4275 -592 l 5,1659,-1
 4275 -592 l 5,1660,-1
 4273 -592 l 5,1661,-1
 4273 -594 l 5,1662,-1
 4273 -596 l 5,1663,-1
 4275 -596 l 5,1664,-1
 4275 -596 l 5,1665,-1
 4275 -594 l 5,1658,-1
4175 -588 m 5,1666,-1
 4175 -586 l 5,1667,-1
 4173 -586 l 5,1668,-1
 4171 -586 l 5,1669,-1
 4171 -588 l 5,1670,-1
 4171 -590 l 5,1671,-1
 4173 -590 l 5,1672,-1
 4175 -590 l 5,1673,-1
 4175 -588 l 5,1666,-1
4169 -586 m 5,1674,-1
 4169 -586 l 5,1675,-1
 4167 -586 l 5,1676,-1
 4167 -586 l 5,1677,-1
 4167 -586 l 5,1678,-1
 4167 -588 l 5,1679,-1
 4167 -588 l 5,1680,-1
 4169 -588 l 5,1681,-1
 4169 -586 l 5,1674,-1
4181 -586 m 5,1682,-1
 4181 -586 l 5,1683,-1
 4181 -584 l 5,1684,-1
 4181 -582 l 5,1685,-1
 4181 -580 l 5,1686,-1
 4179 -580 l 5,1687,-1
 4179 -580 l 5,1688,-1
 4179 -582 l 5,1689,-1
 4179 -584 l 5,1690,-1
 4177 -584 l 5,1691,-1
 4177 -584 l 5,1692,-1
 4177 -584 l 5,1693,-1
 4177 -586 l 5,1694,-1
 4177 -586 l 5,1695,-1
 4179 -586 l 5,1696,-1
 4179 -586 l 5,1697,-1
 4179 -588 l 5,1698,-1
 4179 -588 l 5,1699,-1
 4181 -588 l 5,1700,-1
 4181 -586 l 5,1682,-1
4195 -584 m 5,1701,-1
 4195 -580 l 5,1702,-1
 4191 -580 l 5,1703,-1
 4189 -580 l 5,1704,-1
 4189 -582 l 5,1705,-1
 4189 -584 l 5,1706,-1
 4187 -584 l 5,1707,-1
 4183 -584 l 5,1708,-1
 4183 -586 l 5,1709,-1
 4183 -588 l 5,1710,-1
 4189 -588 l 5,1711,-1
 4195 -588 l 5,1712,-1
 4195 -584 l 5,1701,-1
4203 -586 m 5,1713,-1
 4203 -586 l 5,1714,-1
 4203 -586 l 5,1715,-1
 4201 -586 l 5,1716,-1
 4201 -586 l 5,1717,-1
 4201 -588 l 5,1718,-1
 4203 -588 l 5,1719,-1
 4203 -588 l 5,1720,-1
 4203 -586 l 5,1713,-1
4215 -588 m 5,1721,-1
 4215 -584 l 5,1722,-1
 4213 -584 l 5,1723,-1
 4211 -584 l 5,1724,-1
 4207 -584 l 5,1725,-1
 4207 -586 l 5,1726,-1
 4209 -586 l 5,1727,-1
 4209 -586 l 5,1728,-1
 4209 -588 l 5,1729,-1
 4213 -588 l 5,1730,-1
 4215 -588 l 5,1731,-1
 4215 -588 l 5,1721,-1
4255 -586 m 5,1732,-1
 4255 -586 l 5,1733,-1
 4253 -586 l 5,1734,-1
 4251 -586 l 5,1735,-1
 4251 -586 l 5,1736,-1
 4251 -588 l 5,1737,-1
 4253 -588 l 5,1738,-1
 4255 -588 l 5,1739,-1
 4255 -586 l 5,1732,-1
4209 -580 m 5,1740,-1
 4209 -578 l 5,1741,-1
 4207 -578 l 5,1742,-1
 4207 -578 l 5,1743,-1
 4207 -580 l 5,1744,-1
 4207 -580 l 5,1745,-1
 4207 -580 l 5,1746,-1
 4209 -580 l 5,1747,-1
 4209 -580 l 5,1740,-1
4203 -576 m 5,1748,-1
 4203 -576 l 5,1749,-1
 4203 -576 l 5,1750,-1
 4201 -576 l 5,1751,-1
 4201 -574 l 5,1752,-1
 4201 -572 l 5,1753,-1
 4203 -572 l 5,1754,-1
 4203 -572 l 5,1755,-1
 4203 -572 l 5,1756,-1
 4203 -570 l 5,1757,-1
 4201 -570 l 5,1758,-1
 4199 -570 l 5,1759,-1
 4199 -572 l 5,1760,-1
 4199 -572 l 5,1761,-1
 4197 -572 l 5,1762,-1
 4197 -572 l 5,1763,-1
 4197 -574 l 5,1764,-1
 4197 -576 l 5,1765,-1
 4199 -576 l 5,1766,-1
 4201 -576 l 5,1767,-1
 4201 -576 l 5,1768,-1
 4201 -578 l 5,1769,-1
 4203 -578 l 5,1770,-1
 4203 -578 l 5,1771,-1
 4203 -576 l 5,1748,-1
4161 -574 m 5,1772,-1
 4161 -572 l 5,1773,-1
 4161 -572 l 5,1774,-1
 4159 -572 l 5,1775,-1
 4159 -574 l 5,1776,-1
 4159 -576 l 5,1777,-1
 4161 -576 l 5,1778,-1
 4161 -576 l 5,1779,-1
 4161 -574 l 5,1772,-1
4209 -574 m 5,1780,-1
 4209 -572 l 5,1781,-1
 4207 -572 l 5,1782,-1
 4207 -572 l 5,1783,-1
 4207 -574 l 5,1784,-1
 4207 -576 l 5,1785,-1
 4207 -576 l 5,1786,-1
 4209 -576 l 5,1787,-1
 4209 -574 l 5,1780,-1
4137 -572 m 5,1788,-1
 4137 -570 l 5,1789,-1
 4135 -570 l 5,1790,-1
 4133 -570 l 5,1791,-1
 4133 -568 l 5,1792,-1
 4133 -568 l 5,1793,-1
 4131 -568 l 5,1794,-1
 4131 -570 l 5,1795,-1
 4133 -570 l 5,1796,-1
 4133 -570 l 5,1797,-1
 4133 -572 l 5,1798,-1
 4133 -572 l 5,1799,-1
 4135 -572 l 5,1800,-1
 4137 -572 l 5,1801,-1
 4137 -572 l 5,1788,-1
4149 -572 m 5,1802,-1
 4149 -570 l 5,1803,-1
 4147 -570 l 5,1804,-1
 4147 -570 l 5,1805,-1
 4147 -572 l 5,1806,-1
 4147 -572 l 5,1807,-1
 4147 -572 l 5,1808,-1
 4149 -572 l 5,1809,-1
 4149 -572 l 5,1802,-1
4189 -572 m 5,1810,-1
 4189 -570 l 5,1811,-1
 4187 -570 l 5,1812,-1
 4187 -570 l 5,1813,-1
 4187 -572 l 5,1814,-1
 4187 -572 l 5,1815,-1
 4187 -572 l 5,1816,-1
 4189 -572 l 5,1817,-1
 4189 -572 l 5,1810,-1
4143 -570 m 5,1818,-1
 4143 -568 l 5,1819,-1
 4147 -568 l 5,1820,-1
 4149 -568 l 5,1821,-1
 4149 -566 l 5,1822,-1
 4149 -566 l 5,1823,-1
 4147 -566 l 5,1824,-1
 4147 -566 l 5,1825,-1
 4147 -564 l 5,1826,-1
 4147 -562 l 5,1827,-1
 4151 -562 l 5,1828,-1
 4157 -562 l 5,1829,-1
 4157 -564 l 5,1830,-1
 4157 -566 l 5,1831,-1
 4153 -566 l 5,1832,-1
 4151 -566 l 5,1833,-1
 4151 -566 l 5,1834,-1
 4151 -568 l 5,1835,-1
 4155 -568 l 5,1836,-1
 4159 -568 l 5,1837,-1
 4159 -566 l 5,1838,-1
 4159 -566 l 5,1839,-1
 4161 -566 l 5,1840,-1
 4161 -566 l 5,1841,-1
 4161 -564 l 5,1842,-1
 4161 -562 l 5,1843,-1
 4159 -562 l 5,1844,-1
 4157 -562 l 5,1845,-1
 4157 -562 l 5,1846,-1
 4157 -560 l 5,1847,-1
 4155 -560 l 5,1848,-1
 4153 -560 l 5,1849,-1
 4153 -560 l 5,1850,-1
 4153 -558 l 5,1851,-1
 4153 -558 l 5,1852,-1
 4151 -558 l 5,1853,-1
 4151 -560 l 5,1854,-1
 4151 -560 l 5,1855,-1
 4147 -560 l 5,1856,-1
 4143 -560 l 5,1857,-1
 4143 -562 l 5,1858,-1
 4143 -562 l 5,1859,-1
 4139 -562 l 5,1860,-1
 4133 -562 l 5,1861,-1
 4133 -564 l 5,1862,-1
 4133 -566 l 5,1863,-1
 4135 -566 l 5,1864,-1
 4137 -566 l 5,1865,-1
 4137 -566 l 5,1866,-1
 4137 -568 l 5,1867,-1
 4139 -568 l 5,1868,-1
 4139 -568 l 5,1869,-1
 4139 -566 l 5,1870,-1
 4139 -566 l 5,1871,-1
 4141 -566 l 5,1872,-1
 4141 -566 l 5,1873,-1
 4141 -568 l 5,1874,-1
 4141 -570 l 5,1875,-1
 4143 -570 l 5,1876,-1
 4143 -570 l 5,1877,-1
 4143 -570 l 5,1818,-1
4165 -566 m 5,1878,-1
 4165 -566 l 5,1879,-1
 4163 -566 l 5,1880,-1
 4161 -566 l 5,1881,-1
 4161 -566 l 5,1882,-1
 4161 -568 l 5,1883,-1
 4163 -568 l 5,1884,-1
 4165 -568 l 5,1885,-1
 4165 -566 l 5,1878,-1
4171 -564 m 5,1886,-1
 4171 -562 l 5,1887,-1
 4169 -562 l 5,1888,-1
 4167 -562 l 5,1889,-1
 4167 -564 l 5,1890,-1
 4167 -566 l 5,1891,-1
 4169 -566 l 5,1892,-1
 4171 -566 l 5,1893,-1
 4171 -564 l 5,1886,-1
4179 -564 m 5,1894,-1
 4179 -562 l 5,1895,-1
 4177 -562 l 5,1896,-1
 4177 -562 l 5,1897,-1
 4177 -560 l 5,1898,-1
 4175 -560 l 5,1899,-1
 4175 -562 l 5,1900,-1
 4175 -566 l 5,1901,-1
 4177 -566 l 5,1902,-1
 4179 -566 l 5,1903,-1
 4179 -564 l 5,1894,-1
4127 -560 m 5,1904,-1
 4127 -558 l 5,1905,-1
 4125 -558 l 5,1906,-1
 4125 -558 l 5,1907,-1
 4125 -560 l 5,1908,-1
 4125 -560 l 5,1909,-1
 4125 -560 l 5,1910,-1
 4127 -560 l 5,1911,-1
 4127 -560 l 5,1904,-1
4141 -556 m 5,1912,-1
 4141 -552 l 5,1913,-1
 4141 -552 l 5,1914,-1
 4139 -552 l 5,1915,-1
 4139 -554 l 5,1916,-1
 4139 -556 l 5,1917,-1
 4139 -556 l 5,1918,-1
 4137 -556 l 5,1919,-1
 4137 -556 l 5,1920,-1
 4137 -558 l 5,1921,-1
 4139 -558 l 5,1922,-1
 4141 -558 l 5,1923,-1
 4141 -556 l 5,1912,-1
4147 -556 m 5,1924,-1
 4147 -556 l 5,1925,-1
 4145 -556 l 5,1926,-1
 4143 -556 l 5,1927,-1
 4143 -556 l 5,1928,-1
 4143 -558 l 5,1929,-1
 4145 -558 l 5,1930,-1
 4147 -558 l 5,1931,-1
 4147 -556 l 5,1924,-1
4157 -548 m 5,1932,-1
 4157 -546 l 5,1933,-1
 4155 -546 l 5,1934,-1
 4153 -546 l 5,1935,-1
 4153 -548 l 5,1936,-1
 4153 -548 l 5,1937,-1
 4155 -548 l 5,1938,-1
 4157 -548 l 5,1939,-1
 4157 -548 l 5,1932,-1
4227 -706 m 5,1940,-1
 4227 -706 l 5,1941,-1
 4229 -706 l 5,1942,-1
 4231 -706 l 5,1943,-1
 4231 -706 l 5,1944,-1
 4231 -708 l 5,1945,-1
 4229 -708 l 5,1946,-1
 4227 -708 l 5,1947,-1
 4227 -706 l 5,1940,-1
4237 -706 m 5,1948,-1
 4237 -706 l 5,1949,-1
 4237 -706 l 5,1950,-1
 4239 -706 l 5,1951,-1
 4239 -706 l 5,1952,-1
 4239 -708 l 5,1953,-1
 4237 -708 l 5,1954,-1
 4237 -708 l 5,1955,-1
 4237 -706 l 5,1948,-1
4169 -704 m 5,1956,-1
 4169 -702 l 5,1957,-1
 4171 -702 l 5,1958,-1
 4171 -702 l 5,1959,-1
 4171 -704 l 5,1960,-1
 4171 -706 l 5,1961,-1
 4171 -706 l 5,1962,-1
 4169 -706 l 5,1963,-1
 4169 -704 l 5,1956,-1
4211 -696 m 5,1964,-1
 4211 -696 l 5,1965,-1
 4213 -696 l 5,1966,-1
 4215 -696 l 5,1967,-1
 4215 -696 l 5,1968,-1
 4215 -698 l 5,1969,-1
 4213 -698 l 5,1970,-1
 4211 -698 l 5,1971,-1
 4211 -696 l 5,1964,-1
4267 -688 m 5,1972,-1
 4267 -686 l 5,1973,-1
 4273 -686 l 5,1974,-1
 4273 -686 l 5,1975,-1
 4273 -686 l 5,1976,-1
 4273 -688 l 5,1977,-1
 4273 -688 l 5,1978,-1
 4271 -688 l 5,1979,-1
 4271 -688 l 5,1980,-1
 4271 -690 l 5,1981,-1
 4269 -690 l 5,1982,-1
 4267 -690 l 5,1983,-1
 4267 -688 l 5,1972,-1
4279 -682 m 5,1984,-1
 4279 -680 l 5,1985,-1
 4279 -680 l 5,1986,-1
 4281 -680 l 5,1987,-1
 4281 -682 l 5,1988,-1
 4281 -682 l 5,1989,-1
 4279 -682 l 5,1990,-1
 4279 -682 l 5,1991,-1
 4279 -682 l 5,1984,-1
4293 -670 m 5,1992,-1
 4293 -670 l 5,1993,-1
 4291 -670 l 5,1994,-1
 4291 -670 l 5,1995,-1
 4291 -668 l 5,1996,-1
 4293 -668 l 5,1997,-1
 4293 -668 l 5,1998,-1
 4293 -670 l 5,1999,-1
 4293 -670 l 5,1992,-1
4061 -664 m 5,2000,-1
 4061 -664 l 5,2001,-1
 4063 -664 l 5,2002,-1
 4065 -664 l 5,2003,-1
 4065 -664 l 5,2004,-1
 4065 -664 l 5,2005,-1
 4063 -664 l 5,2006,-1
 4061 -664 l 5,2007,-1
 4061 -664 l 5,2000,-1
4331 -650 m 5,2008,-1
 4331 -648 l 5,2009,-1
 4333 -648 l 5,2010,-1
 4333 -648 l 5,2011,-1
 4333 -650 l 5,2012,-1
 4333 -650 l 5,2013,-1
 4333 -650 l 5,2014,-1
 4331 -650 l 5,2015,-1
 4331 -650 l 5,2008,-1
4327 -646 m 5,2016,-1
 4327 -646 l 5,2017,-1
 4327 -646 l 5,2018,-1
 4329 -646 l 5,2019,-1
 4329 -646 l 5,2020,-1
 4329 -648 l 5,2021,-1
 4327 -648 l 5,2022,-1
 4327 -648 l 5,2023,-1
 4327 -646 l 5,2016,-1
4341 -642 m 5,2024,-1
 4341 -640 l 5,2025,-1
 4343 -640 l 5,2026,-1
 4343 -640 l 5,2027,-1
 4343 -642 l 5,2028,-1
 4343 -644 l 5,2029,-1
 4343 -644 l 5,2030,-1
 4341 -644 l 5,2031,-1
 4341 -642 l 5,2024,-1
4323 -624 m 5,2032,-1
 4323 -624 l 5,2033,-1
 4325 -624 l 5,2034,-1
 4327 -624 l 5,2035,-1
 4327 -622 l 5,2036,-1
 4327 -620 l 5,2037,-1
 4327 -620 l 5,2038,-1
 4329 -620 l 5,2039,-1
 4329 -622 l 5,2040,-1
 4329 -624 l 5,2041,-1
 4327 -624 l 5,2042,-1
 4327 -624 l 5,2043,-1
 4327 -624 l 5,2044,-1
 4327 -624 l 5,2045,-1
 4325 -624 l 5,2046,-1
 4323 -624 l 5,2047,-1
 4323 -624 l 5,2032,-1
4323 -616 m 5,2048,-1
 4323 -616 l 5,2049,-1
 4325 -616 l 5,2050,-1
 4327 -616 l 5,2051,-1
 4327 -616 l 5,2052,-1
 4327 -618 l 5,2053,-1
 4325 -618 l 5,2054,-1
 4323 -618 l 5,2055,-1
 4323 -616 l 5,2048,-1
4291 -594 m 5,2056,-1
 4291 -592 l 5,2057,-1
 4293 -592 l 5,2058,-1
 4293 -592 l 5,2059,-1
 4293 -594 l 5,2060,-1
 4293 -596 l 5,2061,-1
 4293 -596 l 5,2062,-1
 4291 -596 l 5,2063,-1
 4291 -594 l 5,2056,-1
4263 -580 m 5,2064,-1
 4263 -578 l 5,2065,-1
 4265 -578 l 5,2066,-1
 4267 -578 l 5,2067,-1
 4267 -580 l 5,2068,-1
 4267 -580 l 5,2069,-1
 4265 -580 l 5,2070,-1
 4263 -580 l 5,2071,-1
 4263 -580 l 5,2064,-1
4165 -542 m 5,2072,-1
 4165 -540 l 5,2073,-1
 4163 -540 l 5,2074,-1
 4161 -540 l 5,2075,-1
 4161 -540 l 5,2076,-1
 4161 -538 l 5,2077,-1
 4165 -538 l 5,2078,-1
 4167 -538 l 5,2079,-1
 4167 -536 l 5,2080,-1
 4167 -536 l 5,2081,-1
 4171 -536 l 5,2082,-1
 4175 -536 l 5,2083,-1
 4175 -536 l 5,2084,-1
 4175 -538 l 5,2085,-1
 4175 -538 l 5,2086,-1
 4177 -538 l 5,2087,-1
 4177 -536 l 5,2088,-1
 4177 -536 l 5,2089,-1
 4177 -536 l 5,2090,-1
 4179 -536 l 5,2091,-1
 4179 -536 l 5,2092,-1
 4179 -538 l 5,2093,-1
 4177 -538 l 5,2094,-1
 4177 -538 l 5,2095,-1
 4177 -540 l 5,2096,-1
 4177 -540 l 5,2097,-1
 4175 -540 l 5,2098,-1
 4175 -540 l 5,2099,-1
 4175 -540 l 5,2100,-1
 4175 -538 l 5,2101,-1
 4171 -538 l 5,2102,-1
 4169 -538 l 5,2103,-1
 4169 -540 l 5,2104,-1
 4169 -542 l 5,2105,-1
 4167 -542 l 5,2106,-1
 4165 -542 l 5,2107,-1
 4165 -542 l 5,2072,-1
4183 -542 m 5,2108,-1
 4183 -540 l 5,2109,-1
 4185 -540 l 5,2110,-1
 4187 -540 l 5,2111,-1
 4187 -542 l 5,2112,-1
 4187 -542 l 5,2113,-1
 4185 -542 l 5,2114,-1
 4183 -542 l 5,2115,-1
 4183 -542 l 5,2108,-1
2164 1354 m 1,2116,2117
 2162 1350 2162 1350 2162 1344 c 1,2118,2119
 2174 1334 2174 1334 2178 1326 c 1,2120,-1
 2182 1324 l 1,2121,2122
 2186 1324 2186 1324 2186 1326 c 258,2123,-1
 2186 1330 l 257,2124,-1
 2186 1334 l 1,2125,-1
 2182 1338 l 1,2126,-1
 2164 1352 l 1,2127,-1
 2164 1354 l 1,2116,2117
2174 1364 m 1,2128,-1
 2170 1360 l 1,2129,2130
 2176 1354 2176 1354 2184 1348 c 1,2131,2132
 2192 1340 2192 1340 2194 1332 c 1,2133,2134
 2196 1330 2196 1330 2196 1328 c 1,2135,2136
 2198 1326 2198 1326 2200 1326 c 1,2137,-1
 2202 1328 l 1,2138,-1
 2202 1330 l 2,2139,2140
 2202 1334 2202 1334 2200 1338 c 1,2141,-1
 2198 1340 l 1,2142,-1
 2174 1364 l 1,2128,-1
2248 1440 m 2,2143,2144
 2248 1448 2248 1448 2242 1448 c 256,2145,2146
 2236 1448 2236 1448 2236 1438 c 2,2147,-1
 2234 1422 l 1,2148,-1
 2234 1410 l 1,2149,-1
 2228 1382 l 1,2150,2151
 2228 1378 2228 1378 2224 1376 c 1,2152,-1
 2216 1374 l 1,2153,-1
 2212 1376 l 1,2154,2155
 2212 1378 2212 1378 2206 1392 c 1,2156,-1
 2202 1398 l 1,2157,2158
 2196 1414 2196 1414 2184 1436 c 2,2159,2160
 2182 1442 2182 1442 2178 1446 c 1,2161,-1
 2174 1446 l 1,2162,-1
 2170 1446 l 1,2163,2164
 2168 1444 2168 1444 2168 1442 c 0,2165,2166
 2168 1438 2168 1438 2174 1430 c 0,2167,2168
 2176 1426 2176 1426 2178 1418 c 2,2169,-1
 2192 1382 l 1,2170,-1
 2212 1366 l 2,2171,2172
 2226 1356 2226 1356 2240 1342 c 1,2173,-1
 2240 1340 l 2,2174,2175
 2240 1338 2240 1338 2236 1336 c 1,2176,2177
 2232 1336 2232 1336 2230 1340 c 1,2178,2179
 2228 1340 2228 1340 2228 1342 c 1,2180,2181
 2222 1348 2222 1348 2204 1362 c 2,2182,-1
 2198 1366 l 2,2183,2184
 2196 1368 2196 1368 2190 1372 c 0,2185,2186
 2186 1374 2186 1374 2182 1374 c 2,2187,-1
 2180 1374 l 1,2188,2189
 2180 1372 2180 1372 2178 1370 c 1,2190,2191
 2180 1368 2180 1368 2188 1362 c 0,2192,2193
 2194 1358 2194 1358 2194 1354 c 1,2194,-1
 2202 1346 l 2,2195,2196
 2210 1338 2210 1338 2210 1332 c 256,2197,2198
 2210 1326 2210 1326 2208 1316 c 0,2199,2200
 2206 1310 2206 1310 2204 1306 c 1,2201,2202
 2204 1298 2204 1298 2212 1288 c 0,2203,2204
 2216 1284 2216 1284 2220 1282 c 0,2205,2206
 2228 1276 2228 1276 2228 1274 c 1,2207,2208
 2230 1274 2230 1274 2230 1272 c 256,2209,2210
 2230 1270 2230 1270 2226 1268 c 1,2211,2212
 2208 1276 2208 1276 2200 1292 c 1,2213,2214
 2200 1294 2200 1294 2198 1296 c 256,2215,2216
 2196 1298 2196 1298 2196 1302 c 2,2217,-1
 2198 1314 l 2,2218,2219
 2198 1316 2198 1316 2197 1317 c 2,2220,-1
 2194 1320 l 1,2221,2222
 2190 1316 2190 1316 2184 1316 c 2,2223,-1
 2180 1316 l 1,2224,2225
 2176 1318 2176 1318 2174 1318 c 1,2226,2227
 2166 1328 2166 1328 2164 1328 c 1,2228,2229
 2166 1322 2166 1322 2166 1312 c 1,2230,2231
 2168 1304 2168 1304 2170 1300 c 2,2232,-1
 2182 1270 l 1,2233,-1
 2182 1266 l 1,2234,-1
 2182 1244 l 1,2235,-1
 2246 1244 l 1,2236,-1
 2246 1270 l 2,2237,2238
 2246 1278 2246 1278 2247 1286 c 128,-1,2239
 2248 1294 2248 1294 2248 1302 c 2,2240,-1
 2248 1304 l 1,2241,-1
 2248 1314 l 1,2242,-1
 2248 1330 l 1,2243,-1
 2248 1354 l 1,2244,2245
 2246 1360 2246 1360 2246 1366 c 2,2246,-1
 2246 1368 l 1,2247,-1
 2248 1416 l 1,2248,-1
 2248 1426 l 1,2249,-1
 2248 1440 l 2,2143,2144
2152 1344 m 0,2250,2251
 2152 1352 2152 1352 2158 1360 c 1,2252,2253
 2162 1360 2162 1360 2164 1364 c 2,2254,-1
 2172 1378 l 2,2255,2256
 2174 1382 2174 1382 2180 1386 c 1,2257,-1
 2182 1386 l 1,2258,2259
 2178 1392 2178 1392 2172 1410 c 0,2260,2261
 2168 1424 2168 1424 2164 1430 c 0,2262,2263
 2160 1438 2160 1438 2160 1444 c 0,2264,2265
 2160 1448 2160 1448 2162 1452 c 1,2266,2267
 2166 1456 2166 1456 2172 1456 c 2,2268,-1
 2176 1456 l 1,2269,2270
 2184 1454 2184 1454 2186 1450 c 0,2271,2272
 2198 1434 2198 1434 2208 1406 c 2,2273,-1
 2214 1392 l 2,2274,2275
 2216 1386 2216 1386 2218 1384 c 1,2276,2277
 2220 1386 2220 1386 2222 1396 c 1,2278,2279
 2222 1402 2222 1402 2224 1406 c 1,2280,2281
 2224 1408 2224 1408 2226 1428 c 2,2282,-1
 2226 1438 l 1,2283,-1
 2226 1440 l 1,2284,-1
 2226 1442 l 2,2285,2286
 2226 1448 2226 1448 2232 1452 c 2,2287,2288
 2236 1458 2236 1458 2242 1458 c 0,2289,2290
 2250 1458 2250 1458 2254 1448 c 0,2291,2292
 2256 1444 2256 1444 2256 1442 c 0,2293,2294
 2258 1424 2258 1424 2258 1412 c 2,2295,-1
 2258 1406 l 1,2296,-1
 2256 1362 l 1,2297,-1
 2256 1360 l 1,2298,-1
 2256 1354 l 1,2299,-1
 2256 1350 l 1,2300,2301
 2258 1344 2258 1344 2258 1332 c 0,2302,2303
 2258 1326 2258 1326 2256 1320 c 1,2304,-1
 2258 1302 l 2,2305,2306
 2258 1298 2258 1298 2254 1278 c 1,2307,-1
 2254 1254 l 1,2308,-1
 2254 1234 l 1,2309,-1
 2174 1234 l 1,2310,-1
 2174 1262 l 1,2311,-1
 2174 1268 l 1,2312,2313
 2172 1276 2172 1276 2166 1286 c 0,2314,2315
 2160 1300 2160 1300 2160 1306 c 0,2316,2317
 2160 1316 2160 1316 2156 1330 c 1,2318,2319
 2152 1338 2152 1338 2152 1344 c 0,2250,2251
76 0 m 1,2320,-1
 76 739 l 1,2321,-1
 191 739 l 1,2322,-1
 460 110 l 1,2323,-1
 728 739 l 1,2324,-1
 843 739 l 1,2325,-1
 843 0 l 1,2326,-1
 769 0 l 1,2327,-1
 769 658 l 1,2328,-1
 491 0 l 1,2329,-1
 427 0 l 1,2330,-1
 362.304 153.683 l 1,2331,2332
 341.794 135.9 341.794 135.9 320.5 124 c 0,2333,2334
 286.5 105 286.5 105 246.5 105 c 2,2335,-1
 242.5 105 l 1,2336,-1
 240.5 105 l 2,2337,2338
 200.5 105 200.5 105 166.5 124 c 0,2339,2340
 158.19 128.644 158.19 128.644 150 134.183 c 1,2341,-1
 150 0 l 1,2342,-1
 76 0 l 1,2320,-1
243.5 165 m 128,-1,2344
 240.5 165 240.5 165 238.5 163 c 128,-1,2345
 236.5 161 236.5 161 236.5 157 c 128,-1,2346
 236.5 153 236.5 153 238.5 151 c 128,-1,2347
 240.5 149 240.5 149 242.5 149 c 0,2348,2349
 246.5 149 246.5 149 249.5 151 c 128,-1,2350
 252.5 153 252.5 153 252.5 157 c 128,-1,2351
 252.5 161 252.5 161 249.5 163 c 128,-1,2343
 246.5 165 246.5 165 243.5 165 c 128,-1,2344
242.5 179 m 128,-1,2353
 252.5 179 252.5 179 259.5 173 c 128,-1,2354
 266.5 167 266.5 167 266.5 157 c 128,-1,2355
 266.5 147 266.5 147 259.5 141 c 128,-1,2356
 252.5 135 252.5 135 242.5 135 c 0,2357,2358
 234.5 135 234.5 135 227.5 141 c 128,-1,2359
 220.5 147 220.5 147 220.5 157 c 128,-1,2360
 220.5 167 220.5 167 226.5 173 c 128,-1,2352
 232.5 179 232.5 179 242.5 179 c 128,-1,2353
280.5 189 m 1,2361,2362
 292.5 175 292.5 175 292.5 157 c 128,-1,2363
 292.5 139 292.5 139 280.5 125 c 1,2364,2365
 312.5 133 312.5 133 344.5 159 c 1,2366,2367
 312.5 181 312.5 181 280.5 189 c 1,2361,2362
242.5 193 m 0,2368,2369
 228.5 193 228.5 193 218.5 182 c 128,-1,2370
 208.5 171 208.5 171 208.5 157 c 128,-1,2371
 208.5 143 208.5 143 218.5 133 c 128,-1,2372
 228.5 123 228.5 123 242.5 123 c 0,2373,2374
 258.5 123 258.5 123 268.5 133 c 128,-1,2375
 278.5 143 278.5 143 278.5 157 c 128,-1,2376
 278.5 171 278.5 171 268.5 182 c 128,-1,2377
 258.5 193 258.5 193 242.5 193 c 0,2368,2369
242.5 241 m 2,2378,-1
 244.5 241 l 2,2379,2380
 292.907 241 292.907 241 335.922 216.35 c 1,2381,-1
 150 658 l 1,2382,-1
 150 215.728 l 1,2383,2384
 193.486 241 193.486 241 242.5 241 c 2,2378,-1
150 153.153 m 1,2385,2386
 178.25 132.062 178.25 132.062 206.5 125 c 1,2387,2388
 194.5 139 194.5 139 194.5 157 c 128,-1,2389
 194.5 175 194.5 175 206.5 189 c 1,2390,2391
 178.25 181.938 178.25 181.938 150 163.964 c 1,2392,-1
 150 153.153 l 1,2385,2386
346.488 191.253 m 1,2393,2394
 296.924 227 296.924 227 244.5 227 c 2,2395,-1
 242.5 227 l 2,2396,2397
 195.68 227 195.68 227 150 198.486 c 1,2398,-1
 150 179.572 l 1,2399,2400
 166.553 189.468 166.553 189.468 183.5 197 c 0,2401,2402
 210.5 209 210.5 209 242.5 209 c 2,2403,-1
 244.5 209 l 2,2404,2405
 276.5 209 276.5 209 303.5 197 c 128,-1,2406
 330.5 185 330.5 185 356.5 167 c 1,2407,-1
 356.639 167.139 l 1,2408,-1
 346.488 191.253 l 1,2393,2394
EndSplineSet
Validated: 133
EndChar

StartChar: N
Encoding: 78 78 49
Width: 740
Flags: W
LayerCount: 2
Fore
SplineSet
76 0 m 1,0,-1
 76 739 l 1,1,-1
 176 739 l 1,2,-1
 590 126 l 1,3,-1
 590 739 l 1,4,-1
 664 739 l 1,5,-1
 664 0 l 1,6,-1
 590 0 l 1,7,-1
 150 650 l 1,8,-1
 150 0 l 1,9,-1
 76 0 l 1,0,-1
EndSplineSet
Validated: 1
EndChar

StartChar: O
Encoding: 79 79 50
Width: 869
Flags: W
LayerCount: 2
Fore
SplineSet
435 752 m 0,0,1
 596 752 596 752 710.5 639.5 c 128,-1,2
 825 527 825 527 825 369 c 0,3,4
 825 212 825 212 710 99.5 c 128,-1,5
 595 -13 595 -13 435 -13 c 0,6,7
 272 -13 272 -13 158 100 c 128,-1,8
 44 213 44 213 44 374 c 0,9,10
 44 528 44 528 160 640 c 128,-1,11
 276 752 276 752 435 752 c 0,0,1
435 684 m 0,12,13
 307 684 307 684 213 591.5 c 128,-1,14
 119 499 119 499 119 372 c 0,15,16
 119 241 119 241 211.5 148 c 128,-1,17
 304 55 304 55 435 55 c 0,18,19
 564 55 564 55 657 147.5 c 128,-1,20
 750 240 750 240 750 368 c 0,21,22
 750 498 750 498 657 591 c 128,-1,23
 564 684 564 684 435 684 c 0,12,13
EndSplineSet
Validated: 1
EndChar

StartChar: P
Encoding: 80 80 51
Width: 592
Flags: W
LayerCount: 2
Fore
SplineSet
76 0 m 1,0,-1
 76 739 l 1,1,-1
 280 739 l 2,2,3
 413 739 413 739 477 700 c 0,4,5
 565 648 565 648 565 515 c 0,6,7
 565 399 565 399 491 345 c 0,8,9
 428 299 428 299 292 299 c 2,10,-1
 150 299 l 1,11,-1
 150 0 l 1,12,-1
 76 0 l 1,0,-1
150 366 m 1,13,-1
 287 366 l 2,14,15
 386 366 386 366 429 391 c 0,16,17
 490 425 490 425 490 515 c 0,18,19
 490 616 490 616 423 650 c 0,20,21
 379 672 379 672 255 672 c 2,22,-1
 150 672 l 1,23,-1
 150 366 l 1,13,-1
EndSplineSet
Validated: 1
EndChar

StartChar: Q
Encoding: 81 81 52
Width: 871
Flags: W
LayerCount: 2
Fore
SplineSet
827 56 m 1,0,-1
 827 -13 l 1,1,2
 775 -12 775 -12 739 2 c 128,-1,3
 703 16 703 16 665 51 c 1,4,5
 571 -13 571 -13 443 -13 c 0,6,7
 277 -13 277 -13 160.5 98.5 c 128,-1,8
 44 210 44 210 44 369 c 0,9,10
 44 533 44 533 158.5 642.5 c 128,-1,11
 273 752 273 752 444 752 c 0,12,13
 614 752 614 752 726.5 643.5 c 128,-1,14
 839 535 839 535 839 371 c 0,15,16
 839 198 839 198 716 93 c 1,17,18
 769 55 769 55 812 55 c 0,19,20
 821 55 821 55 827 56 c 1,0,-1
161 216 m 1,21,22
 190 163 190 163 247 120 c 0,23,24
 332 55 332 55 443 55 c 0,25,26
 532 55 532 55 605 100 c 1,27,28
 525 173 525 173 448 205 c 128,-1,29
 371 237 371 237 277 237 c 0,30,31
 214 237 214 237 161 216 c 1,21,22
130 279 m 1,32,33
 208 305 208 305 288 305 c 0,34,35
 445 305 445 305 569 217 c 0,36,37
 623 177 623 177 663 142 c 1,38,39
 764 239 764 239 764 371 c 0,40,41
 764 504 764 504 671.5 594 c 128,-1,42
 579 684 579 684 442 684 c 128,-1,43
 305 684 305 684 212 591.5 c 128,-1,44
 119 499 119 499 119 363 c 0,45,46
 119 328 119 328 130 279 c 1,32,33
EndSplineSet
Validated: 1
EndChar

StartChar: R
Encoding: 82 82 53
Width: 607
Flags: W
LayerCount: 2
Fore
SplineSet
359 276 m 1,0,-1
 566 0 l 1,1,-1
 474 0 l 1,2,-1
 225 335 l 1,3,4
 339 335 339 335 390 348 c 0,5,6
 502 378 502 378 502 504 c 0,7,8
 502 608 502 608 424 645 c 0,9,10
 367 672 367 672 254 672 c 2,11,-1
 150 672 l 1,12,-1
 150 0 l 1,13,-1
 76 0 l 1,14,-1
 76 739 l 1,15,-1
 259 739 l 2,16,17
 400 739 400 739 466 703 c 0,18,19
 577 643 577 643 577 501 c 0,20,21
 577 403 577 403 521 345 c 128,-1,22
 465 287 465 287 359 276 c 1,0,-1
EndSplineSet
Validated: 1
EndChar

StartChar: S
Encoding: 83 83 54
Width: 498
Flags: W
LayerCount: 2
Fore
SplineSet
364 174 m 2,0,1
 364 132 364 132 350 118 c 128,-1,2
 336 104 336 104 294 104 c 2,3,-1
 200 104 l 2,4,5
 160 104 160 104 146 118 c 128,-1,6
 132 132 132 132 132 174 c 2,7,-1
 132 192 l 2,8,9
 132 232 132 232 144 246 c 128,-1,10
 156 260 156 260 190 260 c 1,11,-1
 190 278 l 1,12,-1
 244 332 l 1,13,-1
 306 332 l 1,14,-1
 306 260 l 1,15,16
 340 260 340 260 352 246 c 128,-1,17
 364 232 364 232 364 192 c 2,18,-1
 364 174 l 2,0,1
242 280 m 1,19,-1
 242 314 l 1,20,-1
 208 280 l 1,21,-1
 242 280 l 1,19,-1
294 170 m 1,22,-1
 294 320 l 1,23,-1
 254 320 l 1,24,-1
 254 268 l 1,25,-1
 202 268 l 1,26,-1
 202 170 l 1,27,-1
 294 170 l 1,22,-1
352 174 m 2,28,-1
 352 192 l 2,29,30
 352 228 352 228 343 238 c 128,-1,31
 334 248 334 248 306 248 c 1,32,-1
 306 158 l 1,33,-1
 190 158 l 1,34,-1
 190 248 l 1,35,36
 162 248 162 248 153 238 c 128,-1,37
 144 228 144 228 144 192 c 2,38,-1
 144 174 l 2,39,40
 144 136 144 136 154 126 c 128,-1,41
 164 116 164 116 200 116 c 2,42,-1
 294 116 l 2,43,44
 330 116 330 116 341 127 c 128,-1,45
 352 138 352 138 352 174 c 2,28,-1
1953 897 m 2,46,47
 1953 855 1953 855 1939 841 c 128,-1,48
 1925 827 1925 827 1883 827 c 2,49,-1
 1791 827 l 2,50,51
 1749 827 1749 827 1735 841 c 128,-1,52
 1721 855 1721 855 1721 897 c 2,53,-1
 1721 915 l 2,54,55
 1721 955 1721 955 1733 969 c 128,-1,56
 1745 983 1745 983 1779 983 c 1,57,-1
 1779 1001 l 1,58,-1
 1833 1055 l 1,59,-1
 1895 1055 l 1,60,-1
 1895 983 l 1,61,62
 1929 983 1929 983 1941 969 c 128,-1,63
 1953 955 1953 955 1953 915 c 2,64,-1
 1953 897 l 2,46,47
1831 1003 m 1,65,-1
 1831 1037 l 1,66,-1
 1797 1003 l 1,67,-1
 1831 1003 l 1,65,-1
1883 893 m 1,68,-1
 1883 1043 l 1,69,-1
 1843 1043 l 1,70,-1
 1843 991 l 1,71,-1
 1791 991 l 1,72,-1
 1791 893 l 1,73,-1
 1883 893 l 1,68,-1
1941 897 m 2,74,-1
 1941 915 l 2,75,76
 1941 951 1941 951 1932 961 c 128,-1,77
 1923 971 1923 971 1895 971 c 1,78,-1
 1895 881 l 1,79,-1
 1779 881 l 1,80,-1
 1779 971 l 1,81,82
 1751 971 1751 971 1742 961 c 128,-1,83
 1733 951 1733 951 1733 915 c 2,84,-1
 1733 897 l 2,85,86
 1733 859 1733 859 1744 849 c 128,-1,87
 1755 839 1755 839 1791 839 c 2,88,-1
 1883 839 l 2,89,90
 1919 839 1919 839 1930 850 c 128,-1,91
 1941 861 1941 861 1941 897 c 2,74,-1
22 207 m 1,92,-1
 101 207 l 1,93,94
 108 145 108 145 136 110 c 0,95,96
 180 55 180 55 255 55 c 0,97,98
 318 55 318 55 359.5 96.5 c 128,-1,99
 401 138 401 138 401 202 c 0,100,101
 401 272 401 272 350 308 c 0,102,103
 316 332 316 332 236 357 c 0,104,105
 172 376 172 376 146 388.5 c 128,-1,106
 120 401 120 401 98 422 c 0,107,108
 46 471 46 471 46 553 c 0,109,110
 46 639 46 639 104 695.5 c 128,-1,111
 162 752 162 752 251 752 c 0,112,113
 342 752 342 752 399 697 c 128,-1,114
 456 642 456 642 458 552 c 1,115,-1
 381 552 l 1,116,117
 377 612 377 612 341 648 c 128,-1,118
 305 684 305 684 249 684 c 0,119,120
 194 684 194 684 157.5 647.5 c 128,-1,121
 121 611 121 611 121 555 c 0,122,123
 121 501 121 501 156 469 c 0,124,125
 180 448 180 448 265 423 c 0,126,127
 361 394 361 394 402 364 c 0,128,129
 476 309 476 309 476 206 c 0,130,131
 476 112 476 112 412.5 49.5 c 128,-1,132
 349 -13 349 -13 253 -13 c 0,133,134
 153 -13 153 -13 90 47 c 128,-1,135
 27 107 27 107 22 207 c 1,92,-1
EndSplineSet
Validated: 5
EndChar

StartChar: T
Encoding: 84 84 55
Width: 426
Flags: W
LayerCount: 2
Fore
SplineSet
787 -262 m 1,0,-1
 767 -262 l 1,1,-1
 673 -40 l 1,2,-1
 695 -40 l 1,3,-1
 787 -262 l 1,0,-1
1594.5 400.5 m 1,4,-1
 1574.5 400.5 l 1,5,-1
 1480.5 622.5 l 1,6,-1
 1502.5 622.5 l 1,7,-1
 1594.5 400.5 l 1,4,-1
1918.5 250.5 m 1,8,-1
 1898.5 250.5 l 1,9,-1
 1804.5 472.5 l 1,10,-1
 1826.5 472.5 l 1,11,-1
 1918.5 250.5 l 1,8,-1
394.5 280.5 m 1,12,-1
 374.5 280.5 l 1,13,-1
 280.5 502.5 l 1,14,-1
 302.5 502.5 l 1,15,-1
 394.5 280.5 l 1,12,-1
424.5 496.5 m 1,16,-1
 402.5 496.5 l 1,17,-1
 329.77 672 l 1,18,-1
 250 672 l 1,19,-1
 250 390.191 l 1,20,-1
 268.5 346.5 l 1,21,-1
 250 346.5 l 1,22,-1
 250 0 l 1,23,-1
 176 0 l 1,24,-1
 176 516.62 l 1,25,-1
 154.5 568.5 l 1,26,-1
 174.5 568.5 l 1,27,-1
 176 564.957 l 1,28,-1
 176 672 l 1,29,-1
 7 672 l 1,30,-1
 7 739 l 1,31,-1
 419 739 l 1,32,-1
 419 672 l 1,33,-1
 350.189 672 l 1,34,-1
 424.5 496.5 l 1,16,-1
EndSplineSet
Validated: 1
EndChar

StartChar: U
Encoding: 85 85 56
Width: 655
Flags: W
LayerCount: 2
Fore
SplineSet
76 739 m 1,0,-1
 150 739 l 1,1,-1
 150 278 l 2,2,3
 150 177 150 177 184 125 c 0,4,5
 205 93 205 93 243.5 74 c 128,-1,6
 282 55 282 55 328 55 c 0,7,8
 373 55 373 55 411.5 74 c 128,-1,9
 450 93 450 93 471 125 c 0,10,11
 505 177 505 177 505 278 c 2,12,-1
 505 739 l 1,13,-1
 579 739 l 1,14,-1
 579 278 l 2,15,16
 579 147 579 147 527 78 c 0,17,18
 494 35 494 35 441 11 c 128,-1,19
 388 -13 388 -13 327 -13 c 128,-1,20
 266 -13 266 -13 213.5 11 c 128,-1,21
 161 35 161 35 128 78 c 0,22,23
 76 147 76 147 76 278 c 2,24,-1
 76 739 l 1,0,-1
EndSplineSet
Validated: 1
EndChar

StartChar: V
Encoding: 86 86 57
Width: 702
Flags: W
LayerCount: 2
Fore
SplineSet
314 0 m 1,0,-1
 10 739 l 1,1,-1
 91 739 l 1,2,-1
 351 92 l 1,3,-1
 612 739 l 1,4,-1
 692 739 l 1,5,-1
 386 0 l 1,6,-1
 314 0 l 1,0,-1
EndSplineSet
Validated: 1
EndChar

StartChar: W
Encoding: 87 87 58
Width: 960
Flags: W
LayerCount: 2
Fore
SplineSet
221 0 m 1,0,-1
 10 739 l 1,1,-1
 86 739 l 1,2,-1
 268 96 l 1,3,-1
 445 739 l 1,4,-1
 515 739 l 1,5,-1
 692 96 l 1,6,-1
 874 739 l 1,7,-1
 950 739 l 1,8,-1
 738 0 l 1,9,-1
 643 0 l 1,10,-1
 479 606 l 1,11,-1
 317 0 l 1,12,-1
 221 0 l 1,0,-1
EndSplineSet
Validated: 1
EndChar

StartChar: X
Encoding: 88 88 59
Width: 609
Flags: W
LayerCount: 2
Fore
SplineSet
8 0 m 1,0,-1
 259 378 l 1,1,-1
 22 739 l 1,2,-1
 109 739 l 1,3,-1
 305 443 l 1,4,-1
 500 739 l 1,5,-1
 586 739 l 1,6,-1
 349 378 l 1,7,-1
 601 0 l 1,8,-1
 514 0 l 1,9,-1
 305 316 l 1,10,-1
 95 0 l 1,11,-1
 8 0 l 1,0,-1
EndSplineSet
Validated: 1
EndChar

StartChar: Y
Encoding: 89 89 60
Width: 592
Flags: W
LayerCount: 2
Fore
SplineSet
258 0 m 1,0,-1
 258 247 l 1,1,-1
 2 739 l 1,2,-1
 84 739 l 1,3,-1
 294 325 l 1,4,-1
 509 739 l 1,5,-1
 590 739 l 1,6,-1
 332 247 l 1,7,-1
 332 0 l 1,8,-1
 258 0 l 1,0,-1
EndSplineSet
Validated: 1
EndChar

StartChar: Z
Encoding: 90 90 61
Width: 480
Flags: W
LayerCount: 2
Fore
SplineSet
17 0 m 1,0,-1
 17 67 l 1,1,-1
 380 672 l 1,2,-1
 28 672 l 1,3,-1
 28 739 l 1,4,-1
 463 739 l 1,5,-1
 463 672 l 1,6,-1
 101 67 l 1,7,-1
 474 67 l 1,8,-1
 474 0 l 1,9,-1
 17 0 l 1,0,-1
EndSplineSet
Validated: 1
EndChar

StartChar: bracketleft
Encoding: 91 91 62
Width: 351
Flags: W
LayerCount: 2
Fore
SplineSet
313 -50 m 1,0,-1
 313 -125 l 1,1,2
 234 -102 234 -102 178 -43 c 0,3,4
 143 -4 143 -4 127.5 44 c 128,-1,5
 112 92 112 92 112 164 c 2,6,-1
 112 462 l 2,7,8
 112 588 112 588 185 664 c 0,9,10
 239 719 239 719 313 739 c 1,11,-1
 313 664 l 1,12,13
 240 632 240 632 211 584.5 c 128,-1,14
 182 537 182 537 182 448 c 2,15,-1
 182 177 l 2,16,17
 182 81 182 81 210.5 32 c 128,-1,18
 239 -17 239 -17 313 -50 c 1,0,-1
EndSplineSet
Validated: 1
EndChar

StartChar: backslash
Encoding: 92 92 63
Width: 605
Flags: W
LayerCount: 2
Fore
SplineSet
470.5 1053 m 256,0,1
 416.5 1053 416.5 1053 383.5 1084 c 128,-1,2
 350.5 1115 350.5 1115 350.5 1161 c 0,3,4
 350.5 1209 350.5 1209 384.5 1239 c 128,-1,5
 418.5 1269 418.5 1269 472.5 1269 c 0,6,7
 524.5 1269 524.5 1269 558.5 1238 c 128,-1,8
 592.5 1207 592.5 1207 592.5 1161 c 256,9,10
 592.5 1115 592.5 1115 558.5 1084 c 128,-1,11
 524.5 1053 524.5 1053 470.5 1053 c 256,0,1
554.5 1161 m 0,12,13
 554.5 1181 554.5 1181 549.5 1196 c 128,-1,14
 544.5 1211 544.5 1211 535.5 1221 c 128,-1,15
 526.5 1231 526.5 1231 516.5 1239 c 128,-1,16
 506.5 1247 506.5 1247 494.5 1251 c 128,-1,17
 482.5 1255 482.5 1255 474.5 1257 c 128,-1,18
 466.5 1259 466.5 1259 460.5 1259 c 0,19,20
 414.5 1259 414.5 1259 386.5 1227 c 0,21,22
 360.5 1199 360.5 1199 360.5 1163 c 0,23,24
 360.5 1121 360.5 1121 389.5 1093 c 128,-1,25
 418.5 1065 418.5 1065 458.5 1065 c 128,-1,26
 498.5 1065 498.5 1065 526.5 1093 c 128,-1,27
 554.5 1121 554.5 1121 554.5 1161 c 0,12,13
464 0 m 1,28,-1
 394 0 l 1,29,-1
 84 739 l 1,30,-1
 154 739 l 1,31,-1
 464 0 l 1,28,-1
EndSplineSet
Validated: 1
EndChar

StartChar: bracketright
Encoding: 93 93 64
Width: 351
Flags: W
LayerCount: 2
Fore
SplineSet
38 664 m 1,0,-1
 38 739 l 1,1,2
 119 716 119 716 173 657 c 0,3,4
 208 618 208 618 223.5 570 c 128,-1,5
 239 522 239 522 239 450 c 2,6,-1
 239 153 l 2,7,8
 239 26 239 26 166 -50 c 0,9,10
 112 -105 112 -105 38 -125 c 1,11,-1
 38 -50 l 1,12,13
 112 -17 112 -17 140.5 30.5 c 128,-1,14
 169 78 169 78 169 166 c 2,15,-1
 169 438 l 2,16,17
 169 533 169 533 140.5 582 c 128,-1,18
 112 631 112 631 38 664 c 1,0,-1
EndSplineSet
Validated: 1
EndChar

StartChar: asciicircum
Encoding: 94 94 65
Width: 606
Flags: W
LayerCount: 2
Fore
SplineSet
588 180 m 1,0,-1
 507 180 l 1,1,-1
 304 660 l 1,2,-1
 99 180 l 1,3,-1
 18 180 l 1,4,-1
 261 739 l 1,5,-1
 346 739 l 1,6,-1
 588 180 l 1,0,-1
EndSplineSet
Validated: 1
EndChar

StartChar: underscore
Encoding: 95 95 66
Width: 500
Flags: W
LayerCount: 2
Fore
SplineSet
0 -67 m 1,0,-1
 500 -67 l 1,1,-1
 500 -125 l 1,2,-1
 0 -125 l 1,3,-1
 0 -67 l 1,0,-1
EndSplineSet
Validated: 1
EndChar

StartChar: grave
Encoding: 96 96 67
Width: 378
Flags: W
LayerCount: 2
Fore
SplineSet
106 776 m 1,0,-1
 304 666 l 1,1,-1
 271 610 l 1,2,-1
 74 718 l 1,3,-1
 106 776 l 1,0,-1
EndSplineSet
Validated: 1
EndChar

StartChar: a
Encoding: 97 97 68
Width: 683
Flags: W
LayerCount: 2
Fore
SplineSet
931 -38 m 1,0,-1
 703 -38 l 1,1,-1
 703 0 l 1,2,-1
 931 0 l 1,3,-1
 931 -38 l 1,0,-1
1559.75 714 m 1,4,-1
 1331.75 714 l 1,5,-1
 1331.75 752 l 1,6,-1
 1559.75 752 l 1,7,-1
 1559.75 714 l 1,4,-1
1149 1073.5 m 1,8,-1
 921 1073.5 l 1,9,-1
 921 1111.5 l 1,10,-1
 1149 1111.5 l 1,11,-1
 1149 1073.5 l 1,8,-1
1439.75 988 m 1,12,-1
 1439.75 842 l 1,13,-1
 1345.75 966 l 2,14,15
 1337.75 978 1337.75 978 1334.75 989 c 128,-1,16
 1331.75 1000 1331.75 1000 1331.75 1010 c 128,-1,17
 1331.75 1020 1331.75 1020 1335.75 1029 c 128,-1,18
 1339.75 1038 1339.75 1038 1346.75 1045 c 128,-1,19
 1353.75 1052 1353.75 1052 1362.75 1055 c 128,-1,20
 1371.75 1058 1371.75 1058 1381.75 1058 c 0,21,22
 1395.75 1058 1395.75 1058 1405.75 1055 c 128,-1,23
 1415.75 1052 1415.75 1052 1420.75 1045 c 2,24,-1
 1430.75 1031 l 2,25,26
 1435.75 1024 1435.75 1024 1436.75 1016 c 128,-1,27
 1437.75 1008 1437.75 1008 1438.75 1002 c 128,-1,28
 1439.75 996 1439.75 996 1439.75 992 c 2,29,-1
 1439.75 988 l 1,12,-1
1451.75 988 m 1,30,-1
 1451.75 992 l 2,31,32
 1451.75 996 1451.75 996 1452.75 1002 c 128,-1,33
 1453.75 1008 1453.75 1008 1455.75 1016 c 128,-1,34
 1457.75 1024 1457.75 1024 1461.75 1031 c 128,-1,35
 1465.75 1038 1465.75 1038 1471.75 1045 c 128,-1,36
 1477.75 1052 1477.75 1052 1487.75 1055 c 128,-1,37
 1497.75 1058 1497.75 1058 1509.75 1058 c 0,38,39
 1519.75 1058 1519.75 1058 1528.75 1055 c 128,-1,40
 1537.75 1052 1537.75 1052 1544.75 1045 c 128,-1,41
 1551.75 1038 1551.75 1038 1555.75 1029 c 128,-1,42
 1559.75 1020 1559.75 1020 1560.75 1010 c 128,-1,43
 1561.75 1000 1561.75 1000 1557.75 989 c 128,-1,44
 1553.75 978 1553.75 978 1545.75 966 c 2,45,-1
 1451.75 842 l 1,46,-1
 1451.75 988 l 1,30,-1
332 492 m 0,47,48
 243 492 243 492 180 429 c 128,-1,49
 117 366 117 366 117 277 c 0,50,51
 117 183 117 183 180 119 c 128,-1,52
 243 55 243 55 336 55 c 0,53,54
 424 55 424 55 485 119 c 0,55,56
 499.687 134.409 499.687 134.409 510.838 151.5 c 1,57,-1
 389 151.5 l 1,58,-1
 389 189.5 l 1,59,-1
 530.457 189.5 l 1,60,61
 546 229.055 546 229.055 546 276 c 0,62,63
 546 367 546 367 484 429.5 c 128,-1,64
 422 492 422 492 332 492 c 0,47,48
620 547 m 1,65,-1
 620 0 l 1,66,-1
 546 0 l 1,67,-1
 546 96 l 1,68,69
 502 37 502 37 453.5 12 c 128,-1,70
 405 -13 405 -13 335 -13 c 0,71,72
 209 -13 209 -13 125.5 68.5 c 128,-1,73
 42 150 42 150 42 272 c 0,74,75
 42 395 42 395 124.5 477.5 c 128,-1,76
 207 560 207 560 330 560 c 0,77,78
 468 560 468 560 546 450 c 1,79,-1
 546 547 l 1,80,-1
 620 547 l 1,65,-1
EndSplineSet
Validated: 33
EndChar

StartChar: b
Encoding: 98 98 69
Width: 682
Flags: W
LayerCount: 2
Fore
SplineSet
63 0 m 1,0,-1
 63 739 l 1,1,-1
 137 739 l 1,2,-1
 137 453 l 1,3,4
 210 560 210 560 352 560 c 0,5,6
 474 560 474 560 557 477.5 c 128,-1,7
 640 395 640 395 640 274 c 0,8,9
 640 151 640 151 557.5 69 c 128,-1,10
 475 -13 475 -13 351 -13 c 0,11,12
 284 -13 284 -13 227.5 15 c 128,-1,13
 171 43 171 43 137 94 c 1,14,-1
 137 0 l 1,15,-1
 63 0 l 1,0,-1
350 492 m 128,-1,17
 258 492 258 492 195 429.5 c 128,-1,18
 132 367 132 367 132 276 c 0,19,20
 132 184 132 184 195 120 c 0,21,22
 259 55 259 55 349 55 c 0,23,24
 441 55 441 55 503 118.5 c 128,-1,25
 565 182 565 182 565 276 c 0,26,27
 565 368 565 368 503.5 430 c 128,-1,16
 442 492 442 492 350 492 c 128,-1,17
EndSplineSet
Validated: 1
EndChar

StartChar: c
Encoding: 99 99 70
Width: 647
Flags: W
LayerCount: 2
Fore
SplineSet
2944.5 908.5 m 1,0,-1
 2926.5 908.5 l 1,1,-1
 2926.5 890.5 l 1,2,-1
 2888.5 890.5 l 1,3,-1
 2888.5 908.5 l 1,4,-1
 2926.5 908.5 l 1,5,-1
 2926.5 928.5 l 1,6,-1
 2944.5 928.5 l 1,7,-1
 2944.5 908.5 l 1,0,-1
2888.5 946.5 m 1,8,-1
 2870.5 946.5 l 1,9,-1
 2870.5 964.5 l 1,10,-1
 2888.5 964.5 l 1,11,-1
 2888.5 946.5 l 1,8,-1
2944.5 946.5 m 1,12,-1
 2926.5 946.5 l 1,13,-1
 2926.5 964.5 l 1,14,-1
 2944.5 964.5 l 1,15,-1
 2944.5 946.5 l 1,12,-1
2870.5 870.5 m 1,16,-1
 2944.5 870.5 l 1,17,-1
 2944.5 852.5 l 1,18,-1
 2870.5 852.5 l 1,19,-1
 2870.5 870.5 l 1,16,-1
2870.5 870.5 m 1,20,-1
 2850.5 870.5 l 1,21,-1
 2850.5 890.5 l 1,22,-1
 2870.5 890.5 l 1,23,-1
 2870.5 870.5 l 1,20,-1
2944.5 870.5 m 1,24,-1
 2944.5 890.5 l 1,25,-1
 2964.5 890.5 l 1,26,-1
 2964.5 870.5 l 1,27,-1
 2944.5 870.5 l 1,24,-1
2850.5 890.5 m 1,28,-1
 2832.5 890.5 l 1,29,-1
 2832.5 908.5 l 1,30,-1
 2832.5 928.5 l 1,31,-1
 2832.5 946.5 l 1,32,-1
 2832.5 964.5 l 1,33,-1
 2832.5 984.5 l 1,34,-1
 2850.5 984.5 l 1,35,-1
 2850.5 964.5 l 1,36,-1
 2850.5 946.5 l 1,37,-1
 2850.5 928.5 l 1,38,-1
 2850.5 908.5 l 1,39,-1
 2850.5 890.5 l 1,28,-1
2964.5 890.5 m 1,40,-1
 2964.5 908.5 l 1,41,-1
 2964.5 928.5 l 1,42,-1
 2964.5 946.5 l 1,43,-1
 2964.5 964.5 l 1,44,-1
 2964.5 984.5 l 1,45,-1
 2982.5 984.5 l 1,46,-1
 2982.5 964.5 l 1,47,-1
 2982.5 946.5 l 1,48,-1
 2982.5 928.5 l 1,49,-1
 2982.5 908.5 l 1,50,-1
 2982.5 890.5 l 1,51,-1
 2964.5 890.5 l 1,40,-1
2888.5 908.5 m 1,52,-1
 2870.5 908.5 l 1,53,-1
 2870.5 928.5 l 1,54,-1
 2888.5 928.5 l 1,55,-1
 2888.5 908.5 l 1,52,-1
2850.5 984.5 m 1,56,-1
 2850.5 1002.5 l 1,57,-1
 2870.5 1002.5 l 1,58,-1
 2870.5 984.5 l 1,59,-1
 2850.5 984.5 l 1,56,-1
2964.5 984.5 m 1,60,-1
 2944.5 984.5 l 1,61,-1
 2944.5 1002.5 l 1,62,-1
 2964.5 1002.5 l 1,63,-1
 2964.5 984.5 l 1,60,-1
2870.5 1002.5 m 1,64,-1
 2870.5 1022.5 l 1,65,-1
 2944.5 1022.5 l 1,66,-1
 2944.5 1002.5 l 1,67,-1
 2870.5 1002.5 l 1,64,-1
607.5 -346.5 m 1,68,-1
 589.5 -346.5 l 1,69,-1
 589.5 -366.5 l 1,70,-1
 551.5 -366.5 l 1,71,-1
 551.5 -346.5 l 1,72,-1
 589.5 -346.5 l 1,73,-1
 589.5 -328.5 l 1,74,-1
 607.5 -328.5 l 1,75,-1
 607.5 -346.5 l 1,68,-1
551.5 -310.5 m 1,76,-1
 533.5 -310.5 l 1,77,-1
 533.5 -290.5 l 1,78,-1
 551.5 -290.5 l 1,79,-1
 551.5 -310.5 l 1,76,-1
607.5 -310.5 m 1,80,-1
 589.5 -310.5 l 1,81,-1
 589.5 -290.5 l 1,82,-1
 607.5 -290.5 l 1,83,-1
 607.5 -310.5 l 1,80,-1
533.5 -384.5 m 1,84,-1
 607.5 -384.5 l 1,85,-1
 607.5 -404.5 l 1,86,-1
 533.5 -404.5 l 1,87,-1
 533.5 -384.5 l 1,84,-1
533.5 -384.5 m 1,88,-1
 513.5 -384.5 l 1,89,-1
 513.5 -366.5 l 1,90,-1
 533.5 -366.5 l 1,91,-1
 533.5 -384.5 l 1,88,-1
607.5 -384.5 m 1,92,-1
 607.5 -366.5 l 1,93,-1
 627.5 -366.5 l 1,94,-1
 627.5 -384.5 l 1,95,-1
 607.5 -384.5 l 1,92,-1
513.5 -366.5 m 1,96,-1
 495.5 -366.5 l 1,97,-1
 495.5 -346.5 l 1,98,-1
 495.5 -328.5 l 1,99,-1
 495.5 -310.5 l 1,100,-1
 495.5 -290.5 l 1,101,-1
 495.5 -272.5 l 1,102,-1
 513.5 -272.5 l 1,103,-1
 513.5 -290.5 l 1,104,-1
 513.5 -310.5 l 1,105,-1
 513.5 -328.5 l 1,106,-1
 513.5 -346.5 l 1,107,-1
 513.5 -366.5 l 1,96,-1
627.5 -366.5 m 1,108,-1
 627.5 -346.5 l 1,109,-1
 627.5 -328.5 l 1,110,-1
 627.5 -310.5 l 1,111,-1
 627.5 -290.5 l 1,112,-1
 627.5 -272.5 l 1,113,-1
 645.5 -272.5 l 1,114,-1
 645.5 -290.5 l 1,115,-1
 645.5 -310.5 l 1,116,-1
 645.5 -328.5 l 1,117,-1
 645.5 -346.5 l 1,118,-1
 645.5 -366.5 l 1,119,-1
 627.5 -366.5 l 1,108,-1
551.5 -346.5 m 1,120,-1
 533.5 -346.5 l 1,121,-1
 533.5 -328.5 l 1,122,-1
 551.5 -328.5 l 1,123,-1
 551.5 -346.5 l 1,120,-1
513.5 -272.5 m 1,124,-1
 513.5 -252.5 l 1,125,-1
 533.5 -252.5 l 1,126,-1
 533.5 -272.5 l 1,127,-1
 513.5 -272.5 l 1,124,-1
627.5 -272.5 m 1,128,-1
 607.5 -272.5 l 1,129,-1
 607.5 -252.5 l 1,130,-1
 627.5 -252.5 l 1,131,-1
 627.5 -272.5 l 1,128,-1
533.5 -252.5 m 1,132,-1
 533.5 -234.5 l 1,133,-1
 607.5 -234.5 l 1,134,-1
 607.5 -252.5 l 1,135,-1
 533.5 -252.5 l 1,132,-1
524 161 m 1,136,-1
 608 161 l 1,137,138
 569 86 569 86 522 49 c 0,139,140
 443 -13 443 -13 340 -13 c 0,141,142
 214 -13 214 -13 128 70 c 128,-1,143
 42 153 42 153 42 275 c 0,144,145
 42 394 42 394 127 477 c 128,-1,146
 212 560 212 560 335 560 c 0,147,148
 427 560 427 560 500.5 511.5 c 128,-1,149
 574 463 574 463 607 381 c 1,150,-1
 524 381 l 1,151,152
 459 492 459 492 334 492 c 0,153,154
 243 492 243 492 180 428.5 c 128,-1,155
 117 365 117 365 117 273 c 0,156,157
 117 182 117 182 181 118.5 c 128,-1,158
 245 55 245 55 337 55 c 0,159,160
 395 55 395 55 438 79.5 c 128,-1,161
 481 104 481 104 524 161 c 1,136,-1
EndSplineSet
Validated: 5
EndChar

StartChar: d
Encoding: 100 100 71
Width: 685
Flags: W
LayerCount: 2
Fore
SplineSet
622 739 m 1,0,-1
 622 0 l 1,1,-1
 548 0 l 1,2,-1
 548 99 l 1,3,4
 507 40 507 40 457.5 13.5 c 128,-1,5
 408 -13 408 -13 340 -13 c 0,6,7
 213 -13 213 -13 127.5 69 c 128,-1,8
 42 151 42 151 42 273 c 128,-1,9
 42 395 42 395 125.5 477.5 c 128,-1,10
 209 560 209 560 333 560 c 0,11,12
 465 560 465 560 548 460 c 1,13,-1
 548 739 l 1,14,-1
 622 739 l 1,0,-1
331 492 m 0,15,16
 242 492 242 492 179.5 429 c 128,-1,17
 117 366 117 366 117 276 c 0,18,19
 117 182 117 182 180.5 118.5 c 128,-1,20
 244 55 244 55 338 55 c 0,21,22
 426 55 426 55 488.5 120 c 128,-1,23
 551 185 551 185 551 275 c 128,-1,24
 551 365 551 365 486.5 428.5 c 128,-1,25
 422 492 422 492 331 492 c 0,15,16
EndSplineSet
Validated: 1
EndChar

StartChar: e
Encoding: 101 101 72
Width: 650
Flags: W
LayerCount: 2
Fore
SplineSet
611 249 m 1,0,-1
 116 249 l 1,1,2
 120 168 120 168 182.5 111.5 c 128,-1,3
 245 55 245 55 329 55 c 0,4,5
 391 55 391 55 444 89.5 c 128,-1,6
 497 124 497 124 520 180 c 1,7,-1
 597 180 l 1,8,9
 576 116 576 116 517 60 c 0,10,11
 439 -13 439 -13 331 -13 c 0,12,13
 210 -13 210 -13 126 70.5 c 128,-1,14
 42 154 42 154 42 276 c 0,15,16
 42 395 42 395 124.5 477.5 c 128,-1,17
 207 560 207 560 326 560 c 0,18,19
 404 560 404 560 470.5 521.5 c 128,-1,20
 537 483 537 483 574 418 c 0,21,22
 611 352 611 352 611 249 c 1,0,-1
118 316 m 1,23,-1
 537 316 l 1,24,25
 518 398 518 398 461.5 445 c 128,-1,26
 405 492 405 492 325 492 c 0,27,28
 247 492 247 492 190 443.5 c 128,-1,29
 133 395 133 395 118 316 c 1,23,-1
EndSplineSet
Validated: 1
EndChar

StartChar: f
Encoding: 102 102 73
Width: 314
Flags: W
LayerCount: 2
Fore
SplineSet
101 0 m 1,0,-1
 101 480 l 1,1,-1
 16 480 l 1,2,-1
 16 547 l 1,3,-1
 101 547 l 1,4,5
 98 739 98 739 311 739 c 1,6,-1
 311 672 l 1,7,8
 235 671 235 671 204.5 643 c 128,-1,9
 174 615 174 615 175 547 c 1,10,-1
 311 547 l 1,11,-1
 311 480 l 1,12,-1
 175 480 l 1,13,-1
 175 0 l 1,14,-1
 101 0 l 1,0,-1
EndSplineSet
Validated: 33
EndChar

StartChar: g
Encoding: 103 103 74
Width: 673
Flags: W
LayerCount: 2
Fore
SplineSet
610 547 m 1,0,-1
 610 98 l 2,1,2
 610 18 610 18 598.5 -30.5 c 128,-1,3
 587 -79 587 -79 559 -117 c 0,4,5
 485 -215 485 -215 337 -215 c 0,6,7
 234 -215 234 -215 163 -164 c 128,-1,8
 92 -113 92 -113 62 -17 c 1,9,-1
 134 -17 l 1,10,11
 165 -72 165 -72 188 -92 c 0,12,13
 246 -147 246 -147 335 -147 c 0,14,15
 398 -147 398 -147 445 -121 c 128,-1,16
 492 -95 492 -95 514 -48 c 128,-1,17
 536 -1 536 -1 536 74 c 2,18,-1
 536 111 l 1,19,20
 473 -13 473 -13 327 -13 c 0,21,22
 207 -13 207 -13 124.5 69 c 128,-1,23
 42 151 42 151 42 271 c 0,24,25
 42 395 42 395 122 477.5 c 128,-1,26
 202 560 202 560 322 560 c 0,27,28
 455 560 455 560 536 450 c 1,29,-1
 536 547 l 1,30,-1
 610 547 l 1,0,-1
326 492 m 0,31,32
 235 492 235 492 176 431.5 c 128,-1,33
 117 371 117 371 117 277 c 0,34,35
 117 182 117 182 177 118.5 c 128,-1,36
 237 55 237 55 327 55 c 0,37,38
 416 55 416 55 476 119.5 c 128,-1,39
 536 184 536 184 536 280 c 0,40,41
 536 369 536 369 475 430.5 c 128,-1,42
 414 492 414 492 326 492 c 0,31,32
EndSplineSet
Validated: 1
EndChar

StartChar: h
Encoding: 104 104 75
Width: 610
Flags: W
LayerCount: 2
Fore
SplineSet
63 0 m 1,0,-1
 63 739 l 1,1,-1
 137 739 l 1,2,-1
 137 476 l 1,3,4
 195 560 195 560 311 560 c 0,5,6
 435 560 435 560 500 475 c 0,7,8
 547 412 547 412 547 294 c 2,9,-1
 547 0 l 1,10,-1
 473 0 l 1,11,-1
 473 294 l 2,12,13
 473 386 473 386 436 432 c 0,14,15
 389 492 389 492 304 492 c 0,16,17
 214 492 214 492 167 424 c 0,18,19
 137 383 137 383 137 300 c 2,20,-1
 137 0 l 1,21,-1
 63 0 l 1,0,-1
EndSplineSet
Validated: 1
EndChar

StartChar: i
Encoding: 105 105 76
Width: 200
Flags: W
LayerCount: 2
Fore
SplineSet
706 106 m 1,0,-1
 628 12 l 1,1,-1
 696 -12 l 1,2,-1
 560 -134 l 1,3,-1
 648 -20 l 1,4,-1
 580 6 l 1,5,-1
 706 106 l 1,0,-1
2264 728.5 m 1,6,-1
 2186 634.5 l 1,7,-1
 2254 610.5 l 1,8,-1
 2118 488.5 l 1,9,-1
 2206 602.5 l 1,10,-1
 2138 628.5 l 1,11,-1
 2264 728.5 l 1,6,-1
1914 1244.5 m 1,12,-1
 1900 1192.5 l 1,13,-1
 1952 1206.5 l 1,14,-1
 1914 1166.5 l 1,15,-1
 1966 1150.5 l 1,16,-1
 1914 1134.5 l 1,17,-1
 1952 1096.5 l 1,18,-1
 1900 1110.5 l 1,19,-1
 1914 1056.5 l 1,20,-1
 1872 1096.5 l 1,21,-1
 1858 1042.5 l 1,22,-1
 1844 1096.5 l 1,23,-1
 1804 1056.5 l 1,24,-1
 1818 1110.5 l 1,25,-1
 1764 1096.5 l 1,26,-1
 1804 1134.5 l 1,27,-1
 1750 1150.5 l 1,28,-1
 1804 1166.5 l 1,29,-1
 1764 1206.5 l 1,30,-1
 1818 1192.5 l 1,31,-1
 1804 1244.5 l 1,32,-1
 1844 1206.5 l 1,33,-1
 1858 1258.5 l 1,34,-1
 1872 1206.5 l 1,35,-1
 1914 1244.5 l 1,12,-1
140 896 m 1,36,-1
 120 896 l 1,37,-1
 26 1118 l 1,38,-1
 48 1118 l 1,39,-1
 140 896 l 1,36,-1
464 746 m 1,40,-1
 444 746 l 1,41,-1
 350 968 l 1,42,-1
 372 968 l 1,43,-1
 464 746 l 1,40,-1
63 613 m 1,44,-1
 63 739 l 1,45,-1
 137 739 l 1,46,-1
 137 613 l 1,47,-1
 63 613 l 1,44,-1
104 740 m 1,48,-1
 84 740 l 1,49,-1
 -10 962 l 1,50,-1
 12 962 l 1,51,-1
 104 740 l 1,48,-1
146 -90 m 1,52,-1
 126 -90 l 1,53,-1
 88.7027 0 l 1,54,-1
 63 0 l 1,55,-1
 63 62.0217 l 1,56,-1
 34 132 l 1,57,-1
 54 132 l 1,58,-1
 63 110.283 l 1,59,-1
 63 547 l 1,60,-1
 137 547 l 1,61,-1
 137 0 l 1,62,-1
 108.703 0 l 1,63,-1
 146 -90 l 1,52,-1
EndSplineSet
Validated: 1
EndChar

StartChar: j
Encoding: 106 106 77
Width: 203
Flags: W
LayerCount: 2
Fore
SplineSet
140 547 m 1,0,-1
 140 38 l 2,1,2
 140 -42 140 -42 125 -83.5 c 128,-1,3
 110 -125 110 -125 70 -155 c 0,4,5
 23 -189 23 -189 -45 -192 c 1,6,-1
 -45 -121 l 1,7,8
 17 -117 17 -117 41.5 -82 c 128,-1,9
 66 -47 66 -47 66 38 c 2,10,-1
 66 547 l 1,11,-1
 140 547 l 1,0,-1
66 613 m 1,12,-1
 66 739 l 1,13,-1
 140 739 l 1,14,-1
 140 613 l 1,15,-1
 66 613 l 1,12,-1
EndSplineSet
Validated: 1
EndChar

StartChar: k
Encoding: 107 107 78
Width: 502
Flags: W
LayerCount: 2
Fore
SplineSet
63 0 m 1,0,-1
 63 739 l 1,1,-1
 137 739 l 1,2,-1
 137 215 l 1,3,-1
 392 547 l 1,4,-1
 483 547 l 1,5,-1
 270 272 l 1,6,-1
 497 0 l 1,7,-1
 405 0 l 1,8,-1
 223 219 l 1,9,-1
 137 113 l 1,10,-1
 137 0 l 1,11,-1
 63 0 l 1,0,-1
EndSplineSet
Validated: 1
EndChar

StartChar: l
Encoding: 108 108 79
Width: 200
Flags: W
LayerCount: 2
Fore
SplineSet
63 0 m 1,0,-1
 63 739 l 1,1,-1
 137 739 l 1,2,-1
 137 0 l 1,3,-1
 63 0 l 1,0,-1
EndSplineSet
Validated: 1
EndChar

